<?xml version="1.0" encoding="UTF-8"?><svg xmlns="http://www.w3.org/2000/svg" viewBox="0 0 236.56 288.25"><defs><style>.d{fill:#19122b;}</style></defs><g id="a"/><g id="b"><g id="c"><g><path class="d" d="M232.18,236.57c-.1-.08-.19-.19-.3-.23-.8-.32-1.13-.47-.96,.77-.47,.13-.94,.26-1.56,.44-1.03-.51-2.28-.38-3.5-.15-.57,.11-1.05,.44-1.67,.02-.21-.14-.74,.27-1.12,.27-.74,0-1.48-.12-2.41-.2l1.19-1.01c-.64-.18-1.21-.34-1.84-.52l-.06,.65c-.89-1.01-1.8-.39-2.76-.08-.08-.18-.12-.41-.25-.51-.21-.16-.66-.37-.71-.31-.65,.77-1.04,.19-1.46-.24-1.21,.82-1.64,.75-2.58-.46-.32,.52-.62,1.01-.92,1.51-.1,.17-.19,.35-.27,.53-.3,.74-.94,1.05-1.62,1.32-.3,.12-.67,.27-.83,.52-.52,.82-1.41,1.04-2.18,1.37-1.86,.8-3.79,1.45-5.68,2.17-.78,.3-1.52,.61-2.42,.57-.71-.03-1.44,.3-2.15,.5-1.16,.33-1.94,.37-3.03,.06-.21,.53-.58,.66-1.17,.5-.67-.18-1.38-.1-2.03,.21-.38,.18-.75,.3-1.16,.06-.08-.05-.22-.07-.29-.03-1.16,.53-2.4,.08-3.59,.31-.76,.15-1.51,.01-2.2-.36-.06-.03-.13-.07-.19-.06-1.12,.28-2.04-.38-3.03-.68-.56-.17-1.07-.53-1.62-.75-.66-.27-1.52-.31-1.96-.77-.36-.38-.78-.22-1.1-.51-.29-.26-.88-.17-1.22-.41-.81-.55-1.89-.62-2.57-1.24-.72-.66-1.65-1.17-2.08-2.16-.2-.45-.58-.83-.88-1.24-.05,0-.14-.05-.18-.02-.96,.58-2.02,.29-3,.24-1.87-.1-3.72-.15-5.55,.3-.16,.04-.34,.06-.5,.03-1.19-.22-2.38-.24-3.58-.18-.6,.03-1.2-.06-1.81-.06-.36,0-.73,.07-1.14,.12l-.28-.45c-.07,.03-.15,.03-.17,.07-.08,.14-.12,.41-.21,.43-.55,.12-1.11,.2-1.67,.27-.08,.01-.21-.14-.25-.11-.73,.5-1.61,.33-2.36,.29-1.2-.08-2.36,.45-3.59,.02-.69-.24-1.53-.06-2.3-.07-.2,0-.41,0-.61,0-.86-.02-1.71-.14-2.58,.06-.31,.07-.66-.09-1-.13-.26-.03-.56-.11-.77-.01-.62,.29-1.21,.09-1.82,0-.16-.02-.41-.18-.46-.13-.83,.84-1.74-.21-2.62,.12-.22,.08-.65-.39-.99-.6-.66,.59-1.41,.56-2.18,.38-.13-.03-.31-.17-.36-.12-.75,.62-1.44-.14-2.17-.08-.73,.06-1.47-.2-2.21-.16-.59,.03-1.14-.27-1.68-.18-.55,.09-1.02-.04-1.45-.27-.59-.32-1.09-.24-1.63,.15-.64-.45-1.34-.61-2.11-.43h.03l-1.05-.17-.51,.71c-.6-.43-1.21,.59-1.84,.02-.05-.04-.28,.17-.43,.19-.36,.05-.77,.15-1.09,.04-.23-.08-.34-.42-.53,.01-.01,.03-.07,.06-.08,.06-.64-.5-1.25,.1-1.89,.08-.33-.01-.79-.22-1.1,.27-.09,.15-.51,.06-.63-.29-.06-.17-.18-.32-.3-.53l-1.29,1.16-.62-.81-.13,.99-1.74-.44,.06-1.23-.18-.03c-.07,.33-.12,.66-.2,.98-.08,.34-.22,.47-.65,.58-.8,.19-1.53-.04-2.29-.05-.94-.01-1.88,.16-2.82,.25-.36,.04-.71,.1-1.23,.17,.4-.82,.25-1.46-.14-1.98l-.22,1.95c-.87,0-1.7-.01-2.54,0-.33,0-.66,.09-1,.11-.22,.01-.48,.04-.66-.06-.44-.25-.91-.2-1.25,.02-.46,.3-.9,.19-1.36,.18-.36,0-.73,.02-1.1,.04-.16,0-.42,.08-.48,0-.48-.57-.95-.21-1.43-.03-.13,.05-.3,.13-.39,.08-1.15-.59-2.27,.18-3.42,.04-1.33-.15-2.73,.11-4.02-.15-.78-.16-1.46,.19-2.22,0-.62-.16-1.14-.28-1.42-.79-.39,0-.76,.1-1.02-.02-1.67-.78-3.45-.95-5.24-1.05-1.46-.09-2.93,.03-4.37-.16-1.08-.14-2.14-.56-3.18-.94-.74-.28-.73-.35-1.03,.31-.31,.69-.79,1.24-1.4,1.68-.92,.67-1.99,.8-3.06,.81-.38,0-.72-.21-.86,.35-.02,.07-.41,.05-.64,.07l-.04-.51h-.15l-.21,1.01q-2.07-.2-2.62,.5c-.38-.78-1.03-.09-1.57-.33,.43,.26,1.06,.3,.94,1.07-.37,.43-.88,.62-1.49,.61-.32,0-.64,.04-.95,.02-.36-.02-.71-.09-1.24-.16-.14,.07,.09,.83-.48,.58-.28-.13-.45-.52-.73-.89-.87,.81-1.81,1.19-2.9,.35-.27,.68-.8,.5-1.28,.54-.49,.04-.97,.21-1.39-.45l-.13,.79-.54-.11,.09-1.05c-.29,.14-.49,.32-.64,.29-.2-.04-.36-.24-.67-.48v1.23h.77c-.32,.34-.66,.42-1.01,.13-.75-.62-1-.63-1.64-.11l-2.09-.58c-.27,.13-.49,.33-.72,.33-.9,.02-1.62-.35-2.16-1.11-.19-.27-.39-.68-.9-.41-.06,.03-.31-.43-.52-.48-.21-.05-.52,.26-.7,.19-.67-.26-1.51-.25-1.88-1.1-.82,.45-1.31-.25-1.94-.44-.16-.05-.37-.14-.49-.08-.84,.36-1.73,.15-2.59,.24-.42,.04-.85,.35-1.25-.28-.21,.54-.48,.65-1.01,.63-1.24-.06-2.49,.12-3.74,.14-.42,0-.89-.05-1.26-.23-.66-.31-1.36-.29-2.04-.37-.8-.08-1.67,.06-2.4-.2-1.36-.49-2.75,.08-4.11-.31-.6-.17-1.33,.1-1.99,.17-1.12,.13-1.45-.06-1.9-1.12-.03-.06-.07-.11-.07-.12-.27-.02-.51-.03-.74-.06-.26-.03-.54-.03-.75-.15-.26-.16-.66-.44-.65-.65,.02-.42,.14-.84,.16-1.28,.02-.52,.59-.63,1-.89H.22c.83-.76,1.76-.9,2.54-.64,1.16,.38,2.28,.13,3.42,.19,.83,.05,1.67,0,2.56,0,0-.73,.31-1.49-.5-1.98l.26-.54-.68-.36,.59-1.98-.56-.21c.05-.16,.04-.37,.14-.48,.44-.48,.26-1.01,.18-1.54-.03-.16-.19-.32-.17-.47,.07-.57,.12-1.09-.15-1.67-.23-.5-.12-1.14-.3-1.67-.19-.57-.02-.87,.71-1.09l-.87-.3c.06-.27,.23-.57,.15-.76-.41-.94,0-1.68,.52-2.38-.97-.85-.96-1.3,0-2.38-.8-.62-1-1.59-.56-2.8,.24-.66,.14-1.31,.16-1.98,.02-.95-.43-2.05,.48-2.87l-.73-1.25c.27-.33,.8-.61,.18-1.12-.13-.11,0-.65,.12-.93,.22-.48,.19-1.02-.06-1.33-.33-.42-.24-.79-.27-1.21-.04-.57,.21-.8,.75-.86-.64-1.01-.61-2.05-.64-3.12-.03-1.16-.25-2.32-.42-3.48-.1-.7-.09-1.38,.1-2.07,.35-1.3,.65-2.62,.96-3.94,.03-.13,.05-.31-.02-.39-.23-.27-.17-.45-.11-.8,.07-.37,.13-.86,.06-1.26-.15-.86,.2-1.75-.21-2.58-.08-.16-.07-.48,.03-.58,.75-.74,.23-1.63,.25-2.42,.01-.55,.05-.89,.49-1.06l-.46-2.05,.82-.3-1.01-.7c.85-.39,1-.86,.83-1.61-.1-.42-.25-1.08,.31-1.46,.06-.04,.1-.22,.07-.24-.48-.4,0-.79-.02-1.17-.01-.55,.3-.85,.55-1.2,.36-.48-.8-.39-.31-.96,.21-.24,.21-.66,.33-1.09-.03-.03-.18-.16-.32-.31-.14-.14-.26-.29-.45-.49,.12-.08,.32-.19,.31-.21-.43-.89,.52-1.74,.1-2.63-.05-.11-.08-.35-.02-.39,.77-.54,.35-1.3,.44-1.97,.12-.85,.45-1.68,.77-2.49,.1-.26,.24-.43,.08-.73-.07-.13,.03-.36,.09-.53,.05-.15,.22-.32,.18-.43-.2-.57,.41-.91,.38-1.37-.03-.6,.38-.9,.67-1.24,.28-.32-.02-.57,.07-.85,.17-.52,.47-1.04,.06-1.61-.07-.09,0-.41,.09-.47,.42-.27,.03-.52,.01-.82,.15-.1,.34-.18,.48-.32,.21-.21,.26-.42,.02-.69-.53-.62-.49-.8-.15-1.49,.22-.44,.33-.94,.48-1.42,.05-.15,0-.39,.09-.47,.41-.35,.14-.66-.05-1.02l.73-.37c-.2-.53,.15-1.16-.22-1.62-.33-.41,.54-.54,.13-1.02-.18-.21,.09-.81,.19-1.23,.08-.37,.1-.87,.34-1.07,.4-.33,.41-.66,.32-1.05-.04-.16-.23-.28-.34-.4l1.27-1.26-.42-1c.11-.16,.2-.35,.35-.47,.32-.27,.36-.56,.13-.89-.42-.61-.32-1.16,.07-1.78,.32-.52,.71-1.06,.61-1.75-.01-.09,.02-.23,.09-.28,.35-.3,.68-.59,.47-1.11,.65-.44,.23-1.13,.38-1.69,.22-.87,.2-1.83,1.16-2.42-.56-.46-.23-.94-.1-1.4,.05-.19,.17-.36,.28-.53,.67-1,.6-2.24,1.1-3.3,.22-.46,.36-.96,.56-1.52q.28-.07,.28-.52l.97-.05c-.09-.13-.19-.22-.21-.32-.14-.62,.26-1.27,.81-1.58,.46-.26,.83-.65,1.31-1.03l-.93-1.09,.82-.27v-.13l-.74-.08c.09-.17,.12-.3,.2-.37,.27-.24,.73-.29,.64-.85-.02-.12,.39-.34,.62-.47,.23-.12,.49-.18,.83-.46l-.82-.33c1-.54,1.37-1.21,1.43-2.11l.86-.28s.08-.08,.11-.14c.25-.55,.47-1.11,.76-1.64,.21-.38,.43-.7,.51-1.16,.07-.38,.6-.68,.93-1.01,.16-.16,.45-.27,.49-.45,.11-.46,.42-.69,.76-.94,.15-.11,.21-.37,.26-.58,.05-.19,0-.42,.07-.6,.09-.21,.22-.49,.4-.57,.83-.35,.89-1.38,1.66-1.79,.85-.45,1.71-.89,2.33-1.7,.34-.44,.94-.68,1.47-1.05l-.55-.14c.04-.11,.05-.25,.12-.33,.74-.84,1.48-1.68,2.24-2.51,.1-.11,.3-.22,.43-.2,.29,.06,.45,0,.54-.28,.03-.09,.13-.2,.2-.21,.99-.14,1.27-1.31,2.2-1.53,.06-.01,.16-.07,.16-.1-.07-.93,.96-.84,1.29-1.39,1.01-.16,1.55-1.08,2.43-1.48,.87-.4,1.62-1.06,2.44-1.58,.53-.34,1.07-.65,1.78-1.07,.06-.3,.41-.55,.93-.78,.65-.29,1.34-.72,1.76-1.28,.89-1.19,2.31-1.56,3.37-2.45,.66,.09,.97-.47,1.42-.77,.47-.31,1.02-.54,1.4-.94,.57-.6,1.21-.91,2.08-.85v-.83c.14-.04,.24-.11,.33-.1,.52,.11,1.12,.53,1.28-.43,.52,.14,.79-.35,1.2-.5,.36-.13,.64-.47,.96-.72,.1-.08,.24-.26,.3-.23,.65,.29,.94-.24,1.35-.53,.75-.52,1.61-.9,2.16-1.69,.1-.14,.35-.19,.55-.29l-.16-.53c.49-.15,.99-.36,1.51-.46,.6-.12,.75-.65,1.01-1.04,.74-1.07,1.29-2.29,2.73-2.62,.19-.04,.4-.16,.51-.32,.78-1.12,2.15-1.56,3-2.6,.11-.14,.35-.17,.68-.31-.72-.9-.6-2.03-1.19-2.99-.45-.73-.48-1.71-.67-2.58-.07-.3,0-.63-.12-.9-.32-.74-.32-1.55-.57-2.29-.46-1.35-1.02-2.66-1.56-3.98-.07-.18-.26-.3-.38-.46-.19-.28-.42-.55-.53-.86-.7-2.03-1.36-4.07-2.04-6.1-.04-.13-.11-.29-.06-.39,.2-.45,.11-1.02,.27-1.38,.41-.93,.76-1.97,1.71-2.55,.31-.19,.69-.32,1.04-.35,.71-.05,1.42-.05,2.13,.01,.57,.04,1.12,.17,1.42,.8,.13,.27,.48,.42,.75,.64,.42-.5,.35-.96,.2-1.41-.55-1.6-.67-3.24-.54-4.92,.06-.77,.17-1.56,.04-2.3-.2-1.12,0-2.22-.06-3.33-.02-.26,.09-.52,.11-.78,.02-.21,0-.43-.02-.65-.01-.09-.14-.19-.12-.26,.36-1.33-.18-2.71,.34-4.07,.47-1.21,.59-2.55,.96-3.81,.19-.65,.52-1.3,.93-1.85,.69-.91,1.61-1.65,2.22-2.6,.62-.96,1.73-1.64,1.84-2.92,.79-.87,1.51-1.82,2.39-2.58,.39-.34,.99-.5,1.48-.81,.34-.22,.6-.37,.62-.8,0-.12,.1-.31,.2-.34,.99-.28,1.38-1.22,2-1.88,.79-.84,1.81-1.26,2.72-1.88,.44-.3,.96-.26,1.55-.01-.06,.22-.08,.44-.18,.63-.15,.3-.37,.57-.53,.86-.45,.81-.4,1.11,.4,1.94,.84-1.35,2.23-2.2,3.01-3.6,.21-.37,.57-.65,.85-.99,.17-.2,.36-.42,.43-.66,.32-1,.31-1.01,.85-1.56-.31-.28-.54-.57-1.01-.17-.2,.17-.56,.22-.85,.22-.81-.01-1.61-.09-2.42-.12-.19,0-.43-.03-.58,.06-.51,.29-1.01,.51-1.62,.29-.11-.04-.29,.11-.44,.15-.58,.15-1.15,.41-1.78,.14-.15-.07-.38,0-.56,.04-.54,.12-1.05,.35-1.65,.17-.25-.07-.57,.13-.86,.21-.82,.25-1.71,.3-2.37,.96-.12,.12-.38,.18-.57,.17-1.82-.11-3.28,.88-4.83,1.6-.21,.1-.45,.37-.61,.33-.69-.19-1.12,.09-1.46,.69-.13-.64,.11-.97,.68-1.12,.7-.18,1.42-.33,1.85-1l.79,.18c.5-.78,1.15-1.28,2.03-1.46,.33-.07,.75-.07,.96-.28,.7-.67,1.55-.67,2.42-.8,.71-.11,1.38-.47,2.09-.66,.53-.14,1.1-.18,1.64-.28,.1-.02,.22-.05,.29-.11,.5-.4,1.04-.49,1.64-.26,.18-.68,.77-.72,1.27-.68,.75,.06,1.54,.01,2.21-.14,.89-.2,1.74-.42,2.66-.38,1.08-.87,2.47-.23,3.64-.74,.42-.18,1.01-.06,1.5,.04,.47,.1,.8,0,1-.4,1.15,.18,2.23,.15,3.34-.06,.56-.11,1.2,.04,1.76,.22,.4,.13,.75,.23,1.17,.17,1.72-.27,3.4,0,5.09,.33,.67,.13,1.39-.02,2.09-.01,.83,.01,1.66,.04,2.49,.09,.97,.06,1.92,.2,2.81,.61,.15,.07,.33,.06,.5,.07,.75,.04,1.48,.1,2.11,.58,.13,.1,.34,.2,.47,.17,.95-.26,1.75,.19,2.56,.53,1.12,.47,2.19,1.08,3.32,1.52,2.17,.85,4.4,1.57,6.55,2.46,.89,.37,1.67,1.03,2.46,1.61,.66,.49,1.56,.71,1.85,1.63,.02,.07,.15,.13,.24,.16,1.38,.45,2.35,1.55,3.58,2.24,.03,.02,.06,.05,.07,.08,.3,1.21,1.59,1.33,2.34,2.05,.33,.31,.66,.69,1.06,.97,.63,.44,1.28,.91,1.76,1.5,.72,.88,1.34,1.86,1.94,2.83,.44,.72,.82,1.48,1.15,2.26,.37,.87,.65,1.78,.51,2.73-.06,.38-.26,.74-.37,1.05l-1.95-.1-.48,.75c.32,.34,.68,.69,.19,1.13h1.97c0,.24,.1,.6-.02,.68-.51,.39-.27,1.06-.63,1.49-.06,.07-.13,.19-.11,.27,.2,1.3-.35,2.49-.5,3.74-.07,.64-.08,1.28-.13,1.92-.03,.44-.05,.87-.11,1.3-.07,.49-.31,.99-.24,1.45,.11,.77-.21,1.36-.5,1.99-.18,.38-.28,.81-.38,1.22-.19,.81-.39,1.61-.52,2.43-.03,.21,.17,.45,.26,.68,.18-.12,.41-.21,.53-.37,.43-.6,.81-1.24,1.24-1.84,.38-.53,.77-1.04,1.2-1.53,.11-.12,.36-.13,.54-.16,.23-.04,.55,.04,.67-.09,.56-.6,1.22-.19,1.69-.05,.79,.24,1.67,.57,2.12,1.36,.22,.37,.21,.9,.24,1.36,.02,.35,.13,.67,.2,.99,.19,.81,.64,1.64,.25,2.53-.04,.09,.08,.24,.07,.36-.04,.43-.05,.87-.17,1.28-.11,.37-.98,.43-.48,1.09-.38,.4-.18,.87-.16,1.32,.04,.79-.42,1.4-.72,2.07-.47,1.05-.98,2.09-1.51,3.12-.11,.22-.35,.38-.53,.57,.05-.3,.1-.61,.16-1l-1.09,1.15,.07,.12,.9-.31c-.04,.9-.65,1.54-1.09,2.23-.54,.84-1.14,1.64-1.74,2.44-.19,.25-.44,.46-.73,.75l.49,.4c-.43,.39-.15,1.18-.82,1.51,.41,.86-.59,.96-.89,1.55l.7,.15c.06,.87-.09,1.68-.48,2.49-.42,.85-.11,1.59,.76,2.03,.44,.23,.91,.35,1.19,.85,.22,.39,.94,.22,1.1,.78,.81,.12,1.2,1.03,2.1,1.05,.36,0,.55,.58,1.12,.48,.26-.05,.6,.41,.93,.65l-.15,.56c.31,0,.54-.02,.77,0,.19,.02,.4,.05,.55,.15,.42,.27,.51,.93,1.14,.97,.04,0,.11,.18,.09,.27-.06,.37,.09,.55,.42,.69,.21,.09,.41,.27,.52,.47,.19,.31,.35,.46,.77,.42,.18-.02,.29,.57,.74,.43,.09-.03,.25,.12,.36,.21,.84,.67,1.68,1.34,2.61,2.08l-.26,.88h1.48c-.12,1.34,.99,1.43,1.78,1.7,.42,.14,.73,.36,1.08,.57,.68,.4,1.26,.98,2.07,1.16,.16,.03,.38,.13,.43,.25,.23,.64,.63,.71,1.26,.65,.29-.03,.63,.41,.96,.64l-.27,.62c.73,.22,1.75-.21,2.05,.95,1.37,.18,1.93,.66,2.28,2.84l1.01-.2c.57,.44,1.08,.84,1.62,1.25l-.38,.71,.95-.26,.07,.73,.7,.23-.13,.75c.56,.66,.8-.55,1.37-.14-.02,.14-.06,.33-.07,.51,0,.36,.09,.55,.54,.51,.42-.04,.87-.05,1.04,.57,.07,.26,.49,.43,.73,.66,.26,.25,.62,.49,.74,.8,.39,1.08,1.26,1.78,2.14,2.28,.73,.42,1.22,1.03,1.83,1.52,1.13,.9,2.17,1.9,3.25,2.86,.19,.91,1.26,1.1,1.56,1.98l-.82,.29,2.19,1.03-.35,.58c.22,.12,.43,.29,.66,.34,.35,.08,.53,.2,.75,.54,.33,.52,.9,.89,1.37,1.33,.09,.09,.27,.2,.26,.28-.17,1.12,.63,1.82,1.18,2.59,.44,.61,1.11,1.04,1.66,1.57,.18,.17,.4,.37,.47,.59,.21,.63,.58,1.06,1.32,1.1-.1,.72,.62,1.16,.47,1.87-.02,.08,.15,.21,.24,.31,.35,.38,.71,.76,1.05,1.15,.06,.07,.11,.22,.07,.28-.38,.65,.11,.93,.49,1.31,.29,.29,.45,.71,.69,1.12l.78-.56c-.11,.79-.4,1.21-1.01,1.52,.59,.19,1.1,.37,1.62,.54,.06,.7-.32,1.08-.96,1.37,.31,.2,.51,.42,.74,.46,.99,.18,1.26,.86,1.28,1.75l-.59,.18,.71,.37c0,.19-.02,.42,0,.64,.07,.6-.28,1.26,.37,1.81,.17,.14,.44,.68,.16,1.2-.14,.26,.11,.96,.39,1.17,.73,.52,.53,1.45,1.09,2.06,.49,.54,.73,1.33,1.02,2.04,.08,.19-.12,.5-.04,.7,.18,.49,.44,.94,.69,1.47h-.96c.52,.43,.96,.64,1.13,.98,.19,.38,.25,.81,.61,1.1,.08,.06,.2,.12,.22,.2,.3,1.06,.6,2.13,.88,3.19,.06,.23-.03,.53,.1,.69,.56,.71,.42,1.61,.7,2.39,.15,.4,.37,.78,.57,1.16,.43,.82,1.04,1.59,.64,2.54,.51,1.08,.77,2.13,.58,3.3-.07,.42,.17,.97,.44,1.33,.36,.48,.83,.83,.13,1.4-.11,.08-.14,.48-.05,.55,.44,.39,.45,1.02,.95,1.42,.39,.31,.58,.88,.8,1.36,.1,.22,.05,.5,.08,.77-.36-.09-.76-.31-.92-.19-.42,.3,.04,.61,.18,.86,.24,.43,.61,.79,.88,1.2,.09,.14,.08,.35,.15,.7l-1.02-.69c-.52,.37-.2,.74-.14,1.09l1.05,.07c-.16,.79-.17,1.46,.58,1.94-.5,.37-1.05-.5-1.44,.23,.59,.37,.54,1.27,1.33,1.56,.18,.07,.21,.52,.34,.88l-1.03,.51,.16,.41h-.67c0,.07,0,.16,.03,.17,.52,.23,1.06,.42,1.57,.67,.37,.18,.35,.21,.29,.9l-.86-1.07,.09,1.91,.75-.04q.36,1.23-.51,1.58c.44,.46-.42,1.05,.16,1.54,.12-.03,.2-.02,.23-.06,.16-.18,.14-.59,.54-.45,.1,.03,.23,.23,.2,.3-.11,.34-.25,.67-.41,1-.02,.04-.22-.04-.29,0-.17,.12-.32,.28-.47,.42,.18,.12,.34,.29,.54,.35,.14,.04,.34-.11,.49-.08,.17,.04,.31,.19,.56,.37l-1.2,.79c.17,.44,.09,1,.79,1.23,.43,.14,.18,.56,.02,.93l-.88-.11c.01,.12-.01,.26,.04,.29,.29,.2,.53,.43,.49,.83l.03-.02-.75,.08,.75,.36-.03-.03s.02,.07,.05,.09c.39,.47-.17,.93,0,1.42,.15,.46,.62,.85,.35,1.42-.05,.11-.07,.28-.02,.38,.3,.67,0,1.17-.43,1.62,.25,.49,.49,.95,.72,1.39l-.68,.84,.14,.16,.41-.19c.29,.14,.09,1.28-.39,1.88,.76,.74,.37,1.73,.51,2.63,.13,.83-.03,1.71-.03,2.56,0,.84,.01,1.69,.08,2.52,.04,.46,.06,.86-.5,.98,.18,.35,.5,.86,.46,.89-.45,.33-.04,.63-.04,.93,0,.3-.18,.6-.25,.8,.12,.68,.24,1.3,.31,1.92,.02,.15-.13,.31-.2,.47-.02,.05-.07,.14-.05,.16,.75,.64,.18,1.24-.06,1.84-.11,.27-.27,.51-.45,.85l.5,.11c0,.63-.09,1.26,.03,1.86,.1,.49,.1,.82-.27,1.18-.2,.19-.29,.5-.47,.83,1.4,.54,.81,1.72,.98,2.65,.06,.31,.05,.64,.08,.96,.01,.14,.07,.29,.03,.4-.36,.92,.02,1.86-.11,2.79-.04,.26-.09,.53-.1,.79-.02,.32,0,.64,.01,.97,0,.2,.11,.41,.07,.6-.27,1.18,.22,2.37-.02,3.53-.23,1.11-.05,2.21,.13,3.28,.11,.63,.12,1.16-.19,1.68-.15,.25-.36,.47-.63,.81,.2,.15,.72,.43,.69,.53-.16,.51,.15,.64,.47,.78,.05,1.99,.26,2.33,1.44,2.34l-.35-.49c1.17,0,2.24,0,3.31,0,.32,0,.65-.05,.97-.07,.87-.06,1.47,.51,2.22,.94l.93-.7c.78,.49,1.88-.04,2.68,.89-.64,0-1.28-.25-1.7,.53l.97,.55c.05,.87-.22,1.17-.98,.96-.53-.14-.99-.16-1.41,.26l.15,.58c-.44,.45-.94,.32-1.44,.21l.03,.02ZM114.6,16.21q.32,.36,.8,.1l-.83-.08c.46-.71,1.18-1.08,1.88-1.49,.34-.2,.64-.46,.96-.68,.47-.33,.95-.66,1.48-1.03,.12-.76,.78-1.28,1.41-1.72,.7-.49,1.52-.54,2.29-.13l.23,.91c-.59,.5-1.19,.99-1.76,1.52-.56,.53-.9,1.24-1.24,1.9l-.63-.23c-.06,.11-.11,.16-.12,.23-.16,.69,.05,1.56-.96,1.82-.14,.04-.23,.32-.33,.5-.16,.29-.3,.59-.44,.89-.31-.07-.14-.79-.69-.47,.2,.82,.2,.82-.41,1.65-.07,.1-.02,.29-.1,.37-.55,.59-.83,1.42-1.79,1.64-1.02,.23-1.29,.78-1.21,1.88,0,.13,0,.32-.09,.37-.57,.36-.35,.95-.53,1.46,.95,.27,1.55-.31,2.2-.69,.69-.4,1.36-.83,2.05-1.22,.64-.36,1.35-.61,1.92-1.05,1.35-1.01,2.66-2.08,3.94-3.18,.34-.29,.62-.48,1.09-.27,0-.44-.17-.79,.3-1.04,1.12-.61,1.93-1.69,3.14-2.18,.12-.05,.22-.15,.3-.25,.78-.92,1.65-1.67,2.88-1.98,.62-.16,1.08-.19,1.44,.29,.03,.8-.42,1.22-.97,1.57-.17,.11-.32,.25-.49,.37-1.32,.99-1.61,1.9-1.16,3.51,.06,.21,.02,.46-.04,.67-.23,.81-.49,1.61-.74,2.44-1.14,.26-.96,1.35-1.38,2.15,.26,.06,.45,.18,.57,.13,.93-.38,1.87-.75,2.78-1.2,.66-.33,1.21-.93,1.9-1.12,.7-.19,1.19-.59,1.73-.98,.71-.51,1.26-1.23,2.14-1.49,.13-.04,.24-.21,.32-.35,.37-.7,.82-1.31,1.61-1.61,.21-.08,.4-.27,.54-.45,.73-.98,1.64-1.48,2.88-1.11,.06,.02,.11,.07,.06,.04,.51,.69,.36,1.32,.02,1.85-.43,.67-.96,1.27-1.48,1.89-.34,.41-.73,.79-1.09,1.19-.4,.44-.8,.9-1.21,1.33-.14,.15-.33,.28-.49,.41,.31,.12,.54,.42,.76,.02,.12-.22,.32-.41,.52-.55,.68-.49,1.39-.94,2.07-1.43,.7-.5,1.33-1.13,2.09-1.53,.77-.41,1.49-1.1,2.43-.83l.8,1.13c-.3,.37-.48,.96-1.23,.92,.69,.71,.69,.72,.15,1.28-.16,.17-.34,.36-.55,.43-.65,.21-1.08,.68-1.51,1.15-.42,.46-.72,1-1.32,1.33-.36,.2-.76,.72-.75,1.08,.01,.86-.66,1.24-.99,1.85-.15,.27-.34,.51-.48,.78-.33,.67-.03,1.15,.72,1.14,.23,0,.47-.08,.7-.14,1.3-.33,2.46-.93,3.56-1.68,1.11-.76,2.25-1.48,3.4-2.17,1.23-.75,2.49-1.45,3.67-2.13,.2-1.06,.09-1.94-.45-2.75-.68-1-1.31-2.05-2.06-3-.48-.6-1.1-1.12-1.75-1.52-.82-.51-1.66-.97-2.37-1.66-.74-.71-1.55-1.35-2.36-1.98-1.25-.98-2.52-1.94-3.8-2.88-.54-.4-1.1-.77-1.68-1.1-.58-.32-1.04-.75-1.75-.96-1.48-.43-2.87-1.16-4.28-1.8-.23-.1-.37-.39-.59-.63-.86,.31-1.64-.14-2.37-.53-.74-.39-1.65-.16-2.33-.71-.06-.05-.2-.03-.3,0-.52,.13-.99,0-1.46-.24-.24-.12-.52-.31-.76-.27-.66,.09-1.09-.15-1.36-.77-1.11,.47-2.17,.54-3.28,.19-.66-.21-1.39-.22-2.09-.3-.29-.03-.59,.04-.88,0-2.28-.24-4.56-.44-6.86-.29-.13,0-.28,0-.4-.04-1.46-.59-2.98-.35-4.47-.29-.72,.03-1.37,.43-1.61,1.21-.34,1.12-1.12,1.78-2.12,2.3-.36,.19-.79,.47-.78,1.05,0,.19-.18,.4-.31,.58-.14,.18-.33,.32-.47,.5-.36,.44-.67,.93-1.06,1.34-.66,.71-1.43,1.32-2.05,2.06-.94,1.13-1.79,2.34-2.68,3.5-.3,.39-.73,.72-.92,1.16-.25,.59-.32,1.26-.51,2.08,.95-.18,1.8-.23,2.58-.52,1.33-.48,2.61-1.1,3.9-1.68,.25-.11,.47-.33,.66-.54,.66-.67,1.25-1.43,1.97-2.03,1.01-.84,2.13-1.56,3.18-2.36,.37-.28,.74-.6,1.03-.96,.68-.85,1.57-1.33,2.58-1.64,.59-.18,1.1,.29,.87,.84-.24,.56-.54,1.18-.99,1.54-.4,.31-.41,.61-.46,1.1,.22-.13,.45-.2,.51-.33,.23-.54,.66-.64,1.18-.79,1.11-.32,2.29-.51,2.89-1.79,.36-.78,1.12-1.15,1.95-1.01l.45,1.8c-.83,.93-1.62,1.84-2.43,2.72-.13,.14-.34,.22-.53,.28-.29,.09-.58,.14-.92,.22l-.12,1.33c-.66,.47-1.3,1.07-2.06,1.4-.5,.22-.74,.52-.93,.95-.11,.24-.22,.48-.36,.71-.61,1.01-1.22,2.03-1.85,3.03-.16,.25-.39,.44-.64,.72,.63,.57-.61,1.27,.06,1.89,.62-.19,1.44-.19,1.72-.57,.52-.71,1.23-.8,1.91-1.07,.12-.05,.3-.09,.35-.19,.42-.74,1.18-1.08,1.83-1.54,1.69-1.18,3.4-2.34,5.1-3.5Zm-36.12,34.73c-.33-.42-.65-.7-.8-1.06-.47-1.09-.85-2.21-1.32-3.3-.27-.62-.58-1.23-.98-1.77-.58-.77-1.5-.79-2.12-.12-.48,.52-.72,1.16-.61,1.86,.09,.6,.28,1.18,.45,1.76,.5,1.75,1.39,3.33,2.39,4.82,.92,1.38,1.37,2.93,1.8,4.5,.2,.74,.15,1.59,.49,2.24,.44,.83,.51,1.75,.87,2.6,.4,.95,.53,2,.73,3.03,.38,1.88,.95,3.72,1.43,5.58,.46,1.78,.89,3.56,1.34,5.33,.22,.89,.49,1.77,.69,2.66,.98,4.33,2.66,8.33,5.58,11.72,.71,.82,1.42,1.62,1.85,2.63,.17,.4,.21,.9,.48,1.19,1.05,1.11,2.18,2.14,3.26,3.23,.46,.47,.88,.99,1.3,1.49,.18,.22,.29,.52,.51,.68,.42,.32,1.01,.47,1.33,.86,.5,.61,1.14,.76,1.82,1.01,.9,.34,1.79,.62,2.74,.71,1.61,.15,3.08,.81,4.57,1.31,1.08,.36,2.16,.67,3.27,.94,.97,.24,1.95,.16,2.92,.29,1.9,.25,3.78,.05,5.66-.03,.52-.02,1.05-.09,1.56-.18,.36-.07,.7-.26,1.06-.32,2.42-.46,4.84-.94,7.27-1.34,1.41-.23,2.8-.47,4.01-1.32,.14-.1,.31-.15,.47-.2,.92-.31,1.87-.56,2.75-.95,1-.44,1.97-.97,2.79-1.74,.24-.22,.56-.38,.86-.51,1.35-.59,2.46-1.5,3.58-2.43,1.32-1.1,2.29-2.47,3.07-3.97,.63-1.2,1.21-2.43,1.72-3.68,.41-1.03,.7-2.11,1.01-3.18,.27-.94,.39-1.94,.78-2.82,.82-1.83,.94-3.77,1.12-5.71,.05-.56,.02-1.12,.04-1.68,.02-.32,.1-.64,.12-.96,.05-.67,.09-1.34,.13-2.02,.16-2.55,.54-5.1,.21-7.67-.01-.1,0-.21,.02-.3,.34-1.21,.9-2.29,1.72-3.17,.08-.38,.07-.78,.24-1.07,.47-.77,.98-1.52,1.54-2.22,.66-.83,1.07-1.71,.92-2.76,.29-.22,.81-.5,.77-.6-.27-.76,.5-.85,.74-1.27-.49-.78-.47-.82,.1-1.46,.21-.24,.46-.55,.49-.84,.12-1.35,.06-2.73,.7-3.99,.04-.07,0-.2-.04-.28-.27-.63-.12-1.25,.01-1.89,.16-.77-.28-1.2-1.03-1-.41,.11-.91,.31-1.12,.63-.51,.75-.94,1.58-1.29,2.42-.52,1.25-.94,2.53-1.39,3.81-.07,.19-.16,.41-.12,.59,.1,.5-.12,.92-.24,1.37-.12,.47-.48,.82-.56,1.24-.22,1.08-.81,1.96-1.35,2.88-.45,.76-.58,.8-1.38,.46-.17-.08-.37-.1-.63-.16-.03-.75-.1-1.46-.08-2.17,.03-.74,.16-1.48,.22-2.22,.06-.77,0-1.56,.16-2.31,.14-.7,.24-1.4,.32-2.11,.06-.5,.05-1.01,.18-1.48,.14-.52,.23-1,.17-1.56-.06-.6,.37-1.31,.18-1.81-.27-.71-.11-1.34-.07-1.98,.06-.83,.26-1.66,.37-2.49,.24-1.86,.69-3.65,1.58-5.31,.04-.07,.09-.19,.05-.25-.39-.64-.03-1.18,.29-1.67,.22-.34,.3-.65,.27-1.04-.02-.27,.07-.54,.07-.81,.01-.74,0-1.47,0-2.22-1.51-.52-2.72,.11-3.91,.86-.28,.74-.92,.79-1.62,.78-.13,.89-1.02,.9-1.51,1.39-.44,.44-.94,.75-1.63,.28l-.23,.75c-.94,.31-1.82,.61-2.71,.9-.37,.12-.74,.29-1.12,.36-.83,.16-1.53-.13-2.29-.49-1.63-.78-1.3-.89-.9-2.22,.02-.06,.06-.12,.09-.18,.46-1.15,.92-2.3,1.38-3.46-.42,.08-.77,.17-1.12,.2-.65,.07-1.29,.22-1.79,.65-.47,.41-.87,.45-1.34,.05-.06-.05-.18-.05-.29-.07l-.19,.57-1.3-.59c.23-.37,.35-.68,.56-.89,.45-.44,.48-.95,.35-1.5-.07-.31-.2-.6-.34-1l-.32,.92c-.85,0-1.66,.15-2.42,.52-.14,.07-.34,.03-.5,.08-.86,.27-1.84,.49-2.33,1.26-.4,.63-.88,.74-1.56,.89,.14-1.28-1.08-.97-1.74-1.52,.19-.5,.34-1.01,.56-1.48,.45-.95,.92-1.89,1.41-2.82,.22-.43,.29-.82-.05-1.22l-.87-.12-1.24,1.3c-.07,0-.15,0-.2-.03-.84-.5-.96-.48-1.49,.33-.27,.42-.54,.83-.8,1.23-1.03-.3-1.21-.27-1.5,.66-.18,.57-.58,.87-1.01,1.02-1,.33-1.59,1.1-2.22,1.84-.21,.24-.43,.56-.7,.65-.67,.21-1.37,.31-2.05,.45-.23,.05-.47,.06-.69,.12-.74,.23-1.48,.47-2.22,.71-.12,.04-.29,.11-.36,.05-.52-.36-1.02-.76-1.56-1.16,.73-1.11,1.4-2.12,2.06-3.14,.09-.14,.16-.3,.19-.46,.28-1.4,1.15-2.42,2.18-3.32,.39-.34,.53-.72,.28-1.35-.5,.38-1,.61-1.29,1-.39,.52-.87,.86-1.45,.9-.66,.06-1.07,.47-1.51,.82-.65,.51-1.24,1.09-1.86,1.64q-.3-.52-.89-.41c-.03,1.24-.11,1.31-1.71,1.44l.12,1.11c-.3,.04-.64,.2-.87,.1-.44-.2-.74-.1-1.12,.13-.33,.19-.75,.21-1.14,.31l-.39-.72,.59-.45-.9-1.72c.08-.37,.13-.7,.21-1.01,.08-.32,.11-.7,.3-.95,.86-1.11,1.76-2.18,2.65-3.27,.1-.12,.24-.24,.29-.38,.4-1.21,1.07-2.23,2.11-3,.33-.25,.6-.58,.91-.89-.72-.72-1.12,.06-1.61,.16l-.22-.52c-.71,.16-.03,.78-.46,1.03-.77,.05-1.46,.31-1.85,1.09-.33,.66-.98,.75-1.59,.98-.65,.25-1.54,.25-1.66,1.26-.02,.13-.3,.25-.47,.35-.14,.08-.43,.13-.43,.18,.04,.63-.63,.78-.83,1.26-.17,.42-.56,.71-1.09,.82-.4,.08-.82,.32-1.11,.61-.84,.82-1.43,.81-2.27-.11,.3-.52,.73-1.01,.88-1.58,.17-.65,.54-1.06,1.03-1.43,.03-.02,0-.11-.02-.22-.66,.15-1.31,.28-1.95,.48-.2,.06-.35,.29-.5,.46-.13,.13-.24,.28-.35,.42-.76-.47-.76-.48-1.46-.38-.4,.06-.79,.17-1.18,.26-.59,.14-1.18,.3-1.86-.11,.21-.61,.37-1.23,.62-1.81,.69-1.62,1.47-3.2,2.1-4.84,.25-.65,.79-1.4,.04-2.15-.13,.1-.25,.16-.34,.26-.78,.82-1.57,1.63-2.34,2.47-.43,.47-.95,.91-1.2,1.47-.19,.43-.43,.73-.76,1.02-.4,.36-.81,.71-1.15,1.12-.4,.49-.72,1.05-1.1,1.55-1.07,1.4-2.41,2.54-3.43,4-.64,.91-1.03,1.81-1.08,2.89-.05,1.14-.43,2.22-.51,3.36-.08,1.12-.08,2.23,0,3.35,.04,.5,.11,1,.1,1.5-.01,1.89-.07,3.78-.06,5.67,0,.71,.33,1.45,.18,2.11-.23,1-.09,1.97-.03,2.93,.12,1.64-.05,3.3,.28,4.93,.1,.51-.02,1.14-.23,1.63-.13,.29-.64,.41-1.09,.67ZM39.92,217.49c.99-.04,1.93-.07,2.86-.13,1.92-.14,3.83-.34,5.75-.44,2.36-.13,4.73-.14,7.09-.32,1.95-.15,3.9-.35,5.57-1.6,1-.74,1.5-2.61,.8-3.53-.36-.48-.76-.93-1.13-1.41-.34-.44-.75-.76-1.3-.93-.62-.19-1.26-.23-1.87-.35-1.57-.32-3.14-.57-4.75-.56-.8,0-1.6-.16-2.4-.19-.4-.02-.86-.03-1.2,.15-.77,.41-1.56,.63-2.41,.67-.98,.04-1.95,.09-2.93,.11-.26,0-.73-.09-.73-.17-.06-.65-.72-.37-1.04-.67l.75-.99c.37-.03,.74-.04,1.11-.09,1.28-.15,2.57-.22,3.82-.51,.83-.19,1.62-.26,2.45-.21,1.72,.09,3.45,.2,5.17,.25,.63,.02,1.28-.06,1.9-.19,1.55-.32,2.37-1.69,1.97-3.2-.22-.85-.34-1.73-.68-2.53-.36-.86-.78-1.79-1.44-2.4-.95-.86-2.07-1.64-3.53-1.39-.16,.03-.34-.03-.5-.06-1.27-.23-1.41-.2-2.74,.53-.08,.05-.2,.04-.3,.05-.67,.03-1.35,.03-2.02,.1-1.84,.2-3.67,.38-5.5,.66-1.25,.19-2.47,.56-3.72,.74-.43,.06-.74,.35-1.13,.38-1.59,.1-2.9,1.08-4.43,1.35-.35,.06-.67,.35-1.02,.38-.74,.06-1.35,.36-1.96,.72-.17,.1-.35,.2-.54,.25-.69,.19-1.23,.64-1.61,1.18-.68,.97-1.59,1.73-2.17,2.79-.59,1.08-1.46,2-2.07,3.06-1.02,1.76-1.85,3.63-2.56,5.54-.17,.47-.17,1-.31,1.48-.37,1.33-.64,2.66-.51,4.06,.09,.97,.06,1.95,.1,2.93,.04,1.02-.03,2.07,.19,3.06,.2,.86,.3,1.75,.56,2.61,.84,2.7,2.2,4.97,4.65,6.55,2.9,1.88,6.14,2.63,9.49,3.03,.57,.07,1.14,.03,1.72,.05,.55,.02,1.11-.04,1.63,.09,1.64,.41,3.31,.51,4.97,.61,.94,.06,1.92,.12,2.85-.49,.63-.42,1.51-.48,2.28-.7,.39-.11,.79-.18,1.16-.31,1.46-.5,2.95-.82,4.48-.99,.57-.07,1.16-.14,1.69-.36,.41-.16,.85-.48,1.07-.84,.71-1.19,.28-2.44-.32-3.45-.49-.84-1.41-1.48-2.46-1.68-1.94-.37-3.81-1.14-5.83-1.13-1.05,0-2.1,0-3.14,0-.44,0-.9,.12-1.31,.01-.4-.1-.67-.05-1.03,.12-.98,.47-2.01,.57-3.03,.09-.73-.34-.91-1.35-.28-1.82,.35-.27,.82-.54,1.24-.55,2.84-.09,5.67-.29,8.52-.24,2.42,.04,4.84,.21,7.27-.13,1.19-.17,2.24-.55,3.23-1.11,1.39-.79,1.73-1.95,1.35-3.57-.24-1.02-.72-1.77-1.6-2.35-.41-.26-.71-.53-1.25-.47-.52,.06-1.07,.02-1.59-.07-.45-.07-.86-.4-1.32-.03-.05,.04-.22,.02-.28-.04-.43-.36-.83-.11-1.24,.05-.79,.32-1.61,.44-2.46,.26-.25-.05-.53-.03-.79-.02-1.16,.05-2.32,.11-3.48,.16-1.04,.05-2.09,.08-3.13,.13-.67,.03-1.34,.09-2.01,.13-.39,.02-.79,.04-1.18,.04-.77,0-1.53,0-2.43,0,.3-.89,1.03-.64,1.65-.86l-.74-.41,.09-.83Zm131.68,12.27c.22-.2,.38-.44,.8-.01,.53,.54,1.18,1.08,1.88,1.28,.81,.23,1.73,.12,2.6,.11,.7,0,1.4-.1,2.1-.12,2.1-.07,4.2-.09,6.3-.21,.57-.03,1.03,.09,1.56,.23,.65,.17,.9,.49,.97,1.09,.01,.1,.21,.16,.29,.27,.42,.53,.35,1.01-.23,1.35-.35,.2-.72,.39-1.1,.51-.81,.25-1.62,.57-2.44,.63-1.07,.08-2.17-.03-3.24-.14-1.45-.15-2.9-.31-4.32-.62-.88-.19-1.73-.31-2.61-.15-.48,.09-.98,.23-1.34-.34-.31,.43-.66,.75-.78,1.14-.31,1.05,.39,2.38,1.47,2.84,1.06,.45,2.14,.83,3.21,1.23,1.14,.43,2.32,.75,3.41,1.28,1.26,.62,2.61,.76,3.95,.89,2.03,.2,4.09,.22,6.13,.31,.33,.01,.67-.03,1-.09,1.77-.32,3.53-.66,5.3-.97,1.37-.24,2.74-.41,4.11-.65,.32-.06,.64-.21,.94-.36,.94-.47,1.83-1.05,2.81-1.42,1.21-.47,1.94-1.52,2.98-2.19,.1-.07,.16-.21,.21-.34,.24-.6,.45-1.22,.71-1.81,.1-.24,.28-.47,.48-.64,1.05-.89,1.5-2.06,1.58-3.4,.12-1.89,.04-3.8,.73-5.63,.13-.33,.1-.73,.09-1.1-.02-.47-.14-.94-.13-1.41,.06-2,.08-4,.25-5.99,.13-1.47-.43-2.58-1.47-3.49-1.09-.96-1.77-2.2-2.51-3.4-.72-1.18-1.6-2.2-2.87-2.81-1.68-.81-3.36-1.63-5.17-2.09-1.27-.32-2.52-.75-3.88-.69-.84,.04-1.69-.01-2.51-.16-1.48-.27-2.95-.38-4.45-.25-.86,.07-1.71,.19-2.59-.05-.7-.19-1.5-.28-2.2-.15-1.33,.24-2.66,.19-3.99,.3-1.11,.09-2.23,.02-3.31,.37-.65,.2-1.32,.19-2.01,.09-2.01-.3-3.99-.28-5.7,1.08-.49,.39-1.03,.78-1.39,1.27-.48,.67-.2,2.19,.53,2.82,.76,.65,1.57,1.32,2.48,1.71,1.35,.59,2.81,.92,4.32,.87,1.29-.04,2.58-.12,3.86-.04,1.55,.1,3.07-.07,4.59-.27,.74-.1,1.47-.24,2.19-.43,.46-.13,.79,.07,1.12,.3,1.03,.7,2.29,1.05,3.11,2.07,.02,.03,.04,.06,.07,.1-.31,.95-.76,1.69-1.96,1.16l-.39,.61c-.18-.11-.42-.29-.43-.27-.43,.53-.67-.07-1.09-.23-.04,.38-.12,.7-.59,.5-.18-.08-.45,.07-.67,.07-1.08-.04-2.16-.1-3.24-.14-1.8-.06-3.59-.16-5.39-.16-1.82,0-3.65-.17-5.49,.3l-.51-.63c-.34,.05-.58,.1-.82,.1-.19,0-.53-.13-.56-.08-.3,.56-.77,.26-1.23,.21,.18,.33,.4,.56,.41,.8,.01,.35-.16,.71-.19,1.07-.03,.39-.07,.81,.05,1.16,.16,.44,.42,.87,.75,1.2,.53,.55,1.08,1.19,1.75,1.48,1.98,.88,4.05,1.55,6.22,1.78,.74,.08,1.51,.15,2.22,.01,.45-.09,.85-.1,1.28-.04,1.18,.17,2.43,.25,3.47-.29,1.2-.62,2.22-.08,3.38-.06-.09,.79,.56,1.41,.21,2.05-.75,.24-1.4,.47-2.07,.66-.75,.21-1.5,.45-2.27,.56-1.04,.14-2.09,.24-3.13,.2-.9-.03-1.82,.17-2.7-.24-.42-.19-.87-.38-1.32-.43-.99-.11-1.99-.16-2.99-.16-.48,0-.88,.18-1.28,.62-.6,.66-.68,1.5-1.05,2.23-.07,.14,.07,.44,.18,.63,.51,.89,1.05,1.77,1.57,2.64Zm-117.89-63.38c-1.16-.18-1.25-.25-1.23-1.29,.04-2.61,.12-5.23,.15-7.84,.03-2.1,.06-4.21,0-6.31-.03-1.34,.16-2.71-.3-4.01-1.17-.33-1.43-.22-1.51,.89-.17,2.47-.28,4.95-.36,7.42-.05,1.7,0,3.4,0,5.1,0,1.9,0,3.79,0,5.73h-1.36c0-1.32,.01-2.57,0-3.82-.03-2.85-.08-5.71-.11-8.56-.02-1.97,0-3.94,0-5.91,0-.41-.12-.75-.63-.75-.47,0-.75,.26-.78,.75-.06,.91-.13,1.83-.16,2.74-.09,3.16-.16,6.32-.24,9.48-.05,1.93-.08,3.87-.13,5.8,0,.3-.07,.59-.1,.88-1.12,.07-1.46-.22-1.42-1.21,.02-.54,.12-1.08,.12-1.63,.02-3.01,.01-6.03,.02-9.04,0-2.34-.03-4.68,.39-7,.03-.19-.03-.39-.04-.57-1.05-.22-1.26-.13-1.45,.75-.18,.84-.31,1.68-.75,2.46-.73,1.3-.36,2.79-.55,4.18-.26,1.8-.17,3.65-.22,5.48-.02,.95-.05,1.9,0,2.85,.06,1.04,.13,2.1,.35,3.12,.27,1.3,.6,2.59,.48,3.93-.13,1.35,.57,2.42,1.09,3.55,.08,.17,.26,.32,.42,.43,1.06,.72,2.11,1.45,3.19,2.13,.62,.39,.99,1,1.32,1.57,.26,.45,.14,1.12,.14,1.69,.01,1.87,0,3.74,0,5.61,0,2.54,.02,5.08-.7,7.55-.07,.22-.07,.47-.06,.71,.05,.86,.65,1.42,1.5,1.46,.37,.02,.74,.08,1.1,.14,.89,.14,1.64-.37,1.71-1.27,.07-.84,.04-1.7,.06-2.54,.07-2.94,.05-5.88,0-8.82-.02-1.1-.16-2.22-.16-3.33,0-.69-.05-1.37-.08-2.02,1-.39,2.01-.88,3.07-1.19,1.54-.45,2.16-1.64,2.69-2.96,.16-.39,.35-.78,.47-1.04,.03-.49,.02-.87,.07-1.25,.05-.37,.23-.73,.24-1.09,.03-1.62,.03-3.24,.04-4.87,0-2.82,.01-5.64,.01-8.46,0-1.7-.01-3.39-.03-5.09-.01-1.4-.35-2.72-.95-3.99h-.93c-.11,2.07-.3,4.13-.32,6.2-.04,3.88,.01,7.76,.02,11.63,0,.31,.02,.62-.02,.92-.06,.44-.69,.87-1.13,.79-.53-.09-.45-.51-.45-.88,0-2.52,0-5.03,0-7.55,0-.24-.03-.49,.05-.71,.6-1.83,.07-3.71,.28-5.56,.13-1.09-.08-2.23-.15-3.35-.04-.61-.12-1.21-.18-1.8-.92-.1-1.38,.22-1.42,1.01-.05,1.12-.04,2.24-.07,3.36-.1,3.99-.16,7.98-.33,11.97-.05,1.13,0,2.32-.68,3.4Zm127.34,17.82c.01,.23,.03,.33,.02,.43-.14,1.63-.24,3.24,.26,4.85,.14,.46,.08,.99,.03,1.49-.05,.46-.25,.9-.29,1.36-.05,.64,.02,1.29-.03,1.93-.08,1.08-.24,2.15-.32,3.23-.1,1.38,.07,1.58,1.42,1.84,.33,.06,.67,.07,1.01,.06,1.3-.04,2.44-1.87,1.8-2.91-.19-.31-.4-.68-.42-1.02-.04-1.22-.15-2.46,.04-3.65,.36-2.32,.46-4.62,.18-6.94-.06-.5-.08-1.01-.08-1.51,0-.18,.06-.45,.19-.54,.52-.36,.45-.88,.45-1.38,0-4.07,0-8.13-.04-12.2-.03-2.71,0-5.44-.29-8.13-.37-3.46-.35-6.87,.07-10.31,.13-1.11,.48-2.23-.33-3.33-.56-.75-1.38-.91-1.88-.1-.97,1.55-1.75,3.2-2.46,4.89-.47,1.12-.95,2.28-1.68,3.23-.84,1.1-1.22,2.23-1.19,3.57,0,.29-.03,.63-.18,.86-1.11,1.73-1.4,3.67-1.47,5.65-.07,2.03-.03,4.07-.02,6.11,0,1.12,0,2.24,.46,3.3,1.05,2.46,2.09,4.94,3.12,7.41,.33,.8,.69,1.57,1.64,1.83Zm-17.38,25.86c-1.24,.06-1.66,.68-1.56,1.74,.02,.16-.04,.34-.06,.5-.1,1.29-.17,2.56,.32,3.81,.16,.4,.19,.86,.19,1.29,0,.85-.06,1.69-.09,2.54-.04,1.2,.25,2.28,1.14,3.14,.14,.14,.22,.34,.32,.51,.45,.8,1.12,1,1.95,.63,.82-.37,1.44-.93,1.81-1.69-.38-.78-.8-1.46-1.57-1.85-.21-.11-.32-.42-.45-.65-.16-.29-.27-.6-.44-.88-.53-.87-1.1-1.77-1.13-2.8-.03-1.14,.13-2.28,.24-3.41,.02-.24,.22-.46,.35-.7-.11-.24-.4-.59-.32-.76,.4-.86-.3-1.06-.7-1.42Zm-99.56,11.46c.22-.27,.39-.4,.46-.57,.13-.31,.15-.67,.29-.97,.69-1.44,.99-2.93,.69-4.51-.04-.2,0-.41-.02-.61-.1-1.35-.14-2.71-.32-4.05-.14-1-.6-1.96-.65-2.96-.07-1.16-.67-1.91-1.36-2.73-.63-.75-1.28-.76-2.11-.45-.14,.52-.24,1.05-.42,1.55-.34,.96-.34,1.03,.47,1.59,.2,.13,.38,.32,.6,.38,.87,.27,1.27,1.05,1.79,1.66,.94,1.1,1.12,2.43,.92,3.82-.18,1.26-.46,2.45-1.93,2.88-.27,.08-.47,.41-.76,.68,.59,.67,1.21,1.19,1.57,1.84,.37,.66,.48,1.46,.78,2.45Zm165.45,14.51c-.51-.26-.86-.52-1.54-.39-.73,.13-1.52-.05-2.25,.31-.18,.65,.27,.69,.68,.7,.73,.01,1.46-.03,2.2-.04,.4,0,.71-.13,.92-.58Zm-220.25-.67c-.9-.41-1.46-.13-1.91,.27-.43,.05-.7-.64-1.19,.02,.33,.16,.67,.47,.94,.42,.67-.12,1.31-.41,2.16-.7Zm31.1-7.63c-.07,.82,.31,1.29,1.07,1.29l-1.07-1.29ZM107.52,12.91v-.14c-.3-.05-.58-.13-.86-.13-.09,0-.17,.22-.26,.35,.1,.07,.22,.21,.3,.19,.28-.06,.55-.18,.82-.27Zm116.1,208.66l.25,.14,.43-.54-.75-.43,.08,.84Zm-1.51-53.73l-.04,.23,.76,.16,.04-.25-.77-.14ZM152.23,45.57l-.35,.59q.53-.11,.35-.59Zm-48.12-20.71l.02-.33-.74,.04v.17l.72,.11ZM22.95,235.01l-.1-.04-.28,.73,.17,.06,.22-.75Zm-12.9,.71l-.6-.66c-.05,.56,.02,.8,.6,.66Zm22.25,4.34l.15-.25c-.13-.04-.27-.12-.39-.11-.09,0-.24,.13-.25,.22,0,.09,.1,.24,.19,.27,.08,.03,.2-.08,.3-.12Zm-23.73-56.29h.25c0-.19,.02-.37,0-.56,0-.02-.21-.01-.32-.02l.07,.57ZM114.09,19.06l.19-.83c-.58,.28-.59,.51-.19,.83ZM32.82,240.15c-.35,.25-.42,.47,0,.69v-.69ZM92.56,11.67v-.25c-.14,.01-.28,.02-.42,.05,0,0,0,.15,0,.16,.14,.02,.27,.03,.41,.04Zm.74-1.15l.03,.17,.51-.1-.03-.16-.51,.1Zm-3.79,226.92c-.13-.12-.21-.22-.31-.26-.04-.02-.14,.09-.21,.14,.07,.09,.14,.2,.23,.26,.03,.02,.14-.07,.28-.15Zm44.11-.96c-.11-.08-.22-.2-.25-.18-.09,.05-.15,.16-.22,.24,.08,.04,.17,.12,.25,.12,.06,0,.12-.1,.21-.18Zm-131.27-1.87l.08-.18-.46-.2-.07,.17,.45,.21Zm18.67,2.31c-.11-.09-.18-.19-.26-.2-.07,0-.14,.1-.22,.16,.09,.07,.16,.17,.26,.21,.03,.01,.13-.1,.21-.18ZM115.99,18.96l-.14,.03,.08,.43,.18-.05-.12-.41ZM89.5,3.77v.14l.4-.03v-.11h-.4Z"/><path class="d" d="M180.88,256.28c-.15,.64,.03,1.03,.75,1.37,.79,.38,1.66,.78,2.16,1.6,.08,.13,.13,.28,.19,.42-.56,.34-.64-.23-.98-.4l.03,.65-.71,.14c-.34,.55,.21,1.27,.81,1.13,.26-.06,.5-.16,.75-.24,.5,.46,.14,1.44,1.06,1.6l-1.36,.48,.79,1.19,.27-.82c.08,0,.18,0,.26,.03,.44,.2,.43,.58,.33,.95-.13,.47-.68,.84-1.19,.84v1.11l.86-.48-.11,.98c-.91-.33-.95,.39-1.22,.95l.97,1.08c-.28,.44-.58,.87-.84,1.31-.24,.41,.4,.99-.33,1.42l-.08-1.02-.93,.21c.24,.43,.43,.77,.65,1.16-.67,.75-1.29,1.49-1.98,2.15-.21,.2-.64,.16-1.07,.25-.13,.74-1.01,1.05-1.35,1.83-.21,.48-.89,.66-1.61,.27l.22,1.24c-1.39-.43-1.78,0-2.01,1.18-.65-.16-1.24-.06-1.62,.58-.02,.03-.05,.05-.08,.06-1.35,.61-2.69,1.24-4.06,1.81-.5,.21-1.01,.56-1.62,.27-.07-.03-.24,0-.28,.06-.42,.63-1.22,.55-1.76,.96-.17,.13-.43,.18-.65,.21-.32,.04-.7-.09-.79,.42-.02,.09-.27,.18-.43,.21-1.82,.37-3.67,.64-5.45,1.12-1.14,.31-2.29,.46-3.45,.62-.23,.03-.48,.04-.71,0-1.76-.35-3.43,.05-5.11,.51-.83,.23-1.72,.29-2.59,.36-.63,.05-1.27,.01-1.98,.01-.04,.42-.4,.63-.84,.52-.51-.13-.88,.13-1.34,.33-.97-.92-1.73,.06-2.62,.35-.21-.08-.46-.19-.71-.25-.15-.03-.44-.02-.46,.04-.21,.6-.74,.38-1.13,.45-.69,.12-1.4,.17-2.1,.26-.57,.07-2.92-.11-3.45-.23-.22-.05-.46-.02-.68,.01-1.62,.23-3.25,.47-4.87,.7-.1,.01-.22,.05-.3,0-1.05-.53-2.25-.12-3.35-.57-.46-.19-1.1,.08-1.66,.13-.81,.08-1.5-.14-2-.85l-.69,.61-.21-.74c-.38,.16-.72,.4-1.07,.41-.56,.02-.21-.72-.7-.94l-.23,.75c-.43-.06-.88-.12-1.33-.18-.79-.09-1.58-.15-2.36-.28-.73-.12-1.45-.49-2.16-.44-1.15,.08-2.18-.82-3.35-.32-.11,.05-.27,.03-.39,0-.83-.27-1.69-.49-2.48-.85-.43-.2-.86,0-1.31-.25-.41-.23-.97-.13-1.36-.61-.14-.17-.68-.03-1.07-.03l-.15-.54c-.06-.02-.12-.06-.18-.06-.87,.09-1.75,.42-2.6-.13-.27-.18-.53-.33-.91-.03-.3,.24-1.29-.03-1.62-.27-.69-.5-1.34-.92-2.19-.19-.44,.37-1.56-.04-2.1-.63q-.7-.77-1.64-.4l-.4-.62c-.27-.08-.74,.45-.95-.2-.03-.1-.56-.05-.6-.16-.12-.33-.29-.31-.54-.24-.07,.02-.23-.06-.24-.12-.07-.53-.48-.47-.84-.52-.27-.04-.53-.15-.89-.26l.26,.93c-.84-.55-1.6-.8-2.42-.91-.14-.02-.25-.29-.36-.44-.2-.26-.36-.57-.86-.37l.39,.73c-.15,.02-.29,.08-.33,.04-.21-.21-.39-.45-.58-.67l-.93,.2c-.46-.21-.8-.5-1.14-.49-.68,.02-1.26-.34-1.91-.41-.47-.05-.63-.45-.68-.96-.77,.51-1.4,.3-2.03-.28-.37-.34-.77-.7-1.42-.64-.32,.03-.75-.24-.99-.5-.61-.66-1.14-1.41-1.72-2.1-.1-.12-.28-.19-.44-.22-.7-.15-1.16-.5-1.51-1.18-.24-.48-.55-1.14-1.48-.86l.35-.59c-.5-.19-.99-.38-1.47-.56-.84-.32-1.24-1.15-.92-1.98,.18-.45,.02-.86-.31-1.02-.91-.46-1.29-1.25-1.44-2.15-.1-.55-.32-.99-.66-1.41-.04-.05-.15-.12-.14-.13,.41-.63-.31-1-.36-1.53-.05-.53-.16-1.06-.16-1.59,0-.36,.11-.72,.21-1.07,.1-.34,.42-.61,.22-1.04-.05-.1,.15-.45,.27-.47,.66-.1,.61-.54,.55-.99-.09-.61,.06-1.05,.53-1.51,.43-.43,.8-1.04,.93-1.63,.26-1.18,1.05-1.92,1.88-2.66,.35-.31,.78-.55,1.06-.92,.79-1.07,1.96-1.56,3.13-1.98,1.19-.42,2.28-.99,3.37-1.61,.14-.08,.29-.19,.45-.21,2.51-.44,4.92-1.43,7.48-1.48,.9-.02,1.72-.37,2.63-.31,.86,.06,1.74-.12,2.61-.23,.62-.08,1.24-.26,1.86-.3,2.02-.15,4.06-.14,6.06-.43,2.13-.3,4.24-.28,6.36-.19,.33,.01,.69-.03,1.01-.13,1.1-.34,2.26-.15,3.36-.33,.93-.15,1.78-.06,2.68,.09,.73,.12,1.53-.15,2.29-.24,1.24-.16,2.48-.15,3.73-.01,.33,.04,.69,.04,1.02-.03,1.27-.28,2.51-.23,3.81-.05,.98,.14,2.07,.38,3.1-.11,.35-.16,.81-.14,1.21-.11,2.04,.14,4.08,.24,6.11,.5,1.36,.17,2.68,.61,4.04,.84,1.66,.28,3.18,1.12,4.93,1.09,1.03-.02,2.11,.11,3.1,.42,.78,.25,1.53,.46,2.35,.48,.33,0,.64,.13,.93-.2,.09-.11,.48-.08,.64,.02,.87,.54,1.82,.78,2.8,1.04,.76,.2,1.43,.2,2.16,.06,.23-.04,.48-.04,.71,0,1.07,.15,2.14,.31,3.21,.49,.19,.03,.4,.09,.55,.2,.23,.16,.39,.22,.62,0,.09-.09,.31-.05,.47-.05,.51,0,1.02-.05,1.52,.03,1.12,.18,2.25,.14,3.38,.27,1.15,.13,2.18,.52,3.23,.87,1.05,.35,2.03,.92,3.06,1.32,1.51,.59,3.02,1.26,4.59,1.64,1.32,.32,2.64,.55,3.84,1.2,.63,.34,1.24,.69,1.85,1.06,1.22,.76,2.43,1.54,3.68,2.34Zm-35.75-7.6l-.85,.06c-.02-.38-.18-.3-.46-.2-.26,.09-.59,.02-.88-.01-.29-.03-.57-.12-.86-.17-.39-.07-.79-.13-1.19-.2-1-.16-2.03-.56-2.99-.44-1.42,.18-2.62-.34-3.79-.87-1.43-.64-2.84-1.07-4.4-1.04-1.9,.03-3.8,.1-5.62-.64-.21-.09-.47-.1-.7-.1-2,0-4,.03-6,.04-.83,0-1.66,.39-2.49-.02-.1-.05-.26,0-.37,.04-1.29,.55-2.64,.32-3.97,.29-.53-.01-1.06,.03-1.58-.04-.33-.05-.39,.68-.71,.25-.39-.52-.56,.17-.83,.08-.84-.27-1.67,.02-2.51,.02-1.08,0-2.15,.04-3.23,.09-.91,.04-1.83,.1-2.74,.15-.37,.02-.75,.08-1.12,.05-1.77-.18-3.49,.27-5.23,.46-.9,.1-1.78,.34-2.68,.38-1.62,.07-3.22,.27-4.83,.44-.96,.1-1.87,.42-2.86,.46-1.7,.08-3.39,.46-5.07,.81-1.24,.26-2.42,.78-3.68,1.03-1.05,.21-2.05,.69-2.65,1.71-.1,.17-.27,.3-.42,.44-.83,.72-1.89,1.2-2.37,2.28-.03,.08-.16,.11-.23,.18-.25,.26-.53,.5-.74,.79-.28,.38-.46,.83-.76,1.19-.55,.64-.82,1.38-.93,2.2-.15,1.1-.31,2.21-.45,3.31-.16,1.28,.03,2.51,.63,3.66,.12,.24,.29,.46,.37,.71,.35,1.05,.97,1.95,1.73,2.72,.78,.79,1.66,1.48,2.51,2.2,1.77,1.49,3.62,2.82,5.8,3.67,.97,.38,1.94,.73,2.94,1.05,.79,.25,1.55,.51,2.38,.62,.89,.12,1.77,.38,2.64,.62,.73,.2,1.43,.49,2.13,.78,1.58,.65,3.3,.98,4.9,1.63,.62,.25,1.34,.3,1.94,.58,.98,.45,1.98,.65,3.05,.55,.28-.03,.58,.11,.87,.19,.73,.19,1.44,.64,2.08,.14,.86,.51,1.74,.52,2.58,.67,.15,.03,.34-.17,.5-.28,.15-.11,.27-.25,.4-.38l.13,.08-.25,.83c.79,.01,1.43,.25,2.18,.19,.73-.06,1.66-.09,2.28,.61,1.4,.28,2.86,.26,4.2,.84,.08,.03,.2-.01,.29-.03,1.14-.23,2.27-.26,3.42,.07,.51,.15,1.07,.15,1.61,.19,.61,.05,1.3-.09,1.8,.16,.91,.44,1.85,.31,2.77,.48,.89,.16,1.76,.43,2.65,.62,.33,.07,.75,.22,.98,.08,.33-.2,.56-.11,.84-.03,.19,.05,.45,.12,.6,.04,.73-.42,1.47-.07,2.19-.05,1.78,.03,3.56,.47,5.32-.09,.76-.24,1.35,.14,1.75,.42,.56-.14,.93-.33,1.28-.31,1.21,.1,2.37-.15,3.49-.48,1.1-.33,2.24-.38,3.34-.61,1.18-.24,2.43-.08,3.64-.18,.82-.07,1.73,.3,2.45-.4,.52,.26,.97-.48,1.52-.11,.09,.06,.31-.06,.48-.1,.98-.21,1.96-.47,2.95-.63,1-.16,2.06-.08,3.02-.37,1.55-.46,3.19-.39,4.72-.95,.78-.28,1.7-.21,2.46-.51,2.44-.97,4.84-2.04,7.25-3.09,1.87-.82,3.58-1.91,4.98-3.42,.3-.32,.55-.72,.9-.96,1.45-1.02,2.16-2.64,3.25-3.95,.13-.15,.2-.36,.25-.55,.21-.68,.46-1.35,.57-2.05,.16-1.05,.42-2.11-.37-3.1-1-1.27-1.87-2.64-2.85-3.92-.4-.53-.9-1.03-1.46-1.37-1.68-1.02-3.41-1.94-5.12-2.92-.41-.23-.9-.41-1.1-.94l1.06-.18c-.19-.3-.28-.62-.42-.64-.92-.15-1.85-.24-2.78-.34-.67-.07-1.35-.09-2.01-.19-.85-.13-1.69-.35-2.54-.49-.87-.14-1.76-.15-2.49-.75-.11-.09-.31-.07-.48-.08-1.26-.1-2.53-.15-3.78-.3-1.14-.13-2.27-.51-3.4-.52-1.21-.01-2.17-.79-3.36-.8-.57,0-1.12-.42-1.7-.5-1.25-.18-2.52-.27-3.74-.39l-.09-.4Zm27.11,4.53l.11-.33-1.19-.22-.06,.26c.38,.09,.76,.19,1.14,.28Zm7.15,3.85c.36,.02,.61,.04,.86,.04,0,0,.06-.21,.02-.26-.28-.32-.52-.19-.87,.22Zm-4.65-2.97l-.16,.08c.06,.11,.11,.23,.18,.34,0,.01,.11-.04,.17-.06l-.2-.37Z"/><path class="d" d="M116.78,235.91l1.13,.53c-.48,.11-.86,.2-1.24,.27-.41,.07-.82,.11-.86-.49,.35-.11,.67-.21,1-.31,0,0-.02,0-.02,0Z"/><path class="d" d="M76.05,8.92l.72-.93c.47,.67,.42,.74-.72,.93Z"/><path class="d" d="M120.31,236.65l-.48,.08-.05-.17,.48-.15,.05,.23Z"/><path class="d" d="M224.24,180.85l.66,.44-.06,.13c-.2-.06-.4-.12-.6-.18l.03,.03v-.44l-.03,.02Z"/><path class="d" d="M232.15,236.55q.04,.42-.53,.32c.23-.12,.39-.21,.55-.29l-.03-.03Z"/><path class="d" d="M135.55,84.11c-.36,.29-1.17-.39-1.15,.53-.44,.05-.88,.09-1.31,.17-.04,0,0,.36,0,.6-1.17,.42-2.25,1.16-3.59,1.23-.31,.02-.7,.33-.89,.62-.69,1.08-1.73,1.09-2.78,.92-.51-.08-.89-.02-1.34,.18-1,.45-2.05,.76-3.16,.38-1.02-.35-2-.09-2.92,.28-.81,.33-1.58,.48-2.43,.29-.39-.09-.8-.1-1.19-.22-.27-.08-.5-.19-.75,.05-.09,.08-.26,.13-.37,.11-.89-.14-1.78-.31-2.68-.45-.46-.07-.94-.09-1.41-.12-.44-.02-.85-.01-1.23-.37-.18-.17-.57-.22-.85-.19-1.8,.16-3.5-.14-5.1-1.02-.65-.35-1.39-.53-2.07-.84-1.18-.55-2.24-1.29-3.26-2.1-1.11-.87-2.14-1.82-3.23-2.69-.77-.61-.95-1.09-.8-2.18,.5-.25,.9-.03,1.28,.28,.21,.17,.42,.36,.58,.57,.92,1.24,2.53,1.3,3.66,2.17,.87-.01,1.6,.41,2.36,.76,.59-.44,1.09,.08,1.63,.17,.59,.1,1.19,.27,1.73,.53,.52,.25,.97,.66,.98,1.54l.38-.85c.23,.06,.46,.09,.67,.18,1.03,.47,1.75,.53,2.94,.25,.15-.04,.33,.04,.49,.07,.42,.07,.86,.09,1.26,.22,.37,.11,.7,.33,1.09,.52l.41-.23,.46,.56c.2-.06,.37-.17,.51-.15,1.7,.34,3.41,.41,5.12,.09,.57-.11,1.13-.39,1.73-.29,.48,.08,.94,.25,1.48,.4l.17-.62c.26,.04,.52,.05,.77,.12,.55,.17,1.03,.2,1.39-.36,.06-.1,.22-.22,.31-.2,.83,.13,1.58-.34,2.44-.27,.69,.06,1.43-.31,2.13-.55,1.74-.61,3.48-1.2,5.18-1.91,1.14-.48,2.21-1.13,3.3-1.72,.16-.09,.24-.32,.38-.47,.22-.24,.42-.54,.69-.68,.89-.44,1.64-1.07,2.44-1.63,.21-.15,.37-.38,.54-.57,.41-.47,.82-.95,1.21-1.41,.79,.46,1.38,1.46,1.22,2.04-.08,.26-.34,.49-.55,.7-.24,.23-.54,.41-.79,.63-.69,.64-1.32,1.34-2.05,1.94-.5,.41-1.11,.67-1.65,1.03-.66,.44-1.29,.93-1.94,1.39-.21,.15-.44,.25-.66,.38l-.43-.46-.33,.65Z"/><path class="d" d="M115.41,54.73c.18,2.02,.34,4.04,.56,6.06,.19,1.82,.49,3.62,.66,5.44,.11,1.18,.84,1.75,1.72,2.31,.3,.19,.35-.53,.62-.06,.06,.1,.42,.01,.72,.01l-.05,.71c.37,.1,.62,.41,1.2,.33,.89-.12,1.58,1.23,1.27,2.22-.06,.19-.13,.38-.16,.58-.2,1.22-1.17,2.1-2.41,2.17-.23,.01-.47,.04-.7,.03-.77-.01-1.22,.3-1.5,1.07-.29,.78-.88,1.35-1.82,1.42-.68,.05-1.35,.14-2.02,.22-.26,.03-.52,.07-.77,.14-.43,.12-.88,.25-1.26-.06-.86-.71-1.95-.88-2.91-1.35-.23-.11-.48-.27-.6-.48-.3-.52-.76-.65-1.29-.65-.41,0-.81,.03-1.22,.08-1.69,.2-3.24-1.16-3.28-2.99,0-.4-.08-.79-.12-1.23,.28-.53,.59-1.13,.92-1.71,.33-.6,.78-.93,1.54-.96,.83-.03,1.64-.3,2.56-.48,0-.28-.03-.61,0-.93,.05-.53,.15-1.05,.21-1.58,.02-.19,.03-.39,0-.57-.18-1.1-.42-2.19-.56-3.29-.1-.82,.03-1.64,.12-2.47,.08-.77,.25-1.54,.01-2.38-.23-.82-.1-1.76-.03-2.63,.04-.53,.09-1-.18-1.5-.27-.51-.14-.69,.45-.96-.54-.88-.1-1.84-.22-2.53l1.25-1.66-.89-.31c.62-.67,1.23-.62,1.46,.12,.15,.48,.2,1,.23,1.51,.03,.57,.04,1.15-.03,1.72-.09,.82-.08,1.61,.18,2.41,.09,.28,.05,.61,.02,.91-.14,1.44-.14,2.88,0,4.32,.11,1.25,.07,2.51,.09,3.76,.02,1.52,.04,3.04,.05,4.56,.01,2.1,.05,4.21,0,6.31-.03,1.36,.51,2.35,1.64,3.05,.16,.1,.34,.21,.53,.23,.63,.07,1.27,.16,1.9,.13,1.63-.07,2.27-1.36,2.35-2.47,.09-1.21,.11-2.43,.15-3.64,0-.16-.04-.35-.13-.47-.67-.82-1.11-1.7-1.01-2.82,.04-.43-.15-.88-.27-1.49-.46-.25-.43-.71-.21-1.35,.23-.64,.49-1.35,.07-2.06-.05-.09-.02-.26,.02-.38,.04-.12,.2-.21,.22-.33,.07-.46-.09-.92,.25-1.38,.12-.16,.21-.67-.29-.94-.17-.09-.14-.78-.02-1.14,.22-.71,.02-1.3-.27-1.91-.12-.25-.12-.56-.17-.82,.58-.36,1.02-.1,1.47,.16h-.02Zm-8.28,14.98c-.73-.08-1.35,.09-1.98,.35-1.08,.44-1.44,1.13-1.05,2.2,.08,.22,.2,.42,.31,.64l2.73,.88v-4.07Zm10.63,3.54c.97-.12,1.74-.64,2.42-1.28,.52-.49,.45-1.1-.05-1.6-.64-.63-1.83-.72-2.59-.26,.07,1.04,.15,2.04,.23,3.14Z"/><path class="d" d="M93.8,61.74c.65-.6,1.27-1.22,1.94-1.78,.98-.81,1.72-1.77,2.19-2.97,.22-.55,.53-1.1,1.25-1.2,.71-.11,1.41-.06,1.88,.46,.25,.28,.16,.84,.26,1.26,.1,.44,0,.73-.35,1.06-.4,.38-.66,.91-1.03,1.43l-.34-.14-.09,.67-.88-.11c-.35,.37,.05,.52,.22,.7-.02,.1-.02,.18-.06,.23-.39,.59-1.09,.91-1.35,1.63-.08,.22-.51,.33-.8,.46-.57,.26-.61,.28-.89,.73-.45-.12-.87-.06-1.27,.28-.17,.15-.56,.05-.85,.06-.29,0-.58,0-1.05,0,.01,.01-.13-.12-.32-.3l-.65,.57c-.98-.29-1.7-.85-2.23-1.69-.6-.94-1.29-1.83-1.88-2.78-.34-.54-.56-1.15-.81-1.74-.08-.18-.16-.42-.11-.57,.3-.82,.52-1.69,1.16-2.34,.32-.33,1-.31,1.37,.11,.7,.77,1.4,1.53,1.6,2.65,.3,1.72,1.35,2.81,3.1,3.3Z"/><path class="d" d="M140.08,56.01c.17,.49,.42,.93,.02,1.49-.21,.3-.15,.78-.3,1.15-.12,.3-.31,.69-.57,.8-.65,.27-1.12,.74-1.63,1.18-.57,.49-1.18,.49-1.92,.37l.31,.45c-.33,.21-.64,.44-.99,.61-1.24,.61-2.55,.78-3.91,.59-.37-.05-.73-.19-1.1-.21-2.01-.13-3.19-1.26-3.84-3.08-.11-.32-.27-.62-.38-.94q-.64-1.92-.43-4.24c.44,.23,.86,.43,1.24,.68,.39,.25,.75,.55,1.14,.84,.14,.77,.26,1.57,.44,2.36,.11,.46,.36,.86,.87,1,.94,.26,1.86,.6,2.82,.76,.99,.17,1.95-.14,2.86-.54,.18-.08,.33-.29,.51-.31,.78-.1,1.21-.48,1.51-1.25,.2-.51,.73-.94,1.19-1.29,.61-.46,1.34-.59,2.15-.43Z"/><path class="d" d="M115.42,54.73c-.16-.2-.32-.4-.49-.6-.1-.12-.19-.28-.32-.32-.78-.25-.91-.9-.96-1.57-.02-.2,.09-.42,.03-.59-.17-.48-.01-.83,.41-1.07l-.67-.77c.16-1.05,1.17-.47,1.64-1.06,.25,.75,.5,1.4,.4,2.11-.18,1.29-.04,2.59-.06,3.88,0,0,.02,0,.02,0Z"/><path class="d" d="M123.03,21.88c-.15,.06-.29,.12-.44,.17-.03,0-.12-.11-.11-.12,.07-.12,.16-.23,.24-.35l.32,.31Z"/><path class="d" d="M127.85,275.43c-.18,.25-.31,.62-.52,.68-.63,.18-1.01,.91-1.76,.79-.05,0-.16,.04-.17,.08-.19,.71-.81,.52-1.29,.7-.53,.2-.98,.18-1.45-.06-.08-.04-.2-.08-.26-.05-1.28,.59-2.26-.27-3.33-.67-.66-.25-1.3-.57-1.97-.78-.3-.09-.66,0-.99,.03-.9,.11-1.62-.08-2.23-.85-.33-.41-.99-.53-1.38-.91-.4-.4-.69-.89-1.34-.9-.1-.54-.44-.69-.95-.93-.9-.41-1.54-.15-2.26,.27-.17,.1-.39,.12-.59,.12-.81,0-1.59,.12-2.34,.47-.26,.12-.63-.01-1.03-.04-.45,.78-1.47,1.14-2.41,.5-.53-.36-1-.23-1.5-.3-.33-.05-.69,.02-.99-.1-.5-.19-1.05-.41-.86-1.14-.35-.06-.65-.07-.91-.17-.24-.1-.43-.3-.65-.46-.16,.03-.33,.05-.5,.08-.13,.02-.27,.05-.38,.06l-.9-1.2,.34-.29c-.15-.21-.61,0-.58-.57,.03-.54-.37-1.08-1.03-1.29-.43-.14-.81-.39-1.24-.61,.5-.93,.39-1.74,0-2.62,.49-.37,1.01-.73,1.13-1.48,.06-.38,.53-.68,.93-1.15-.46-.1-.88-.33-1.18-.22-.51,.2-.71-.16-1.05-.32-.54-.24-.76-.82-1.35-1.06-.49-.2-.81-.83-1.19-1.29-.39-.47,.05-.9,.14-1.33,.02-.1,.39-.14,.63-.21l-.35-1.64c1.16-.75,2.44-1.13,3.78-1.33,.92-.14,1.85-.27,2.78-.31,.54-.02,1.1,.13,1.65,.2-.06,.75,.56,.56,.95,.7,.85,.29,1.71,.31,2.59,.1,.52-.12,1.09-.2,1.61-.13,1.01,.13,1.86-.42,2.8-.54,.13-.02,.23-.3,.29-.38,.62,.05,1.16,.06,1.68,.14,.23,.04,.55,.19,.62,.37,.23,.59,.36,1.23,.53,1.84,1.06-1.01,2.15-2,3.43-2.73,.37-.21,.81-.32,1.16-.56,.42-.29,.76-.71,1.19-.99,.49-.32,1.13-.46,1.54-.85,.42-.4,.8-.41,1.32-.33l.36-.53c.06-.03,.1-.07,.12-.06,1.1,.31,1.97-.8,3.11-.48,.38,.11,.87-.31,1.33-.38,.71-.12,1.44-.16,2.11,.21,.06,.03,.14,.09,.17,.07,.75-.45,1.25,.24,1.87,.4,.72,.19,1.43,.39,2.12,.7,.31,.14,.71,.06,1.14,.08,.03,.51,.47,.65,.9,.9,.7,.4,1.27,1.03,1.78,1.66,.25,.31,.47,.47,.93,.41,.31-.04,.66,.33,1.01,.46,.3,.11,.65,.28,.93,.21,.77-.2,1.51-.42,2.26,.08,.09,.06,.25,0,.37,0l.03,.65c.15-.02,.27,0,.33-.06,.52-.44,1.02-.48,1.54,0,.1,.09,.28,.23,.33,.2,.63-.4,1.25,.33,1.89,0,.13-.07,.44,.19,.75,.34l.23-.8c.47-.23,.52,.31,.84,.51,.16-.6,.58-.62,1.03-.48,.83,.26,1.6,.73,2.51,.66,.03,0,.07,.02,.09,.04,.93,.76,2.09,.67,3.17,.89,.49,.1,.96,.33,1.44,.51,.22,.08,.44,.24,.66,.25,.89,.04,1.61,.46,2.32,.95,1.02,.7,1.09,.83,.83,2.09-.08,.4-.17,.79-.25,1.17q.74,.61,.11,1.98c-.76,0-1.53-.02-2.31,0-.86,.02-1.67,.24-2.42,.68-.51,.3-.77,.71-.91,1.27-.22,.91-.5,1.81-.73,2.72-.22,.86-.82,1.47-1.36,2.12-.28,.34-.57,.67-.88,.98-.19,.19-.39,.39-.62,.49-1.17,.51-2.3,1.07-3.68,.9-.82-.11-1.7,.04-2.53,.17-1,.16-1.9,.54-2.27,1.63-.11,.33-.37,.51-.76,.58-1.79,.3-3.55,.36-5.35-.04-1.2-.27-2.46-.28-3.69-.41-.36-.04-.72-.08-1.02-.11Zm-20.02-15.63c.13-.18,.21-.39,.36-.51,.41-.33,.1-.69,.03-1-.02-.1-.47-.15-.71-.13-.37,.03-.75,.09-1.1,.21-.85,.32-1.77,.08-2.64,.44-.53,.22-1.29,.33-1.71-.52l-.31,.66c-.65,.07-1.25,.14-1.85,.18-.2,.02-.41,0-.6-.06-.98-.28-1.94-.59-2.92-.84-.88-.22-1.76-.53-2.7-.21-.35,.12-.73,.24-.71,.6,.02,.37,.2,.79,.44,1.07,.26,.3,.69,.43,1.12,.22,.67-.31,1.29-.09,1.95,.13,.77,.26,1.07,.73,1.13,1.47,0,.06,.07,.12,.1,.18,.33,.82,.43,1.66,.02,2.46-.53,1.04-1.14,2.04-1.78,3.16,.29,.17,.66,.38,1.02,.61,.86,.52,1.8,.92,2.5,1.69,.36,.39,.76,.91,1.22,1.01,.66,.14,1.01,.65,1.54,.9,.93-.97,1.05-1.01,2.47-1.06,1-.03,1.97-.22,2.9-.57,.09-.03,.2-.07,.26-.14,.85-.91,1.76-.58,2.59-.05,.98,.63,1.89,1.37,2.81,2.09,.66,.51,1.3,.81,2.21,.75,1.06-.07,2.14,.19,3.21,.31,.03,0,.07,.02,.1,.04,.52,.37,1.03,.7,1.66,.91,.58,.19,1.76,.68,2.27,.7,.4,.01,.8,.05,1.27,.08,.99-.96,2.17-1.77,3.55-2.26,.54-.19,1.15-.22,1.65-.48,.54-.29,1.04-.16,1.53-.06,.55,.12,1.06,.39,1.6,.58,1.25,.43,2.5,.85,3.76,1.24,.23,.07,.56,.06,.75-.06,.33-.21,.56-.57,.88-.8,.34-.24,.74-.4,1.1-.61,.08-.05,.11-.18,.19-.23,.11-.07,.28-.19,.35-.15,.61,.3,1.12-.16,1.68-.21,1.41-.14,2.8-.43,4.21-.64,.47-.07,.86-.29,1.08-.67,.63-1.09,1.33-2.17,1.29-3.49-.04-1.41,.46-2.48,1.82-3.06,.12-.05,.25-.13,.33-.23,.43-.59,1.04-.67,1.71-.71,.55-.03,1.1-.17,1.65-.26,.02-.25,.09-.46,.03-.51-.58-.49-1.13-1.04-1.78-1.39-.5-.27-1.14-.34-1.72-.36-.62-.02-1.2-.08-1.74-.4-.1-.06-.27,.02-.4,0-1.08-.16-2.15-.34-3.33-.53-.26,.52-.8,.54-1.45,.36-.42-.11-.87-.1-1.31-.14-.42-.04-.83-.06-1.36-.1l-.26,.31c-.67-.23-1.32-.45-1.97-.66-.33-.11-.67-.21-.93,.14-.27,.37-.05,.69,.13,1.02,.1,.19,.21,.39,.24,.6,.12,.66,.2,1.33,.28,1.87-.2,.53-.35,1-.54,1.44-.23,.52-.42,1.05-1.16,1.11-.48,.04-.93,.41-1.41,0-.05-.04-.25,.05-.36,.12-.77,.45-1.59,.68-2.49,.49-.13-.03-.34-.06-.39,.01-.37,.49-.88,.17-1.32,.25-.53,.09-1.06,.22-1.6,.24-.4,.01-.78,.07-1.17,.13-.51,.07-1.07,.65-1.61,.04-.03-.03-.17-.03-.18,0-.26,.65-.86,.36-1.24,.33-.8-.08-1.57-.05-2.35,.15-.28,.07-.65,.12-.89,0-.47-.22-.84-.03-1.23,.14-1,.44-1.98,.5-3.02,.1-.31-.12-.72,.03-1.24,.06l-.22-.93-.17-.03-.4,.95c-.42-.27-.83-.53-1.25-.78-.09-.05-.22,0-.33-.04-.42-.12-1.06-.13-1.2-.4-.54-1.02-1.46-.99-2.37-1.11-.3-.45-.73-.84-.8-1.48-.03-.25-.33-.49-.55-.68-.83-.72-.82-.9,.14-1.51,.08-.05,.13-.14,.26-.28l-.64-1.21Zm25.84,4.07c.11-.35,.25-.56,.21-.72-.22-.84-.46-1.68-.74-2.5-.43-1.26-1.4-2.17-2.18-3.2-.11-.15-.33-.23-.5-.33-1.28-.73-2.56-1.48-3.86-2.17-.4-.21-.63-.9-1.27-.51-.25-.67-.84-.07-1.23-.33-.38-.24-.85-.36-1.29-.51-.19-.07-.39-.15-.58-.13-1.23,.12-2.38,.57-3.38,1.24-1.35,.89-2.59,1.94-3.9,2.88-.36,.25-.81,.37-1.35,.6l-.4,.99-.65-.18c-.39,.26-.68,.5-1,.67-.55,.28-.54,.74-.48,1.23,.02,.16,.1,.32,.15,.45,3.22,1.36,6.47,2.48,9.98,1.69l.71,.61,.05-.69c.63,.18,1.19,.33,1.81,.51l-.18-.57c.47,.28,.82,.57,1.23,.71,.6,.2,.8-.49,1.26-.72l.61,.54c.2-.1,.44-.32,.6-.27,.71,.2,1.31-.05,1.96-.27,.76-.26,1.52-.27,2.28,.15,.28,.16,.66,.13,.81,.5,.02,.04,.12,.04,.26,.09l.26-.51,.84,.74Zm-16.52,11.17c-.19,.66-.06,.87,.39,.87,.05,0,.1-.07,.21-.15l-.6-.72Zm26.4-16.87l-.1,.27,.66,.28,.1-.26-.67-.29Zm-34.39,.02l.04-.24h-.5l-.02,.14,.48,.1Zm29.67,.64l.09-.21-.4-.14c-.02,.06-.06,.16-.05,.16,.12,.07,.24,.13,.36,.19Zm-21.24,6.76l.08-.17-.44-.18c-.02,.05-.07,.15-.06,.15,.14,.07,.28,.13,.42,.2Zm-.35,1.3l.22-.22-.37-.41-.25,.25,.4,.38Z"/></g></g></g></svg>