<?xml version="1.0" encoding="UTF-8"?><svg xmlns="http://www.w3.org/2000/svg" viewBox="0 0 197.94 175.76"><defs><style>.d{fill:#19122b;}</style></defs><g id="a"/><g id="b"><g id="c"><g><path class="d" d="M122.83,146.82c-1.23-.05-2.45-.15-3.64-.51-.65-.2-1.03,.02-1.16,.71-.27,1.4-.52,2.8-.68,4.21-.13,1.1-.25,2.2-.55,3.28-.18,.64-.28,1.3-.36,1.96-.09,.76,.5,1.6,1.25,1.74,1.29,.24,2.58,.5,3.88,.61,.96,.08,1.94-.09,2.92-.15,1.25-.08,2.51-.09,3.75-.27,1.4-.21,2.79-.52,4.16-.88,1.91-.5,3.83-1.02,5.7-1.65,.94-.32,1.84-.81,2.65-1.38,1.07-.76,2.19-1.41,3.38-1.95,.17-.08,.37-.11,.56-.15,.19-.05,.42-.05,.56-.16,.76-.62,1.71-.76,2.58-1.11,.49-.2,.92-.56,1.39-.83,.34-.19,.68-.42,1.05-.5,.81-.19,1.45-.66,2.12-1.11,.72-.49,1.5-.9,2.25-1.35,.93-.56,1.86-1.1,2.77-1.69,1.35-.88,2.5-2,3.66-3.11,.28-.27,.59-.51,.91-.71,1.38-.85,2.36-2.11,3.44-3.27,.29-.31,.75-.48,1.15-.67,.06-.03,.26,.11,.31,.21,.07,.14,.11,.32,.09,.48-.09,.74,.06,1.51-.27,2.23-.03,.07,.02,.21,.08,.29,.2,.3,.38,.63,.63,.87,.17,.17,.47,.21,.7,.31,.06-.19,.16-.39,.15-.58-.02-.29,.12-.44,.35-.49,.11-.02,.26,.12,.38,.21,.47,.36,.87,.88,1.52,.84,1.07-.06,1.65,.54,2.05,1.4,.11,.23,.14,.36,.38,.12,.12-.12,.34-.31,.44-.27,.27,.11,.51,.31,.73,.51,.07,.06,.02,.24,.08,.31,.15,.18,.46,.33,.47,.5,.02,.4-.44,.07-.57,.28-.07,.1-.11,.34-.07,.37,.17,.11,.4,.27,.56,.23,.51-.15,.99-.37,1.48-.57,.13-.05,.25-.13,.37-.19,.31-.15,.5,.06,.63,.26,.18,.25-.07,.34-.25,.41-.2,.08-.3,.22-.15,.37,.07,.07,.34,.05,.42-.03,.35-.39,.61-.25,.91,.06,.11,.12,.37,.23,.47,.18,.13-.07,.18-.31,.24-.48,.08-.19,.13-.4,.2-.59,.15-.4,.35-.46,.66-.13,.3,.33,.56,.28,.93,0,.33-.25,.8-.34,1.22-.44,.12-.03,.38,.07,.43,.17,.24,.54,.53,.26,.77,.05,.41-.37,.81-.77,1.18-1.19,.52-.59,.98-1.23,1.9-1.15,.11,.01,.23-.15,.36-.2,.4-.15,.61,.18,.86,.39,.26,.22,.01,.37-.12,.55-.43,.56-.73,1.29-1.28,1.66-1.06,.71-1.57,1.86-2.48,2.67-.91,.81-1.73,1.72-2.64,2.53-.51,.46-1.14,.78-1.67,1.22-.59,.5-1.1,1.07-1.67,1.59-.3,.28-.65,.5-.97,.76-.39,.32-.87,.59-1.15,1-.6,.89-1.6,1.25-2.35,1.93-.12,.11-.29,.19-.36,.32-.24,.48-.61,.61-1.11,.52-.1-.02-.29,0-.3,.04-.12,.47-.28,.53-.66,.19-.16-.15-.37,.06-.37,.29,0,.23,.12,.43-.02,.71-.15,.3-.1,.68-.62,.6-.12-.02-.33,.21-.4,.37-.21,.5-.59,.57-1.03,.44-.31-.09-.47-.08-.69,.25-.27,.4-.73,.68-1.13,.97-.19,.13-.45,.23-.68,.23-.35,0-.53,.12-.52,.48,0,.11-.05,.22-.09,.32-.12,.29-.27,.52-.62,.25-.25-.19-.35-.14-.47,.16-.14,.37-.26,.85-.85,.72-.52,.58-1.47,.44-1.92,1.16-.06,.09-.41,.08-.58,0-.73-.31-.62-.21-1.16,.28-.48,.43-.93,1.08-1.81,.93-.3-.05-.34-.18-.44-.36-.04-.08-.17-.11-.26-.16-.04,.09-.11,.19-.1,.28,0,.1,.1,.2,.13,.3,.07,.26-.09,.44-.3,.35-.42-.17-.56,.1-.73,.35-.23,.33-.52,.52-.91,.64-.61,.19-1.18,.49-1.78,.72-.62,.24-1.25,.44-1.87,.68-.25,.1-.47,.27-.72,.37-.53,.21-1.08,.54-1.62,.56-.68,.03-1.23,.32-1.81,.54-.61,.23-1.19,.53-1.78,.8-.15,.07-.33,.12-.44,.23-.56,.51-1.31,.57-1.97,.84-.37,.15-.88-.07-1.13,.43-.64-.32-1.03,.08-1.46,.45-.06,.05-.25-.09-.38-.1-.15-.02-.35-.05-.45,.02-.57,.43-1.19,.74-1.91,.83-.22,.03-.43,.09-.65,.08-.56,0-1.11-.02-1.51,.5-.1,.14-.33,.22-.52,.25-1.01,.2-2.03,.38-3.04,.57-.53,.1-1.05,.13-1.56-.11-.55-.26-.81,.44-1.33,.42-.39-.02-.87-.38-1.2,.15-.41-.45-.76,.11-1.16,.09-.71-.04-1.43,.12-2.15,.2-.03,0-.06,0-.08,.02-.42,.24-.8-.7-1.23-.04-.47,0-.93,.03-1.4,0-.16,0-.36-.06-.47-.16-.41-.4-.92-.39-1.41-.39-.89,0-1.79,.1-2.68,.06-.59-.03-1.21,.07-1.76-.3-.13-.09-.39-.11-.54-.04-.6,.28-1.09,0-1.45-.36-.29-.28-.57-.62-.83-.96-.31-.4-.27-.42-.56,.04-.06,.1-.17,.18-.25,.27-.08-.11-.19-.2-.23-.32-.06-.15-.1-.32-.09-.48,.03-.47,.11-.93,.13-1.4,.03-.5,.13-.93,.4-1.39,.35-.61,.51-1.35,.68-2.05,.28-1.19,.54-2.39,.75-3.59,.18-1.07,.28-2.15,.41-3.22,.13-1.1,.26-2.21,.4-3.31,.21-1.63,.42-3.25,.64-4.88,.02-.14-.03-.32,.04-.4,.47-.53,.31-1.16,.32-1.76,0-.44,.13-.8,.31-1.19,.35-.77,.28-1.62,.3-2.44,.01-.4-.01-.76,.19-1.13,.1-.18,.15-.45,.1-.65-.21-.67,.06-1.23,.32-1.82,.07-.16,.07-.36,.07-.55,0-1.03-.04-2.06,0-3.09,.05-1.22,.18-2.43,.23-3.65,.04-.77,.05-1.55-.01-2.32-.05-.62-.29-1.23-.36-1.85-.05-.51,.03-1.04,.06-1.56,0-.11,.04-.24,.1-.31,.11-.12,.38-.21,.37-.3-.02-.44-.1-.88-.17-1.32,0-.05-.06-.12-.1-.12-.71-.06-.66-.64-.76-1.11-.24-1.12-.51-2.23-.66-3.36-.09-.67-.57-.98-1.02-1.22-.4-.22-.96-.18-1.45-.19-1.07-.03-2.08,.31-3.11,.53-.65,.14-1.32,.21-1.98,.21-1.59,0-3.18-.02-4.77-.14-1.68-.14-3.36-.43-5.04-.61-.71-.08-1.45,.03-2.11-.32-.29-.15-.54-.49-.82-.51-.23-.01-.47,.16-.79,.1-.88-.16-1.72-.35-2.5-.81-.48-.28-1.03-.44-1.52-.7-.26-.14-.5-.34-.68-.57-.19-.24-.29-.5-.61-.16-.04,.04-.17,.01-.25-.01-.48-.17-.9-.42-1.16-.88-.07-.13-.27-.31-.33-.29-.44,.18-.69-.2-.97-.35-.49-.27-.91-.67-1.31-1.06-.28-.27-.47-.61-.32-1.04,.05-.15,.03-.33,.03-.5,0-.42,.11-.76,.6-.86,.27-.06,.45-.2,.33-.54-.12-.34,.06-.58,.3-.81,.52-.49,1.03-.98,1.55-1.48,.68-.65,1.31-1.36,2.05-1.94,.69-.54,1.25-1.16,1.7-1.91,.06-.09,.14-.22,.23-.23,.83-.13,.92-.95,1.36-1.44,.44-.49,.9-1,1.02-1.7,.01-.08,.07-.15,.12-.22,.74-1.04,1.42-2.14,2.25-3.11,.38-.45,.45-1,.76-1.45,.13-.18,.16-.44,.32-.58,.22-.21,.17-.43,.19-.68,.02-.41,.08-.82,.2-1.21,.23-.71,.07-1.12-.52-1.6-.64-.51-1.36-.79-2.09-1.11-.83-.36-1.59-.9-2.32-1.45-1.07-.8-2.29-1.25-3.51-1.7-.45-.16-.92-.25-1.13-.76-.03-.07-.1-.15-.17-.17-1.01-.28-1.75-.94-2.48-1.65-.18-.18-.5-.21-.74-.35-1.02-.57-1.98-1.21-2.93-1.89-.66-.47-1.34-.88-1.83-1.54-.09-.12-.29-.14-.44-.21-.1-.05-.26-.11-.26-.17-.02-.67-.62-.83-.99-1.21-.47-.49-.82-1.11-1.18-1.69-.65-1.06-1.22-2.19-2.43-2.75-.36-.16-.46-.71-.97-.67-.03,0-.07-.08-.1-.13-.42-.88-.46-.84-1.1-1.49-.55-.56-1.01-1.22-1.48-1.86-.8-1.11-1.37-2.37-2.08-3.53-.14-.23-.33-.44-.51-.65-.11-.13-.26-.22-.35-.36-.53-.89-1.03-1.79-1.57-2.67-.31-.52-.67-1.01-.99-1.52-.47-.78-.94-1.56-1.36-2.37-.42-.82-.78-1.66-1.13-2.51-.18-.46-.28-.95-.4-1.43-.05-.19-.06-.39-.14-.56-.48-1.02-.71-2.09-.75-3.23-.02-.68-.21-1.38-.44-2.04-.46-1.32-.53-2.68-.54-4.05,0-.14,.06-.3,0-.42-.46-1.16-.39-2.4-.59-3.6-.22-1.29-.13-2.62,.05-3.92,.11-.8,.11-.79-.62-1.09-.28-.11-.53-.3-.78-.47-.83-.57-1.44-1.37-2.07-2.14-.5-.61-.32-1.17,.44-1.39,.62-.18,1.25-.29,1.88-.43,1.06-.23,2.08-.56,3.05-1.04,.14-.07,.24-.21,.36-.32-.13-.12-.24-.28-.4-.36-.27-.13-.56-.29-.84-.3-1.65-.05-2.12-.66-2.66-2.39-.09-.28-.06-.6-.07-.91-.01-.25,0-.5,0-.76-.03-1.36-.55-2.03-1.87-2.42-1.26-.37-2.09-1.18-2.59-2.39-.48-1.17-1.04-2.31-1.55-3.47-.32-.73-.63-1.47-.68-2.29-.02-.26-.16-.52-.24-.78-.03-.1-.12-.23-.09-.31,.32-.9-.23-1.65-.38-2.48-.14-.81-.25-1.63-.38-2.45,.52-.58,.33-1.4,.66-2.04,.04-.07,.08-.21,.12-.21,.57,.05,.87-.67,1.51-.52,.24,.05,.54-.24,.82-.29,.74-.14,1.49-.33,2.23-.32,.84,.01,1.67,.12,2.29,.9,.46,.58,1.15,.97,1.65,1.53,.99,1.09,2.22,1.65,3.63,1.9,1.12,.19,1.91,.84,2.51,1.75,.97,1.49,2.26,2.53,4.03,2.9,.33,.07,.64,.21,.96,.27,.75,.12,1.47,.06,2.23-.14,1.19-.31,2.15-.98,3.19-1.56,.74-.42,1.49-.86,2.35-1.01,.8-.14,1.43-.61,2.08-1.04,.16-.11,.32-.28,.49-.3,.75-.07,1.36-.53,1.82-.97,.72-.68,1.76-.98,2.28-1.9,.03-.05,.08-.09,.12-.11,1.33-.54,2.06-1.85,3.26-2.57,.38-.23,.75-.47,1.11-.72,1.48-1.02,3.19-1.54,4.86-2.12,.05-.02,.11-.03,.16-.04,1.03-.18,2.07-.35,3.1-.56,.96-.19,1.89-.52,2.86-.61,1.46-.14,2.94-.14,4.41-.19,1.81-.06,3.62-.1,5.42-.2,.57-.03,1.14-.22,1.71-.35,.27-.06,.54-.36,.8,.04,.02,.03,.2,.02,.21,0,.17-.38,.76-.42,.77-.91,.01-.69,.54-.99,.99-1.32,.37-.28,.82-.46,1.24-.67,.15-.07,.35-.2,.46-.16,.58,.24,.85-.21,1.22-.47,.21-.15,.39-.5,.78-.22,.11,.07,.45-.06,.6-.2,.29-.29,.64-.37,1.02-.48,.38-.11,.82-.11,1.12-.47,.1-.12,.36-.14,.55-.16,.94-.08,1.89-.15,2.83-.23,.08,0,.18-.04,.25-.01,.92,.4,1.8,0,2.7-.1,.49-.05,.97-.35,1.47-.07,.73-.42,1.39-.06,2.07,.17,.05,.02,.12,.05,.16,.03,1.02-.5,2.05,.17,3.07-.02,.79,.41,1.68-.05,2.51,.32,.54,.23,1.25,.04,1.86,.15,.92,.17,1.87,.26,2.74,.7,.54,.27,1.14,.4,1.72,.59,.24,.08,.48,.13,.72,.21,.98,.31,1.95,.61,2.93,.92,1.35,.43,2.7,.87,4.05,1.28,.43,.13,.89,.14,1.3,.31,.68,.29,1.33,.63,2.06,.75,.05,0,.12,.03,.15,.06,.36,.49,1.02,.47,1.45,.83,.49,.4,.99,.79,1.48,1.19,.11,.09,.19,.24,.31,.27,.99,.21,1.36,1.15,2.03,1.74,.63,.56,1.11,1.29,1.67,1.94,.29,.33,.63,.61,.91,.95,.45,.56,.93,1.11,1.27,1.74,.7,1.3,1.58,2.48,2.41,3.69,.6,.88,1.24,1.7,1.52,2.78,.45,1.79,1.06,3.53,1.54,5.31,.36,1.31,.64,2.65,.95,3.98,.01,.05,0,.12,.03,.16,.67,1.03,.42,2.11,.21,3.2-.1,.54-.09,1.11-.08,1.67,.01,.55,.13,1.08-.21,1.6-.13,.2-.03,.53-.05,.81-.04,.75-.15,1.49-.25,2.24,0,.05,0,.15-.02,.16-.73,.36-.23,1.02-.36,1.53-.13,.54-.18,1.1-.2,1.65-.02,.64-.01,1.28,.05,1.91,.07,.74,.27,1.47,.33,2.21,.09,1.28,.72,2.41,.97,3.63,.29,1.43,.58,2.86,1.06,4.25,.67,1.96,1.63,3.77,2.97,5.33,.83,.96,1.43,2.01,2.03,3.11,.45,.82,1.11,1.52,1.68,2.27,.07,.09,.16,.16,.26,.21,.27,.16,.18,.63,.67,.66,.25,.01,.49,.33,.73,.52,.11,.08,.28,.15,.3,.25,.17,1.06,.94,1.78,1.49,2.62,.25,.39,.42,.77,.48,1.21,.12,.82,.5,1.56,.75,2.33,.21,.63,.13,1.36,.17,2.05,0,.02-.03,.05-.03,.08,.15,.95-.49,1.73-.58,2.63-.09,.89-.15,1.78-.13,2.67,.02,.91,.16,1.82,.26,2.73,.06,.57,.22,1.15,.19,1.72-.06,1.13,.14,2.21,.38,3.29,.02,.08,.02,.2,.07,.23,.54,.36,.39,.94,.46,1.45,.11,.88,.19,1.77,.3,2.65,.03,.22,.09,.44,.19,.64,.26,.48,.66,.9,.61,1.51,0,.07,.04,.17,.09,.23,.48,.61,.97,1.22,1.46,1.83,.54,.66,1.08,1.31,1.62,1.98,.07,.08,.16,.22,.13,.29-.16,.38,.11,.69,.28,.89,.34,.42,.52,.71,.1,1.2-.24,.27,.08,.51,.33,.48,.59-.06,.74,.24,.75,.73,0,.38,.19,.54,.57,.71,.55,.24,1.23,.44,1.26,1.26,0,.12,.2,.25,.33,.34,.88,.57,1.72,1.23,2.67,1.65,.97,.43,1.61,1.47,2.81,1.49,.14,0,.31,.23,.41,.39,.27,.48,.3,1.01-.05,1.42-.64,.75-.78,1.7-1.22,2.53-.27,.5-.63,.96-.98,1.42-.05,.06-.21,.08-.31,.07-.29-.03-.3,.15-.43,.35-.33,.53-.64,1.08-1.32,1.35-.92,.37-1.79,.86-2.66,1.34-.28,.15-.6,.38-.74,.65-.29,.61-.81,.93-1.37,1.17-2.08,.88-4.15,1.79-6.27,2.55-1.72,.62-3.49,1.08-5.26,1.55-1.72,.46-3.45,.84-5.18,1.25-.24,.06-.5,.08-.75,.1-1.48,.12-2.91,.51-4.36,.78-1.41,.26-2.88,.21-4.33,.29-1.8,.1-3.55-.29-5.29-.69-.48-.11-1-.09-1.5-.14-1-.1-1.99-.21-2.99-.29-.39-.03-.79-.02-1.17,.05-.48,.09-.58,.44-.22,.76,.96,.88,1.84,1.93,3.07,2.39,1.15,.42,2.36,.76,3.65,.4,.67-.18,1.41-.43,2.11,.05,.14,.1,.38,.06,.57,.06,.46,0,.62,.13,.53,.58-.07,.38-.23,.75-.42,1.08-.21,.36-.47,.71-.79,.97-.78,.65-1.33,1.48-1.95,2.26-.65,.82-1.34,1.55-2.34,1.94-.27,.1-.47,.36-.71,.54-.52,.39-1.21,.51-1.64,1.08-.16,.22-.62,.19-.92,.34-.43,.2-.95,.27-1.24,.75-.09,.15-.28,.27-.45,.35-1.63,.79-3.26,1.59-4.91,2.34-.96,.44-1.96,.8-2.94,1.2-.1,.04-.23,.05-.31,.11-1.31,.95-2.92,1.02-4.39,1.5-1.3,.43-2.59,.85-3.89,1.27-.87,.28-1.75,.56-2.63,.84-.19,.06-.39,.08-.56,.18-.86,.54-1.83,.63-2.8,.74-1.11,.12-2.21,.31-3.32,.44-.75,.09-1.5,.11-2.25,.16Zm42.08-23.59v.1c2.23-.18,4.46-.3,6.68-.57,1.12-.13,2.24-.46,3.32-.81,1.03-.33,2-.82,3.01-1.22,.28-.11,.58-.18,.88-.24,1.98-.37,3.96-.7,5.78-1.62,1.04-.53,2.14-.94,3.09-1.65,.66-.5,1.41-.87,2.09-1.35,.82-.58,1.6-1.2,2.4-1.8,.77-.59,1.57-1.14,2.29-1.78,.77-.69,.73-1.43-.03-2.16-.46-.45-1-.77-1.64-.93-.29-.07-.61-.2-.82-.4-.75-.71-1.47-1.45-2.17-2.2-.47-.51-.88-1.08-1.35-1.59-.52-.57-.87-1.19-1.04-1.96-.18-.77-.47-1.56-1.14-2.07-.69-.52-1.01-1.24-1.19-2.04-.08-.33-.17-.65-.23-.98-.11-.58-.22-1.13-.85-1.43-.34-.17-.51-.5-.35-.92,.14-.36,.04-.69-.21-1.01-.44-.57-.83-1.18-1.24-1.78-.59-.87-1.04-1.82-1.07-2.86-.03-1.11-.3-2.16-.74-3.13-.49-1.08-.44-2.18-.44-3.29,0-1.18,.15-2.36,.51-3.51,.14-.44,.05-.93,.5-1.26,.1-.07,.1-.31,.1-.47-.03-1.05-.08-2.1-.09-3.15-.01-.57-.11-1.11-.42-1.59-.28-.44-.52-.88-.97-1.23-.36-.28-.5-.83-.77-1.25-.24-.37-.46-.76-.77-1.06-.61-.58-1.12-1.21-1.54-1.95-.35-.62-.87-1.15-1.23-1.77-.78-1.31-1.58-2.6-2.14-4.03-.51-1.32-1.2-2.56-1.75-3.87-.58-1.38-1.01-2.83-1.64-4.18-.56-1.18-.88-2.43-1.36-3.63-.39-.97-.65-1.99-1-2.98-.36-1.01-.69-2-.48-3.1,.05-.27,0-.55-.01-.83-.01-.47-.09-.94-.02-1.4,.14-.98,.37-1.96,.54-2.94,.16-.95,.29-1.91,.44-2.87,.12-.77,.16-1.56,.39-2.29,.14-.44,.22-.9,.09-1.27-.28-.77-.12-1.54-.16-2.3,0-.11,.04-.24,0-.33-.45-1.04,.03-2.36-.96-3.23,.1-.61-.34-1.03-.54-1.53-.62-1.52-1.34-3-1.73-4.6-.35-1.4-.93-2.61-2.02-3.58-.34-.31-.56-.75-.86-1.11-.52-.61-1.07-1.2-1.62-1.78-.45-.48-.92-.94-1.38-1.41-.51-.5-1.07-.93-1.52-1.52-.28-.36-.43-.81-.8-1.11-.43-.35-.85-.72-1.27-1.08-.88-.75-1.73-1.54-2.95-1.69-.1-.01-.19-.11-.29-.16-.24-.12-.48-.24-.73-.34-1.15-.42-2.29-.85-3.45-1.25-1.39-.48-2.79-.98-4.2-1.41-1.76-.54-3.65-.55-5.37-1.26-.18-.07-.38-.07-.58-.09-1.55-.13-3.11-.25-4.66-.4-1.55-.15-3.1-.37-4.66-.52-1.87-.19-3.73-.2-5.57,.24-1,.24-1.99,.56-3,.72-1.22,.2-2.14,.93-3.09,1.6-.59,.41-.42,1.08,.25,1.32,.23,.08,.48,.13,.72,.19,1.06,.25,1.7,1.09,1.68,2.16-.02,.75-.03,1.51-.03,2.26,0,2.06,.05,4.12,0,6.18-.03,1.28,.19,2.48,.62,3.67,.19,.52,.37,1.07,.39,1.62,.07,2.43,.8,4.71,1.48,7.01,.52,1.75,1.78,3.07,2.52,4.68,.02,.04,.08,.09,.13,.1,.33,.07,.37,.33,.36,.58-.03,.83,.51,1.32,1.1,1.73,.69,.49,1.52,.79,2.35,.69,1.15-.15,2.3-.39,3.41-.74,1.24-.4,2.5-.76,3.59-1.53,.52-.37,1.09-.66,1.63-1.01,.93-.6,1.87-1.2,2.76-1.85,.6-.44,1.15-.83,1.97-.82,1.13,.01,2.09,.41,2.95,1.07,.3,.23,.56,.55,.74,.88,.39,.76,.71,1.55,1.05,2.33,.12,.28,.19,.6,.37,.84,.35,.45,.45,.95,.41,1.49-.06,.82,.03,1.64-.16,2.48-.15,.65-.32,1.18-.83,1.61-.1,.08-.22,.26-.19,.33,.14,.35-.14,.52-.28,.73-.21,.32-.45,.63-.68,.94-.15,.2-.29,.4-.46,.58-.37,.4-.82,.74-1.11,1.19-.22,.34-.53,.3-.79,.45-.26,.14-.39,.5-.59,.76-.03,.04-.1,.06-.15,.06-.61-.04-.89,.34-1.14,.82-.13,.25-.35,.3-.38-.1-.03-.35-.25-.34-.47-.21-.22,.12-.39,.32-.6,.45-.63,.41-1.24,.84-1.9,1.19-2.42,1.31-4.97,2.43-6.88,4.5-.92,1-1.77,2.07-2.61,3.15-.32,.41-.42,.99-.75,1.38-.52,.6-.87,1.26-1.21,1.97-.92,1.9-1.87,3.78-2.46,5.82-.22,.77-.58,1.49-.86,2.24-.1,.26-.17,.52-.27,.78-.62,1.61-1.29,3.2-1.62,4.91-.1,.54-.2,1.08-.38,1.6-.36,1.03-.8,2.02-1.15,3.05-.81,2.32-1.33,4.71-1.17,7.19,.11,1.74,.25,3.48,.47,5.21,.19,1.54,.47,3.08,.78,4.6,.18,.89,.49,1.76,.74,2.63,.22,.74,.38,1.52,.68,2.23,.59,1.38,1.2,2.74,1.9,4.07,.74,1.4,1.65,2.72,2.37,4.13,.86,1.7,2.25,2.94,3.52,4.28,.43,.46,.93,.91,1.49,1.19,.73,.38,1.56,.58,2.33,.88,.66,.26,1.32,.54,1.96,.84,.27,.13,.56,.3,.73,.54,.68,.95,1.74,1.38,2.68,1.93,.87,.51,1.92,.7,2.88,1.06,1.06,.39,2.12,.82,3.18,1.22,.47,.18,.93,.39,1.42,.48,1.14,.22,2.29,.38,3.43,.58,.38,.07,.75,.29,1.12,.27,.95-.05,1.88,.12,2.82,.16,1.01,.05,2.02,.2,3.02,.28,1.49,.12,2.97,.48,4.45,.75,.69,.12,1.36,.34,2.05,.39,.89,.07,1.78,.02,2.68,.02ZM61.24,43.22c.03,.33-.02,.69,.09,.99,.48,1.22,.52,2.5,.65,3.78,.04,.38,.11,.77,.21,1.14,.26,.94,.68,1.87,.77,2.82,.12,1.33,.55,2.56,.9,3.81,.33,1.2,.8,2.37,1.2,3.55,.2,.59,.2,1.25,.71,1.72,.02,.02,.02,.05,.03,.08,.27,.72,.51,1.47,.84,2.16,.34,.72,.77,1.41,1.18,2.1,.31,.53,.27,1.29,1.01,1.54,.05,.02,.06,.15,.1,.22,.28,.48,.53,.97,.84,1.42,.37,.55,.82,1.04,1.18,1.6,.52,.79,.95,1.63,1.48,2.41,.66,.96,1.42,1.85,2.1,2.8,1.46,2.04,2.97,4.03,4.73,5.83,.71,.72,1.47,1.37,2.31,1.86,1.03,.6,2,1.24,2.84,2.08,.14,.14,.37,.18,.56,.26,.35,.15,.76,.22,1.05,.45,.76,.59,1.44,1.3,2.22,1.87,.95,.7,1.93,1.39,2.97,1.96,1.09,.59,2.3,.92,3.43,1.46,1.01,.48,1.83,1.16,2.75,1.73,.51,.32,1.1,.53,1.35,1.17,.04,.09,.24,.16,.37,.16,.46,0,.72,.22,.8,.68,.05,.31,.2,.47,.58,.36,.2-.06,.67,.1,.67,.15-.01,.59,.4,.54,.78,.62,.18,.04,.4,.2,.48,.37,.12,.26,.16,.57,.2,.87,.04,.22,.07,.27,.32,.17,.55-.24,.74-.15,1.13,.28,.55,.61,1.12,1.2,1.71,1.77,.21,.2,.54,.26,.75,.45,.27,.25,.63,.56,.67,.87,.05,.5,.39,.05,.56,.28,.28,.38-.46,.37-.18,.66,.26,.26,.5,.68,.8,.73,.55,.09,.69,.55,.98,.84,.46,.44,.39,1.29,1.09,1.62,.07,.03,.11,.2,.12,.3,.05,.5,.75,.71,.58,1.3,.59,.15,.62,.73,.85,1.14,.48,.85,.95,1.7,1.44,2.55,.37,.65,.86,1.26,1.13,1.95,.81,2.05,1.49,4.15,2.6,6.06,.31,.54,.76,.89,1.41,.86,.44-.02,.89-.07,1.33-.14,.79-.13,1.57-.31,2.36-.44,.75-.13,1.5-.25,2.26-.36,.98-.15,1.95-.29,2.93-.42,.16-.02,.34-.02,.5,.03,.47,.16,.92,.05,1.28-.2,.27-.18,.43-.18,.64,.02,.05,.05,.21,.07,.22,.06,.05-.09,.12-.24,.09-.3-.09-.15-.23-.29-.38-.37-.21-.12-.5-.12-.68-.27-.55-.42-1.27-.78-1.53-1.34-.34-.74-1.12-.81-1.51-1.38-.15-.22-.42-.35-.59-.57-.54-.71-1.05-1.44-1.58-2.15-.43-.59-.93-1.13-1.27-1.76-.75-1.39-1.43-2.81-2.13-4.23-.15-.3-.21-.65-.4-.92-.66-.92-1.02-1.97-1.32-3.04-.32-1.17-.38-2.43-1.15-3.46-.06-.08-.04-.22-.08-.32-.38-.89-.37-1.85-.51-2.78-.2-1.32-.51-2.62-.69-3.94-.09-.62-.02-1.27,0-1.91,.02-1.16,.02-2.32,.1-3.47,.05-.82,.2-1.64,.34-2.45,.13-.79,.27-1.59,.47-2.37,.47-1.8,.99-3.58,1.49-5.37,.49-1.71,.93-3.43,1.49-5.12,.65-1.96,1.43-3.87,2.09-5.82,.52-1.54,1.14-3,2.11-4.32,.21-.29,.39-.61,.56-.92,.49-.9,.96-1.82,1.47-2.71,.23-.41,.51-.8,.83-1.15,1.16-1.28,2.33-2.54,3.51-3.8,.22-.24,.42-.55,.7-.68,.8-.37,1.21-.58,1.59-1.05,.35-.43,.73-.77,1.34-.7,.1,.01,.26-.04,.3-.11,.27-.56,.91-.49,1.34-.78,.17-.12,.48-.07,.61-.21,.56-.59,1.34-.78,2.03-1.12,.47-.23,.84-.52,1.03-1.03,.07-.21,.19-.42,.34-.57,.82-.79,1.54-1.66,2.2-2.59,.87-1.22,1.88-2.35,2.41-3.78,.15-.41,.26-.85,.31-1.28,.12-1.13-.5-2.04-.99-2.97-.18-.34-.57-.69-.93-.78-.44-.11-1.09-.13-1.38,.13-.5,.44-1.07,.66-1.63,.95-.73,.38-1.42,.86-2.14,1.27-.23,.13-.44,.23-.44,.54,0,.36-.24,.45-.56,.49-.17,.02-.35,.14-.48,.26-.21,.19-.37,.42-.57,.61-.12,.12-.26,.25-.37-.04-.02-.04-.24-.06-.26-.03-.39,.68-1.24,.37-1.74,.81-.02,.02-.15-.01-.15-.03-.05-.5-.42-.05-.51-.16-.41-.44-.4,.05-.51,.22-.1,.15-.11,.35-.39,.34-.74,0-1.48,.03-2.22,.04-1.02,0-2-.4-3.04-.18-.88,.19-1.54-.56-2.37-.64-.12-.01-.24-.21-.33-.34-.47-.62-.95-1.24-1.68-1.61-.16-.08-.27-.27-.39-.41-.28-.34-.55-.7-.84-1.03-.87-1.01-1.33-2.23-1.74-3.47-.25-.77-.38-1.58-.68-2.32-.2-.5-.44-.97-.42-1.51,.02-.63-.12-1.19-.46-1.72-.09-.13-.11-.32-.13-.48-.08-1.11-.15-2.21-.38-3.31-.12-.56-.02-1.16-.07-1.74-.08-.84-.23-1.68-.31-2.52-.09-.97,0-1.97-.21-2.91-.21-.95-.09-1.87-.14-2.81-.04-.73,.36-1.33,.54-1.99,.5-1.83,0-2.23-1.72-2-.64,.09-1.27,.12-1.9,.16-1.22,.07-2.45,.18-3.67,.23-1.06,.04-2.12-.09-3.14,.29-.07,.03-.16,.02-.25,.02-1.2,.02-2.4,0-3.59,.08-.69,.04-1.36,.24-2.05,.37-.41,.08-.81,.14-1.22,.23-.87,.18-1.76,.29-2.6,.58-1.69,.58-3.35,1.28-5.03,1.9-.77,.29-1.38,.76-1.79,1.46-.27,.46-.47,.95-1.09,1.04-.13,.02-.23,.23-.36,.32-.15,.11-.32,.21-.49,.29-.8,.35-1.66,.55-2.42,1.05-.6,.39-1.25,.7-1.9,1.01-.79,.38-1.41,1.06-2.32,1.27-.41,.09-.73,.43-1.23,.4-.24-.02-.63,.23-.73,.46-.25,.56-.67,.87-1.19,1.1-.5,.23-1.05,.39-1.51,.7-.83,.55-1.75,.75-2.69,.79-1.52,.06-3.06,.04-4.58-.04-.56-.03-1.15-.24-1.67-.49-.83-.41-1.48-1.15-2.43-1.38-.08-.02-.14-.09-.2-.14-.63-.58-1.28-1.15-1.89-1.76-.7-.71-1.46-1.32-2.42-1.6-1.77-.53-3.06-1.62-3.96-3.22-.13-.22-.39-.44-.63-.51-.97-.29-1.92-.1-2.68,.51-.51,.41-1.05,.87-1.12,1.69-.13,1.51,.06,3,.17,4.49,.04,.57,.25,1.15,.46,1.69,.46,1.17,1.15,2.22,1.78,3.31,.93,1.6,2.34,2.57,3.89,3.43,.09,.05,.23,.08,.28,.16,.56,.83,.98,1.7,.64,2.73-.21,.62-.25,1.25-.16,1.9,.06,.43,.25,.73,.63,.92,.73,.37,1.49,.63,2.32,.64,.36,0,.73,0,1.09,.05,.52,.07,.97,.3,1.22,.78,.07,.13,.04,.43-.05,.5-.69,.5-1.37,1.08-2.14,1.42-.99,.43-2.07,.66-3.11,.97-.33,.1-.7,.19-.74,.58-.05,.44,.33,.62,.65,.77,.17,.08,.38,.12,.57,.12,.5,0,1-.02,1.5-.02,.3,0,.63-.03,.89,.08,1.08,.47,2.1,1.02,2.93,1.9,.49,.52,1.08,.99,1.7,1.34,1.71,.97,3.58,1.35,5.53,1.4,.44,.01,.91,.04,1.3,.21,1.88,.81,3.53,2.02,5.2,3.18,.36,.25,.72,.54,.99,.89,.93,1.17,2.28,1.52,3.6,1.91,.81,.24,1.68,.25,2.5,.44,1.51,.35,3.05,.29,4.59,.33,.58,.01,1.17-.07,1.75-.17,.93-.15,1.84-.39,2.77-.51,.85-.11,1.7-.24,2.58-.14,.74,.09,1.5,.03,2.25-.02,1.7-.11,3.36-.39,4.95-1.08,1.37-.6,2.79-1.11,4.21-1.59,1.12-.37,2.26-.75,3.49-.46,.52,.12,.65,.36,.42,.9-.08,.18-.07,.41-.19,.55-.2,.24-.44,.55-.71,.63-1.28,.36-2.58,.69-3.92,.79-.74,.06-1.51,.23-2.18,.54-1.1,.52-2.26,.75-3.43,1.01-.27,.06-.54,.13-.81,.21-1.59,.46-3.22,.68-4.88,.63-.66-.02-1.35-.04-1.97,.13-1.32,.37-2.64,.71-4.01,.83-1.21,.11-2.42,.16-3.62-.28-.91-.34-1.87-.55-2.81-.79-.64-.17-1.3-.29-1.94-.46-.32-.08-.62-.26-.95-.32-1.11-.2-1.97-.86-2.85-1.5-.43-.31-.85-.63-1.28-.94-.72-.53-1.44-1.05-2.16-1.58-.18-.13-.36-.27-.54-.39-1.7-1.12-3.53-1.76-5.59-1.71-.45,0-.92-.17-1.36-.34-.68-.25-1.34-.55-1.99-.87-.37-.18-.81-.36-1.03-.67-.65-.89-1.58-1.18-2.56-1.33-1.25-.2-1.26-.15-1.26,1.09Zm47.48,77.56v.05c.64-.03,1.29-.01,1.92-.11,.71-.11,1.44-.24,2.09-.51,1.24-.52,1.36-1.02,.79-2.22-.67-1.41-1.28-2.84-1.92-4.26-.3-.66-.61-1.31-.93-1.96-.52-1.05-1.06-2.09-1.57-3.14-.46-.96-.87-1.94-1.55-2.77-.34-.41-.69-.81-1.01-1.22-.7-.9-1.33-1.87-2.11-2.7-.89-.95-1.84-1.87-3.04-2.44-.56-.26-1.11-.49-1.51-1-.16-.2-.46-.3-.72-.41-.36-.14-.58-.02-.67,.36-.04,.19-.1,.4-.06,.58,.25,1.11-.32,2-.78,2.91-.38,.77-.88,1.48-1.33,2.22-.97,1.59-1.83,3.27-2.96,4.74-1.07,1.4-2.4,2.61-3.65,3.88-.76,.77-1.6,1.47-2.38,2.23-.45,.43-.45,.53,.03,1,.33,.32,.74,.58,1.12,.85,.52,.37,1.01,.83,1.58,1.07,1.35,.56,2.72,1.05,4.11,1.5,1.51,.49,3.09,.67,4.67,.81,.8,.07,1.6,.18,2.4,.29,.63,.08,1.26,.26,1.89,.28,1.86,.04,3.71,.01,5.57,.01Zm15.6,.82h0c-.81,0-1.62,0-2.43,.02-.33,0-.66,.08-.98,.15-.6,.14-1.18,.34-1.78,.46-.97,.19-1.15,.41-.86,1.36,.32,1.06,.45,2.13,.41,3.23-.02,.7-.01,1.4-.03,2.1,0,.29,.07,.53,.4,.5,.66-.06,1.17,.28,1.71,.56,.22,.11,.45,.27,.69,.29,1.27,.12,2.52,.46,3.81,.21,1.34-.26,2.7-.42,4.05-.63,.77-.12,1.57-.14,2.3-.37,1.17-.36,2.33-.79,3.43-1.31,1.63-.78,3.22-1.67,4.82-2.52,.42-.22,.87-.41,1.25-.68,.66-.46,1.3-.96,1.91-1.48,.33-.27,.29-.47-.06-.62-.79-.35-1.59-.68-2.37-1.03-.71-.32-1.43-.62-2.12-.98-.84-.44-1.64-.95-2.49-1.39-.78-.4-1.52-.53-2.34,.07-.61,.45-1.37,.74-2.1,.98-.95,.31-1.94,.48-2.91,.74-.87,.24-1.75,.36-2.65,.33-.56-.02-1.12,0-1.68,0Z"/><path class="d" d="M27.56,119.57c-.42,0-.84-.05-1.25,0-1.1,.15-2.09-.28-3.1-.54-.18-.05-.36-.18-.48-.32-.93-1.06-2.18-1.53-3.46-1.97-.59-.2-1.11-.61-1.68-.89-.49-.25-1.02-.42-1.51-.68-.36-.19-.67-.48-1.02-.69-.8-.5-1.61-.99-2.42-1.48-.68-.41-1.23-.94-1.73-1.56-.34-.43-.74-.82-1.11-1.22-.06-.06-.12-.12-.17-.19-.59-.93-1.5-1.63-1.95-2.68-.13-.3-.35-.57-.57-.81-.71-.77-.99-1.77-1.51-2.64-.01-.02-.02-.05-.03-.08-.16-1.01-.38-2.03-.44-3.05-.04-.76-.16-1.49-.39-2.21-.11-.35-.06-.76-.05-1.14,0-.12,.1-.31,.2-.34,.38-.13,.52-.45,.73-.74,.34-.47,.78-.65,1.43-.56,.9,.12,1.83,.02,2.75,.03,.25,0,.51,.01,.74,.09,.69,.24,1.39,.11,2.06-.02,1.1-.21,2.18-.27,3.29-.08,.93,.16,1.88,.16,2.82,.25,1.42,.14,2.85,.33,4.27,.41,1.27,.07,2.55-.05,3.81,.04,2.39,.17,4.77,.07,7.15,0,1.08-.03,2.15-.25,3.23-.24,.91,0,1.74-.16,2.59-.43,.43-.14,.93-.06,1.39-.06,.45,0,.9,.12,1.33,.06,.78-.12,1.55,.04,2.32,.06,.08,0,.2,.08,.24,.05,.59-.51,1.43-.17,2.05-.59,.51-.35,1.17-.01,1.26,.59,.12,.79,.37,1.57,.09,2.38,.4,.85-.09,1.7,0,2.56,.01,.14,0,.28-.05,.42-.28,.96-.58,1.91-.85,2.87-.06,.21-.04,.44-.09,.66-.08,.32-.11,.69-.29,.94-.37,.52-.44,1.14-.69,1.69-.38,.87-.57,1.87-1.39,2.52-.17,.13-.34,.32-.4,.52-.2,.63-.6,1.12-1.03,1.6-.7,.78-1.33,1.64-2.05,2.4-.88,.94-1.92,1.66-3.14,2.13-.82,.32-1.62,.73-2.44,1.04-1.12,.43-2.26,.81-3.39,1.21-.41,.15-.83,.31-1.26,.4-.62,.13-1.25,.25-1.89,.3-.64,.05-1.28,.01-1.92,.01Z"/><path class="d" d="M19.98,167.61c2.09-.07,4.18-.14,6.27-.2,.83-.02,1.68-.07,2.5,.05,.44,.06,.76-.02,1.15-.13,.37-.11,.8-.05,1.21-.04,.27,0,.55,0,.82,.06,.62,.13,1.21,.08,1.8-.19,.21-.1,.5-.02,.74-.07,.26-.06,.55-.12,.76-.27,.35-.27,.32-.52,0-.84-.06-.06-.12-.12-.19-.16-1.51-.88-2.97-1.9-4.78-2.07-.66-.06-1.25-.47-1.94-.36-.11,.02-.26-.1-.35-.2-.33-.33-.66-.66-.94-1.03-.17-.22-.34-.26-.57-.2-.27,.08-.29,.27-.28,.52,.02,.55,.02,1.11-.02,1.66-.04,.61-.38,1-.97,1.05-.6,.05-1.22,0-1.82-.04-.32-.02-.47-.25-.47-.58,.02-1.62,.03-3.24,.04-4.86,0-1.06,0-2.12,0-3.18,0-2.29-.01-4.57-.02-6.86,0-.81-.03-1.62,0-2.43,0-.29,.1-.59,.15-.88,.02-.08,.07-.16,.06-.24-.05-.77-.12-1.54-.16-2.31,0-.14,.1-.29,.15-.44,.04-.11,.14-.26,.1-.34-.16-.36,.01-.57,.26-.8,.14-.13,.37-.38-.09-.44-.04,0-.11-.09-.11-.09,.37-.51-.17-.94-.13-1.41,.02-.32-.33-.72,.19-.95,.02,0,.05-.06,.04-.07-.42-.65,.21-1,.41-1.48,.11-.27,.2-.64,.1-.88-.17-.41,.02-.9-.33-1.27-.1-.11-.09-.36-.08-.55,.01-.22,.15-.45,.11-.65-.27-1.36,.21-2.69,.1-4.05-.03-.34-.25-.52-.27-.8-.03-.48-.11-1,.02-1.45,.29-1.01-.27-1.83-.48-2.73-.1-.44-.4-.84-.9-1.04-.24-.09-.45-.33-.62-.54-.2-.24-.33-.28-.5,0-.12,.21-.25,.16-.41,.04-.79-.62-1.72-.9-2.67-1.12-.41-.1-.62-.3-.77-.67-.18-.44-.38-.89-1.02-.78-.12,.02-.27-.15-.41-.23-.12-.07-.24-.2-.34-.19-.63,.12-1.04-.32-1.52-.58-.31-.17-.65-.28-.99-.39-.62-.21-1.24-.4-1.76-.85-.37-.32-.85-.52-1.28-.77-.74-.43-1.25-1.04-1.67-1.8-.47-.88-1.19-1.62-1.69-2.48-.56-.96-1.01-1.98-1.48-2.98-.22-.48-.34-1.01-.59-1.47-.51-.92-.69-1.92-.9-2.93-.12-.59-.3-1.16-.5-1.73-.67-2-1.32-4.02-1.56-6.13-.11-.96-.17-1.92-.42-2.86-.06-.23-.22-.43-.29-.66-.08-.26-.21-.55-.16-.79,.18-.86-.16-1.63-.35-2.42-.17-.72-.14-1.37,.04-2.11,.25-1.03,.19-2.14,.21-3.22,.02-.91-.08-1.83-.03-2.73,.03-.56,.23-1.12,.38-1.67,.04-.14,.2-.36,.31-.36,.52-.03,.56-.4,.69-.77,.1-.3,.29-.57,.44-.85-.02,.31,0,.63-.07,.93-.35,1.66-.55,3.33-.65,5.02-.06,.93-.18,1.88-.41,2.78-.15,.62-.07,1.23,.14,1.71,.31,.73,.21,1.46,.15,2.12-.05,.55,.02,1.09,.02,1.63,0,.33,.29,.74,.57,.98,.49,.42,.64,.97,.57,1.5-.14,.99,.33,1.86,.37,2.8,.02,.47,.12,.94,.21,1.41,.1,.55,.23,1.09,.34,1.63,.04,.19,.15,.4,.1,.57-.27,.93,.3,1.62,.67,2.35,.46,.92,1.02,1.79,1.54,2.67,.69,1.15,1.4,2.27,2.08,3.42,.57,.96,1.12,1.93,1.65,2.91,.57,1.07,1.38,1.88,2.5,2.37,.31,.13,.61,.27,.93,.38,.69,.24,1.31,.55,1.85,1.08,.82,.82,1.98,.98,3.05,1.27,.85,.23,1.78,.27,2.51,.83,.81,.63,1.8,.84,2.67,1.33,.46,.26,.88,.61,1.37,.79,1.84,.7,3.67,.78,5.54-.02,1.07-.46,2.22-.69,3.32-1.09,.67-.24,1.35-.52,1.95-.91,.95-.62,1.81-1.37,2.75-2,.47-.32,1.01-.54,1.54-.75,1.49-.59,2.82-1.41,3.91-2.59,.64-.69,1.22-1.43,1.88-2.09,.66-.66,.97-1.48,1.31-2.3,.02-.05-.01-.13,.02-.16,.89-1.02,1.17-2.45,2.23-3.36,.23-.2,.44-.52,.5-.82,.33-1.67,.62-3.35,.9-5.03,.35-2.09,.7-4.18,1.02-6.27,.09-.57,.08-1.16,.12-1.74,.04-.67,.09-1.33,.14-2,.05-.68-.08-1.3-.4-1.92-.18-.35-.29-.82-.23-1.2,.24-1.54,.16-3.05-.08-4.57-.09-.55-.1-1.11-.09-1.66,.03-1.16-.27-2.26-.54-3.36-.18-.72-.17-1.47-.44-2.19-.17-.45-.03-1.06,.11-1.56,.13-.46,.12-.9,0-1.31-.29-.95-.14-1.9,.12-2.79,.2-.67,.08-1.32-.21-1.74-.46-.66-.48-1.37-.55-2.05-.14-1.36-1-2.28-1.88-3.11-.63-.59-1.55-.86-2.49-.82-.68,.02-1.37,.01-2.05,.04-.28,0-.55,.08-.82,.1-.44,.03-.89,.06-1.33,.07-.36,0-.72-.01-1.07-.01-.22,0-.48,.1-.66,.02-.99-.44-1.9,.03-2.82,.23-.82,.18-1.6-.1-2.39-.04-.92,.07-1.84-.09-2.77,.29-.6,.25-1.37,.12-2.06,.13-.75,.01-1.5,0-2.25,0-.72-.02-1.45-.08-2.17-.08-1.39,0-2.79,.07-4.18,.04-1.48-.04-2.95-.16-4.42-.25-.13,0-.26-.13-.39-.2,.13-.09,.25-.21,.4-.25,.18-.05,.39-.05,.58-.05,1.06,0,2.11,0,3.17,.02,1.28,.02,2.56,.08,3.84,.1,.41,0,.82-.04,1.23-.08,.77-.08,1.55-.15,2.32-.27,.41-.06,.8-.24,1.2-.33,.26-.06,.59-.14,.8-.04,.7,.36,1.43,.13,2.14,.18,.16,.01,.37-.12,.49-.05,1.01,.52,2.09-.07,3.12,.21,.41,.11,.78-.25,1.28-.17,.71,.11,1.46-.07,2.2-.1,.85-.03,1.71-.02,2.56-.05,.6-.02,1.2,.02,1.81-.17,.64-.2,1.36-.2,2.04-.28,.5-.06,1-.09,1.49-.18,.6-.11,1.19-.3,1.82-.16,.22,.05,.49-.07,.72-.16,.27-.11,.44-.07,.5,.22,.27,1.19,.81,2.31,.82,3.56,0,.16,.04,.35,.13,.48,.7,.92,.9,2.02,1.11,3.11,.12,.62,.09,1.28,.17,1.91,.18,1.41,.41,2.81,.56,4.22,.14,1.33,.18,2.66,.27,3.99,.06,.78,.17,1.56,.21,2.34,.06,1.17,.09,2.34,.1,3.52,0,.47-.14,.94-.13,1.41,.02,.75,.12,1.5,.16,2.25,.02,.45,0,.89,0,1.34,0,.64-.07,1.28,0,1.91,.26,2.02,.26,4.05,.17,6.08,0,.16,0,.38-.09,.48-.35,.38-.33,.87-.45,1.33-.35,1.31-.74,2.61-1.11,3.92,0,.03-.02,.05-.03,.08-.2,.44,.09,1-.34,1.4-.11,.1,.48,.33-.04,.54-.35,.14,.2,.32,.08,.53-.19,.3-.34,.64-.58,.9-.23,.25-.28,.4,.03,.57,.25,.14,.26,.29,.13,.55-.18,.34-.33,.69-.46,1.06-.48,1.38-1.23,2.61-2.05,3.81-.19,.28-.32,.59-.52,.86-.47,.62-.95,1.23-1.45,1.82-.18,.21-.45,.34-.6,.56-.35,.52-.75,.92-1.41,.96-.05,0-.13,0-.15,.04-.69,.87-1.71,1.26-2.6,1.83-1.26,.8-2.47,1.7-3.74,2.49-.55,.35-1.25,.47-1.8,.81-1.51,.92-3.26,1.07-4.86,1.7-.35,.14-.67,.39-.95,.65-.99,.94-1.56,2.17-2.19,3.35-.16,.31-.14,.71-.22,1.06-.15,.68-.23,1.4-.5,2.02-.3,.67-.32,1.35-.33,2.04-.03,1.93-.06,3.86-.07,5.78,0,1.5,.02,3,.02,4.5,0,1.95,.05,3.9,0,5.84-.04,1.42-.22,2.83-.29,4.25-.03,.77,.04,1.55,.09,2.32,.07,.96,.16,1.92,.24,2.88,.03,.3,.04,.6,.38,.78,.14,.08,.21,.29,.33,.43,.05,.06,.12,.12,.18,.13,.18,.03,.38,0,.55,.05,1.28,.36,2.56,.71,3.83,1.1,.28,.08,.52,.28,.8,.39,.37,.15,.75,.26,1.12,.4,.31,.12,.6,.26,.9,.38,.23,.09,.46,.18,.69,.26,1.23,.47,2.36,1.03,2.93,2.36,.16,.38,.37,.69,.33,1.12,0,.1,.05,.22,.11,.31,.42,.62,.36,.82,.24,1.44-.17,.87-.71,1.22-1.48,1.31-1.37,.16-2.64,.65-3.94,1.03-.98,.29-2.06,.31-3.14,.05-1.35-.32-2.74-.43-4.12-.59-.46-.05-.97-.07-1.41,.06-1.21,.37-2.44,.21-3.66,.3-.83,.07-1.66,.17-2.49,.23-.38,.03-.84,.16-1.13,0-.64-.36-1.31-.45-2-.56-.68-.11-1.36-.28-2.02-.49-.87-.28-1.71-.63-2.48-1.15-.29-.2-.63-.34-.95-.5-.41-.21-.87-.37-.92-.95-.01-.13-.06-.3-.16-.38-.52-.46-.36-1.04-.24-1.56,.12-.52,.14-1.07,.62-1.51,.33-.3,.54-.49,1.02-.5,.33,0,.84-.03,1.05-.52,.15-.36,.48-.22,.73-.1,.49,.25,.98,.33,1.47,.03,.09-.05,.23-.09,.25-.17,.27-.89,1-.76,1.64-.71,.74,.06,1.49,.16,2.23,.08,.26-.03,.42-.05,.53,.19,.15,.31,.63,.41,.56,.88,0,.04,.25,.17,.38,.16,.19-.01,.37-.13,.55-.16,.12-.02,.33,.02,.35,.08,.17,.46,.58,.83,.47,1.4-.09,.48-.26,.69-.74,.75-.61,.08-1.17-.11-1.69-.39-.98-.53-1.97-.53-3.01-.23-.29,.08-.6,.11-.9,.16-.49,.1-1.15,.91-.92,1.29,.21,.36,.68,.62,1.08,.8,.53,.23,1.11,.34,1.67,.5,.4,.12,.79,.29,1.2,.34,.91,.09,1.83,.12,2.75,.18v-.09Z"/><path class="d" d="M1.61,79.89c.13-.76,.28-1.63,.44-2.5,.06-.35,.13-.7,.22-1.05,.54-1.98,1.12-3.96,1.63-5.95,.25-.96,.38-1.96,.58-2.93,.09-.44,.23-.86,.33-1.29,.18-.8,.33-1.6,.52-2.39,.1-.43,.28-.84,.41-1.26,.12-.42,.42-.58,.82-.53,.37,.04,.86,.57,.84,.92-.02,.27-.11,.54-.21,.8-.33,.93-.69,1.84-.99,2.77-.52,1.59-1.05,3.18-1.5,4.8-.54,1.94-1.23,3.84-1.56,5.83-.15,.92-.49,1.81-.76,2.71-.02,.08-.11,.14-.17,.22-.29-.33-.38-.1-.46,.16-.03,.08-.1,.15-.16,.22,0-.08-.01-.16-.01-.24,0-.06,0-.11,.02-.28Z"/><path class="d" d="M11.6,63.5c-.17,.1-.27,.21-.34,.2-.39-.1-.8-.19-1.16-.36-.19-.09,.09-.26,.5-.19,.19,.03,.38,.03,.57,.08,.13,.04,.25,.14,.44,.26Z"/><path class="d" d="M106.1,22.92c-.04-.44-.11-.87-.12-1.31,0-1.25-.02-2.5,.03-3.75,.05-1.31-.35-2.42-1.32-3.29-.38-.34-.82-.53-1.38-.36-.64,.2-1.22,.05-1.64-.51-.07-.1-.17-.27-.13-.36,.22-.48,.41-.98,.73-1.38,.22-.28,.7-.34,.79-.79,.01-.05,.15-.13,.2-.11,.51,.15,1.07-.45,1.55,.13,.05,.06,.27,.02,.38-.03,.61-.29,1.11-.06,1.59,.31,.2,.15,.38,.34,.6,.44,.46,.22,.96,.23,1.22,.88,.2,.49,.56,.92,.65,1.5,.11,.67,.45,1.3,.45,2,0,.18-.02,.36-.06,.53-.1,.42-.14,.81,.07,1.25,.22,.47,.45,.98,.17,1.54-.07,.14,0,.37,.02,.55,.02,.16,.09,.33,.08,.49-.03,.46-.27,1-.1,1.37,.19,.42,.34,.79,.36,1.25,0,.19,.07,.4,.17,.55,.44,.66,.41,1.44,.52,2.17,.16,1-1.13,2.32-2.12,2.27-.03,0-.06,0-.08,0-.65-.5-1.55-.76-1.89-1.53-.53-1.19-.88-2.46-.74-3.81Z"/><path class="d" d="M84.94,25.98c.08-.19,.13-.56,.33-.79,.6-.71,1.26-1.38,1.9-2.05,.09-.09,.31-.21,.35-.18,.44,.38,.6-.1,.91-.22,.37-.14,.84-.21,1.22-.11,.51,.13,.96,.28,1.49,.05,.21-.09,.54,.04,.79,.15,.1,.04,.19,.3,.15,.42-.06,.22-.06,.53-.42,.54-.31,.01-.61,.05-.92,.05-.93,0-1.83,.16-2.7,.49-.74,.28-1.21,.78-1.29,1.59-.09,.86,.19,1.6,.93,2.01,.62,.34,1.34,.6,2.04,.69,1.55,.19,3.11,.1,4.67-.04,1.51-.14,2.93,.25,3.82,2.03,.05,.09,.14,.24,.21,.23,.6-.03,.77,.56,1.17,.81,.21,.13,.23,.56,.42,.76,.3,.31,.34,.58,.29,1.02-.05,.5,.2,1.03,.3,1.55,.02,.12-.02,.25-.03,.37-.1-.07-.22-.14-.31-.22-.06-.05-.07-.18-.13-.21-.16-.07-.4-.19-.48-.13-.28,.22,0,.29,.16,.4,.08,.06,.13,.16,.19,.24-.09,.03-.19,.04-.27,.09-.46,.31-.89,.07-1.34-.05-.81-.23-1.66-.41-2.32-.94-.5-.41-.92-.92-1.34-1.42-.37-.44-.63-.98-1.02-1.4-.68-.75-1.59-1-2.51-.65-.97,.36-1.94,.09-2.9,.2-.09,.01-.28-.08-.28-.12-.01-.48-.27-.41-.6-.33-.16,.04-.43-.03-.52-.15-.36-.46-.75-.92-.97-1.44-.37-.87-.62-1.78-.91-2.68-.04-.13-.04-.28-.08-.56Z"/></g></g></g></svg>