<?xml version="1.0" encoding="utf-8"?>
<!-- Generator: Adobe Illustrator 26.2.1, SVG Export Plug-In . SVG Version: 6.00 Build 0)  -->
<svg version="1.1" id="Layer_1" xmlns="http://www.w3.org/2000/svg" xmlns:xlink="http://www.w3.org/1999/xlink" x="0px" y="0px"
	 viewBox="0 0 150.9 275.6" style="enable-background:new 0 0 150.9 275.6;" xml:space="preserve">
<style type="text/css">
	.st0{fill:#19122B;}
</style>
<g id="a">
</g>
<g>
	<path class="st0" d="M150.7,229.8L150.7,229.8c-0.6-0.6,0-1.2-0.1-1.8c-0.1-0.4,0.2-0.9,0.2-1.4c0-0.4-0.2-0.9-0.5-1.2
		c-0.4-0.5,1-0.8,0.2-1.4c-0.2-0.1,0.4-1.3,0.3-1.3c-0.7-0.4-0.1-1-0.2-1.5c-0.2-1.2,0.1-2.4,0-3.6c0-0.5,0-1.1,0-1.5
		c0-0.5,0.9-1.3-0.2-1.7c0.9-0.6-0.1-1.2-0.1-1.8c0-0.6,0.8-1.1,0.2-1.7c0.8-0.5-0.8-1.5,0.4-1.8c-0.6-0.5-0.4-1.4-0.1-1.7
		c0.7-0.8-0.8-1.6,0.1-2.2c-0.5-0.3-0.7-0.9-0.4-1.2c0.5-0.6,0.2-1.1-0.1-1.6c-0.3-0.7,0.7-1.2,0.2-1.8c-0.3-0.4,0.7-0.7,0-1.1
		c-0.1,0,0.4-0.8,0.2-1.1c-0.2-0.4-0.5-0.7-0.1-1.2c0.2-0.2-0.2-0.8-0.2-1.1s0.4-1,0.2-1.1c-0.7-0.9,0.4-1.8-0.2-2.6
		c0.8-0.5,0-1.2,0.2-1.7c0.2-0.7-0.7-1.4,0.2-1.9c-0.8-0.7,0-1.4,0-2.1c0.1-0.7-0.3-1.5-0.4-2.2c0-0.3,0.2-0.5,0.3-0.8
		c0.1-0.3,0.2-0.7,0.1-0.9c-0.3-0.7-0.9-1.3-0.1-2c-0.6-0.8-0.5-1.5,0.1-2.2c0.1-0.2,0.1-0.6,0-0.7c-0.6-0.5-0.2-1.2-0.2-1.7
		c0-0.5-0.9-1.2,0.2-1.7c-0.8-0.6-0.4-1.4-0.4-2.2c-0.3-4.5,0.1-9-0.4-13.5c-0.6-5.5-0.5-11.1-0.6-16.6c-0.1-3,0-5.9,0-8.9
		c0-0.5,0.1-1,0-1.4c-0.7-2.2-1-4.4-0.9-6.6c0-1.1-0.3-1.9-0.9-2.7c0.1-0.3,0.4-0.6,0.4-0.8c0-0.7,0-1.4,0-2.2
		c-1.1-0.4,0-1.1-0.2-1.7c-0.4-1-0.6-2-0.7-3.1c-0.2-1.5,0-3.2-0.6-4.6c-0.9-2.1-0.9-4.3-1.3-6.4c-0.4-2.4-1.2-4.7-2.1-6.8
		c-0.8-1.7-2.1-3.1-3.2-4.7c-0.5-0.8-0.8-1.6-1.4-2.3c-1.4-1.6-2.7-3.3-4.3-4.7c-0.9-0.8-1.4-1.9-2.5-2.6c-1.1-0.6-2-1.5-2.9-2.4
		c-0.9-0.9-2.5-1.1-2.7-2.7c-1.7-1.3-2.4-3.4-3.5-5.1c-1-1.4-1.8-3.3-1-5c0.6-1.2,0-1.9-0.2-2.8c1-0.9,0.6-2,0.5-3
		c-0.5-3-0.6-4.6,0-7.8c0.1-0.7,0.1-1.5-0.3-2.3c-0.7-1.4-0.8-3-0.6-4.5c0-0.4,0.3-0.8,0.5-1.2c-0.4-0.4-0.7-0.8-0.9-1
		c-0.3-1.8,0.4-3.6-0.6-5.2c-0.1-0.2-0.1-0.5,0.1-0.7c0.8-0.9,0.6-2.1,0.3-2.9c-0.6-1.7-0.3-3.4-0.4-5.1c-0.1-1.8,0-3.7,0-5.5
		c0-0.5,0-1-0.1-1.4c-0.7-1.9-0.3-3.9-0.2-5.8c0-0.1,0.2-0.2,0.3-0.3c-0.8-0.6-0.7-1.7-0.4-2.2c0.6-1.2,0.3-2.3,0.4-3.4
		c0.1-1.1-0.5-2.1,0-3.2c0.1-0.3-0.2-0.7-0.2-1.1c-0.2-1.6-1.7-2.8-1.2-4.3c-0.5-0.7-0.9-1.3-1-1.5c-1.4-0.7-2.6-1.2-3.9-1.8
		c-2.3,0.2-4.9,0.3-7.5,0.5c-2,0.2-4,0.3-5.5,1.8c-0.3,0.3-0.8,0.4-1,0.5c-1,2.7-1.4,5.3-1.2,7.9c0.1,0.6,0.2,1.2,0.2,1.8
		c0,0.6-0.2,1.3-0.2,1.9c0,0.5,0.3,1,0.5,1.7c-1,0.7-0.7,1.9-0.4,2.7c0.5,1.2,0.3,2.3,0.4,3.4c0,0.9-0.2,1.9-0.2,2.8
		s0.2,1.9,0.2,2.8c0,1.9,0,3.9,0,5.8c0,0.4,0.2,0.9,0.3,1.4c-1.2,0.8,0.3,1.7,0.2,2.6c-0.1,1,0,2.1,0,3.1c0,1,0.3,2-0.4,2.9
		c1.2,1-0.4,1.8-0.1,2.8c0.3,0.9-0.5,2.1,0.4,2.8c-0.1,0.4-0.4,0.7-0.4,1.1c0,1.4,0,2.9,0,4.3c0,1-0.2,1.9-0.3,3
		c0,0.1,0.2,0.2,0.2,0.2c-0.2,1.5,0,3-0.5,4.1c-0.7,1.3,0.5,2.8-0.6,3.7c0.5,1.2,0.5,2.3,0,3c0.1,1.2,0.5,2.2,0.2,2.8
		c-0.9,1.7,0.2,3.6-0.9,5.2c0.3,1.6-0.7,2.7-1.4,4c-0.4,0.6-1.4,1-1,1.8c-0.8,1.3-1.5,2.5-2.3,3.6c-1.8,2.1-3.1,4.5-4.7,6.8
		c-1.8,2.6-3.4,5.5-4.7,8.4c-0.1,0.2-0.3,0.4-0.3,0.6c-0.4,3.4-1.9,6.6-2,10c0,0.9-0.5,1.8-0.8,2.8c0.8,1.2,0.7,2.8,0.2,3.8
		c-0.5,1.3,0.2,2.7-0.8,3.8c0.8,0.8-0.2,1.5,0,2.3s0.1,1.7-0.4,2.5c-0.2,0.3,0.3,1,0.4,1.4c-0.2,0.5-0.4,0.9-0.4,1.3
		c0.3,4.8-0.8,9.5-0.5,14.3c0,0.6,0.2,1.2,0.3,1.8c0.1,1,0.5,2.2,0.1,3c-0.5,1-0.3,1.8-0.4,2.7c0,1.4,0.1,2.8,0.4,4.1
		c0.4,1.8,0.4,3.7,0.5,5.6c0,0.2-0.1,0.6,0,0.7c1,0.8,0.1,1.5,0,2.3c0.2,0.2,0.3,0.5,0.3,0.5c-0.1,0.9-0.4,1.6-0.1,2.2
		c0.3,0.7-0.8,1.3,0,2c0.2,0.2,0.3,0.7,0.3,1.1c0,2.8,0,5.6,0,8.3c-0.3,0.3-0.6,0.6-0.8,0.8c-0.6-0.2-1-0.4-1.4-0.6
		c-2-0.8-4-1.7-6.2-1.9c-2.3-1.4-4.9-0.7-7.4-1.4c-0.9-0.3-2,0.1-3-0.5c-0.3-0.2-1,0.2-1.5,0.4c-1.3-0.8-2.9,0-4.3-0.5
		c-1.6-0.5-2.9-0.4-4.5,0c-1.4,0.3-2.7,0.6-4,0.9c-0.4-0.2-0.7-0.3-1.1-0.5c-0.3,0.4-0.6,0.8-0.8,1.2l-0.5-0.5
		c-0.9,1.1-2.6,0.7-3.4,1.9c-0.8-0.1-1.6,0.1-2.2,0.5c-2.2,1.5-4.9,1.4-7.7,2.1c0,0.1-0.2,0.3-0.3,0.4c-1.8,0.6-3.2,1-4,1.3
		c-0.6,0.8-0.9,1.1-1.1,1.5h-1c-2.1,0.9-3.2,2.5-4.4,3.8c-1.2,1.3-1.9,3-3,4.3c0.3,1.9-1.9,3.2-1.5,4.9c-0.6,0.9-1.1,1.6-1.6,2.3
		c-0.5,0.7-1,1.4-1.5,2c-2.2,2.3-4.7,4.3-6.5,7.2v1.8C5,210.4,3,213.8,3,214.9c-0.1,1.7-1,3.1-1.5,4.7c-0.1,0.4-0.3,0.8-0.4,1.3
		c-0.3,1.1-0.6,2.3-0.9,3.4c0.2,0.4,0.4,0.7,0.4,1.1c0,2,0.1,4,0,6c-0.1,1.9,0.5,3.9-0.5,5.8c-0.1,0.2-0.1,0.6,0,0.7
		c0.8,0.6,0.5,1.5,0.4,2.2c-0.3,2.7,0.5,5.3,0.5,8c0,0.2,0,0.3,0.1,0.5c0.6,1.4,0.9,2.9,0.9,4.2c1,1.4,2,2.6,2.8,3.9
		c0.9,1.3,1,3.1,2.5,3.9c-0.1,0.8,0.1,1.6-0.2,2c-1.4,2.1-1.4,4.4-1.1,6.6c0.5,2.5,1.8,4.3,3.7,5.3c1.5,0.5,2.8,0.8,4.1,1.2
		c0.1-0.1,0.4-0.3,0.6-0.4c0.5,0.2,1,0.5,1.5,0.5c2.2-0.1,4.4-0.3,6.5-0.5c0.8-0.9,1.9-0.1,2.7-0.5c0.9-0.5,1.8-0.3,2.4-0.4
		c0.9-0.4,1.5-0.9,2.1-1c2-0.2,4-0.4,6.1-0.5c1.4-0.1,2.8-0.1,4.2-0.4c1.8-0.4,3.7-0.2,5.6-0.5c1.6-0.3,3.3-0.4,4.9,0.2
		c1.6,0.6,3.4-0.4,5,0.6c0.2,0.1,0.8,0.1,0.9-0.1c0.5-0.6,1.2-0.3,1.8-0.4c0.5-0.1,1-0.1,1.3-0.3c1.2-0.7,2.6-1.2,4-1.5
		c1.4-0.3,2.9-0.5,4.3-0.6c0.7,0,1.5,0.4,2.2,0.4c1.6,0.1,3.2,0,4.4,0c1.5-0.9,2.7-1.4,3.9-2c1.3-0.6,2.5-1.5,4.2-2.5h0.4
		c1-1,1.9-2,2.8-2.8c1-0.8,1.5-2.1,2.8-2.4c0.4-1.2,1.6-1.9,2.4-2.9c0.8-0.9,1.6-1.9,2.4-2.9c0.8-1,1.5-2,2.3-2.9
		c0.5,0,0.9-0.1,1.3,0c1.8,0.3,3.6,0.5,5.3,1.2c1,0.4,2.1,0.1,3.1,0.7c1.4,0.8,3.2,0.6,4.8,0.6c1.3,0,2.6,0.1,3.9,0
		c3.4-0.2,6.8,0.3,10.2,0.5c0.2,0,0.5,0,0.7,0.1c2,0.8,4.1,0.2,6.1,0.4c0.7-1,1.9-0.2,2.8-0.7c0.8-0.4,2-0.3,3-0.2
		c0.9,0,1.7-0.4,2.6-0.3c0-0.2,0.1-0.4,0.2-0.8c0.6,0.1,1,0.2,1.6,0.4c0.2-0.1,0.4-0.2,0.6-0.3c0.8-0.5,2-0.7,2.5-1.4
		c0.6-0.8,1.9-1,1.9-2.3c1.3-0.4,1.1-1.8,1.8-2.6c0.7-0.8,1-2,1.5-3c0.6-1,0.6-2.2,0.9-3.2c0.2-0.7,0-1.6,0-2.4v-2.4
		c0-0.7,0-1.5,0-2.2c0.1-0.8-0.4-1.7,0.3-2.3C151.4,231.1,150,230.4,150.7,229.8z M96.4,247.9L96.4,247.9c-0.6,0.7-1.3,1.4-1.7,2.2
		c-0.8,1.9-2.1,3.4-3.9,4.3c-1.9,1-2.7,2.9-4.1,4.3c-1,1.1-1.9,2.3-3.1,3.3c-1.2,1-2.6,1.7-4,2.5c-0.2,0.1-0.5,0.1-0.6,0.2
		c-0.8,1.9-2.6,1.7-4.1,2.2c-1,0.3-2.1,0.5-3.1,0.7c-0.3,0.1-0.6,0.2-0.8,0.3c-0.7,0-1.3,0-2-0.4c-0.5-0.2-1.3,0.3-1.9,0.4
		c-0.5,0-1.1-0.2-1.5-0.5c-1.4-1-2.5,0-3.7,0.6c-0.9,0.5-1.8,1.2-2.8,1.3c-1.1,0.2-2.2,0.8-3.4,0.5c-1-0.2-2.2,0.3-3.2-0.3
		c-0.5-0.3-1.2-0.1-1.8-0.2c-2.6-0.2-5.2,0.3-7.8,0.5c-2.6,0.1-5.3-0.1-7.9,0.1c-1.2,0.1-2.5,0.4-3.7,0.8c-2,0.6-4.1,1.3-6.3,1.1
		c-0.8-0.1-1.6,0-2.4,0c-0.4,1-1.5-0.8-1.8,0.4c-0.8,0-1.6,0.1-2.4,0.1c-2.5,0-4.8-0.5-6.9-1.9c-2.1-1.3-3.2-3.9-2-5.9
		c0.4-0.8,0.1-2,1.3-2.3c1.2,0.5,2.4,1.1,3.6,1.6c0.1-0.1,0.2-0.2,0.2-0.3c0.8,1.1,1.6,2.2,2.5,3.5c0.8-0.2,1.2-1.2,2-1.7v-1.5
		c-0.5-1.9-1.8-2.5-3-3.1c-2.5-1.2-5-2.4-7.4-3.5c-0.9-1.6-1.5-3.4-2.7-4.9c-1.1-1.4-1.3-3-1.9-4.5c-0.8-2.2-0.4-4.5-0.5-6.8
		c0-1.6,0.2-3.3-0.1-4.8c-0.9-4.4-0.2-8.9-0.4-13.3c-0.1-2.2,0.6-4.2,1.4-6.1c0.7-1.6,1.8-3,2-5c0.1-0.9,1.1-1.8,1.6-2.7
		c0.9-1.5,2.1-2.8,3.1-4.2c1.1-1.5,2.3-2.9,3.5-4.4c1.6-2.1,3.2-4.3,4.6-6.5c0.6-1,0.8-2.2,1.3-3.7c0.8-0.8,2-1.9,3.1-3.1
		c0.4-0.4,0.8-1,1-1.5c1-2.2,2.9-2.9,5-3c1.3-0.1,2.4-0.6,3.6-0.6c1.3,0.1,2.6,0.1,3.9,0c0.7,0,1.3-0.2,2-0.5
		c1.2-0.4,2.4-0.9,3.5-1.4c2.1-1.1,4.2-1.9,6.7-2c0.7,0,1.4-0.5,2.1-0.8c0.3,0.1,0.6,0.4,0.6,0.3c0.8-0.6,1.8-0.4,2.7-0.5
		c1.5-0.1,3.1-0.4,4.6-0.5c1.5-0.1,3,0,4.6,0h1.6c0.9,0.8,1.8,1.6,2.8,2.4c0.6,0,1.2,0.2,1.9,0.4c3.6,0.9,7,2.1,10.4,3.4
		c0.7,0.3,1.5,0.2,2.2,0.5c1.1,0.4,1.9,0.7,2.6,1.8c0.7,1.1,2.1,1.8,3.2,2.6c1,0.8,2.1,1.5,3.1,2.4c1.4,1.2,2.7,2.5,4.3,3.5
		c0.9,0.5,1.6,1.7,2.2,2.7c0.4,0.6,0.4,1.4,0.7,2.5c1.3,1,1.8,2.8,2.2,4.7c0.4,1.8,1,3.6,1.6,5.4c0.9,2.7,1.5,5.5,2.7,8
		c-0.3,1.3,0.5,2.4,0.5,3.7c0,0.9,0.3,1.8,0.4,2.7c0.3,2.6-0.6,5-1.2,7.4c-0.3,1.1-0.5,2.2-0.7,3.3c-0.4,2.5-1.5,4.9-2.9,7
		c-0.6,1-1.5,1.8-2.2,2.7c-0.5,0.7-1.2,1.3-1.5,2C97.7,246.8,96.9,247.3,96.4,247.9z M89.6,177.7c0.2-0.3,0-0.8,0-1.2v-6.7
		c0-1.9-0.1-3.9,0-5.8c0.1-1.9,0.4-3.7,0.6-5.8c0.2-0.2,0.7-0.5,1.3-1c1.4-0.5,3.2-0.4,4.9-1.2c1.2-0.6,2.7-0.5,4-0.7
		c0.5,0,1.2,0.5,1.4,0.3c0.5-0.4,1-0.4,1.6-0.4c9.7,0,19.4-0.1,29.1,0c1.9,0,3.8,0.5,5.5,1.1c1,0.4,1.9-0.1,3.1,0.6
		c0.1,0,0.2,0.2,0.4,0.4c-0.2,0.2-0.3,0.3-0.5,0.5c0.2,0.6,0.4,1.1,0.5,1.7c0.1,1.8-0.3,3.6,0.1,5.3c0.5,1.8,0.3,3.4,0.4,5.1
		c0.1,1.8,0,3.5,0,5.3c0.1,1.2-0.3,2.5,0.3,3.7c0.5,1.1-0.1,2.4,0.5,3.6c0.4,0.8,0,2.1,0.1,3.1c0.2,2.1-0.5,4.3,0.4,6.3
		c-0.7,0.7-0.6,1.7-0.4,2.4c0.2,0.6,0,1.2,0.4,1.9c0.2,0.4,0.2,1.3-0.1,1.6c-0.6,0.7-0.3,1.4-0.3,2c0,2.1,0,4.2,0,6.3
		c0,1,0.2,2-0.3,2.9c0.8,0.5-0.5,0.8-0.2,1.4c0.3,0.3,0.5,0.8,0.5,1.2c-0.1,1,0.2,2-0.3,3c-0.4,0.7-0.1,1.7-0.2,2.6
		c-0.1,1.3,0.4,2.7-0.5,3.9c-0.1,0.1-0.1,0.3,0,0.5c0.8,2.2-0.4,4.4,0,6.6c0.3,1.9-0.3,3.7-0.6,5.6c-0.3,2-1.4,3.8-2.7,5.4
		c-0.7,0.9-1.9,1.3-2.9,1.8c-1.9,1-3.7,2.2-5.9,2.7c-0.3,0.1-0.6,0.3-0.8,0.3c-2,0.2-4.1,0.1-6,0.5c-2.8,0.7-5.5,0.5-8.2,0.4
		c-3.8-0.1-7.6-0.5-10.9-2.6c1.7-3.7,2.1-4,1.9-5.8c0.3-0.2,0.7-0.5,1.1-0.8c-0.2-0.2-0.3-0.3-0.5-0.5c0.8-1.4,1-3,1.4-4.6
		c0.4-1.7,0.5-3.4,0.5-5.1c0-0.8,0.7-1.4,0.5-2.2c-0.7-2.3-0.4-4.8-1.4-7.1c-0.5-1.2-0.6-2.6-1-3.9c-0.2-0.6-0.3-1.5-1.3-1.6
		c0.1-0.5,0.3-1.1,0.4-1.7c-0.4-0.1-0.6-0.1-0.9-0.2c0.1-0.6,0.2-1.3,0.4-2c-1.7-1.7-1.4-4.3-3-6c0.3-1.8-0.4-3.3-1.1-5
		c-0.3-0.8-0.3-1.8-0.4-2.7c1.2-0.3,1.4-1.6,2.4-2c0.9-0.3,1.5-1.4,2.2-2.1h1.2c0,1.1-0.1,2.2,0,3.3c0.2,1,0.7,2,0.9,3
		c0.2,1,0,2,0.5,3c0.4,0.9,0.5,2.1,0.7,3.2c0.6,1.4,1.2,2.8,1.8,4.3c0,0,0,0.1,0.1,0.1c2.4,1.6,4.3,3.8,7.6,5.4
		c1.1,0.2,3.1,0.5,5.1,1.1c0.6,0.2,1.2,0.2,1.8,0.3c1.4,0.1,2.7-0.1,4.2,0.4c1,0.3,2.4,0,3.4-0.5c1.2-0.6,2.3-0.3,3.6-0.5
		c1.1-0.5,2.1-1.5,3.6-1.4c0.3,0,0.7-0.5,1.2-0.9c-0.5-0.4-0.7-0.9-1.1-1c-2-0.6-3.6-1.8-5.4-2.7c-1.6-0.7-2.8-1.9-3.5-3.5
		c-0.7-1.5-1.2-3-1.3-4.8c-0.2-2.5-1-4.9-2.6-6.9c-1.1-1.4-2.2-2.7-3.2-3.9c-1.9,0-3.1-1.1-4.7-1.9c-1,0-2.2-0.2-3.4,0.1
		c-1.1,0.2-2.3,0.1-3.2,0.9c-1.6-0.2-3.1,0.4-4.7-0.3c-0.5-0.2-1.2-0.2-2-0.3c0.4-0.7,0.8-1.3,1.2-1.8c1.7-2.5,3.3-5.1,5-7.6
		c0.3-0.5,0.8-0.8,1.2-1.2c1.8-1.7,2.9-3.7,3.5-6.2c-2-2.5-4.7-4-7.3-5.8c-0.7,0.6-1.4,1.2-2.4,2c0,0,0.1,0.3,0,0.5
		c-1.4,2.7-1.9,5.6-3.2,8.3c-0.7,1.5-1,3.2-0.6,5c0.9-0.8,1.2-1.4,1.8-3.3c0.4-1.3,0.9-2.5,1.5-3.7c0.6-1.2,1-2.5,1.2-3.9
		c2.3-0.3,3.7,0.8,5,2.1v1.4c-1,0.9-2.3,1.6-3,2.7c-0.7,1.2-2,1.8-2.3,3.1c-2.9,2.7-3.8,6.6-5.8,9.9c-0.5,0.8-0.8,1.6-1.2,2.4
		c-0.6,1.5-1.7,2.1-3.1,2c-1.7-0.6-2.7-2.1-4.2-3c-1.6-1-2.5-2.7-3.6-4.3c-0.3-0.5-0.6-1-0.5-1.7C89.3,180.8,88.8,179.2,89.6,177.7z
		 M148.9,203.2L148.9,203.2c0,2.3,0,4.7,0,7c0,1.1-0.1,2.2-1,3c0,6.8,0,13.7,0,20.6c0,0.7,0.4,1.3,0.5,2c0.2,1.7-0.2,3.4-0.6,5
		c-0.4,1.4-0.7,2.8-1.1,4.8c-0.9,1.9-2.9,3.4-5.2,4.5c-0.6,0.3-1.3,0.1-1.8,0.4c-0.6,0.3-1.2,0.7-1.8,0.8c-0.5,0.1-1-0.8-1.5,0.1
		c-2-1.3-4,0.4-6.1,0.1c-2.1-0.3-4.3-0.1-6.5-0.1h-6.5c-2.2,0-4.3,0-6.5,0c-0.8,0-1.6,0.1-2.5-0.4c-0.7-0.3-1.8-0.1-2.7,0.2
		c-1.1,0.3-2.4,0.1-3.7,0c-0.7,0-1.4-0.2-2.4-0.4c-0.1-0.1-0.4-0.6-0.7-1.1c-1-2.2,1.4-2.8,2.4-4.4c0.3-0.1,0.9-0.3,1.5-0.5
		c0.7,0.3,2.1,0.4,3.1,0.5c1.2,0.2,2.4,0.6,3.6,0.9c0.3,0.1,0.5,0.4,0.8,0.3c2.5-0.1,5,0.8,7.5,0.5c1.4-0.1,2.9,0,4.3,0
		c1.6,0,3-0.6,4.5-0.8c1.3-0.2,2.6-0.2,3.8-0.6c1-0.3,2.1-0.4,2.9-1.2c0.3-0.3,0.7-0.8,1.5-0.4c0.3,0.2,1.1-0.2,1.6-0.4
		c1.5-0.5,3-1.2,4-2.5c0.2-0.3,0.4-0.5,0.7-0.7c0.2,0.1,0.3,0.3,0.6,0.5c1-0.5,2-1.1,2.6-2.4c-0.4-4.1,0.8-8.4,0.4-12.6
		c-0.1-0.8,0.4-1.8-0.3-2.5c1-0.7-0.3-1.7,0.3-2.5c0.2-0.2,0.2-0.7,0-0.9c-0.6-0.7-0.6-1.3,0-2.1c0.2-0.3-0.1-1-0.2-1.6
		c0.2-0.6,0.5-1.4,0.8-2.2c-0.3-0.2-0.6-0.3-1-0.5c0.4-0.2,0.7-0.3,1-0.5c-0.4-0.2-0.7-0.3-1.2-0.5c0.3-0.5,0.7-0.9,1-1.4
		c-0.2-0.4-0.5-1-0.8-1.5c0.1-0.1,0.2-0.3,0.4-0.5c-0.1-0.1-0.2-0.2-0.4-0.4c0.1-0.1,0.2-0.3,0.4-0.5c-0.1-0.1-0.2-0.3-0.3-0.5
		c0.1-0.6,0.3-1.2,0.4-1.9c0.1-0.7,0.3-1.3,0.4-2c-0.1-0.1-0.3-0.3-0.3-0.3c0.1-0.5,0.3-0.9,0.3-1.4c0-6.5,0-13,0-19.5
		c0.6-0.6-0.8-1.1-0.1-1.9c0.3-0.3-0.2-1.2-0.3-1.9c-0.1-0.7,0.3-1.4-0.4-2c-0.1-0.1-0.1-0.5,0-0.7c0.3-2.1-0.5-4.2-0.5-6.3
		c0-2.1,0-4.2,0-6.3v-8.5c-1-0.7-1.8-1.1-2.9-1.2c-1.6,0-3-0.8-4.6-1c-0.8-0.1-1.6-0.8-2.4-1.3c-2.1-0.3-4.3,0.4-6.3-0.4
		c-1.4,0.2-2.6,0.4-4.2,0.7c-1.5-0.7-3.5-0.3-5.4-0.2c-0.5,0.7-1.2,0.4-1.8,0.4c-3.6,0-7.2,0-10.8,0c-0.6,0-1.2,0.2-1.8-0.4
		c-0.6-0.7-1.3,0.9-2,0c-1.5,1.1-3.1,0.1-4.9,0.6c-1,1.1-2.6,0.8-4.2,0.8c-0.3,0.4-0.5,0.9-0.9,1.4c-1.2,0-2.6-0.1-3.6,1.1
		c-0.2,1.5-0.5,3.1-0.6,4.7c-0.1,1.6,0,3.2,0,4.8c0,0.6,0,1.2,0.4,1.8c0.3,0.5-0.1,1.3,0.1,1.9c0.2,0.5-1,0.9-0.1,1.3
		c-0.9,1.5,0.1,3.4-0.9,4.9c-0.1,0.2-0.1,0.5,0,0.7c1,2,0.4,3.9-0.3,5.9c-1.3-0.8-2.6-1.5-4.1-2.4c0-0.5-0.1-1.4,0-2.1
		c0.3-1.7-0.6-3.2-0.5-4.9c0.1-1.7,0-3.4,0-5.1c0-0.3-0.3-0.7-0.5-1.1c0.8-1.1,0.7-2.6,0.4-3.8c-0.4-1.4-0.3-2.8-0.4-4.2
		c-0.1-1.2,0.1-2.4-0.4-3.7c-0.3-0.7-0.4-1.8,0.3-2.7c0.2-0.3-0.3-1,0-1.7c0.2-0.5,0.4-1.4-0.3-2c-0.1-0.1-0.1-0.3-0.1-0.4
		c0-0.8,0-1.6,0-2.4c0.4-0.5,0.7-1,1.2-1.6c-0.7-0.1-1.1-0.2-1.9-0.4c0.5-0.2,0.8-0.3,1.2-0.5c0-0.3,0.1-0.8-0.1-1.1
		c-0.2-0.4-0.8-0.8-0.7-1c0.2-0.8-0.5-1.4-0.2-2.1c0.2-0.5,0.5-1.1,0.8-1.7c-0.6-1.5-0.5-3-0.1-4.6c0.1-0.3,0.2-0.6,0.2-0.9
		c-0.1-4,0.8-7.9,0.5-11.8c-0.1-1,0-2.1,0-3.1c0-0.9-0.3-1.9,0.1-2.6c0.5-0.9,0.2-1.7,0.4-2.5c0.2-0.8,0.6-1.5,0.8-2.3
		c0.1-0.4,0.1-0.8,0.1-1.2c0.1-2,0.1-1.9,1.4-4.7c0.2-0.5,0.4-1.1,0.6-1.7c0.5-1.5,1.1-3,2.1-4.2c1.1-1.2,1.6-2.8,2.4-4.1
		c1.2-1.9,2.5-3.6,3.7-5.4c1.1-1.8,1.9-3.8,3.4-5.4c0.2-0.2,0.2-0.6,0.4-0.8c0.3-0.4,0.7-0.7,1-1.1c0.2-1.5,0.4-3,0.6-4.5
		c0.1-0.4,0.3-0.9,0.3-1.3c0.2-1.9,0.1-3.9,0.6-5.8c0.5-2.1,0.4-4.4,1.4-6.4c-0.3-2.2,0.6-4.4-0.4-6.6c-0.2-0.3-0.2-0.9,0-1.2
		c0.8-1.5,0.3-3.1,0.5-4.6c0.2-1.9-0.5-3.9,0.5-5.8c-1-0.9-0.2-1.8,0-2.8c0.1-0.5-0.2-1.2-0.3-2c0,0,0.2-0.4,0.4-0.8
		c-0.2-0.2-0.3-0.5-0.4-0.6c0.1-0.5,0.5-1.1,0.3-1.3c-1-1.4,0.1-3.1-0.9-4.4c-0.4-0.5,0.7-0.8,0.2-1.4c0.4-1.2-0.6-2.3-0.2-3.4
		c0.4-1.2-0.1-2.3,0-3.5c0.1-1.3,0.3-2.7,0-3.8c-0.8-2.7-0.2-5.5-0.4-8.2c-0.1-1.2-0.4-2.3-0.5-3.4c0-2,0.6-3.8,2-4.9
		c0.9-0.3,1.5-0.5,2.2-0.6c0.6-0.1,1.2,0.2,1.8-0.4c0.3-0.2,0.9-0.1,1.4-0.1c2,0,4,0,6,0c2.7,0,4.4,1.3,4.9,3.8
		c0.2,1.2,0.9,2.4,0.6,3.6c-0.2,0.7,0.2,1.4,0.3,2.2c0.1,1,0.3,1.9-0.1,2.9c-0.1,0.3-0.2,0.6-0.2,0.9c0,2.8,0,5.6,0,8.4
		c0,0.4,0.3,0.8,0.4,1.3c-0.9,1.6-0.2,3.4-0.5,5c0.2,0.3,0.4,0.5,0.6,0.8c-0.2,0.3-0.4,0.6-0.7,0.9c0.2,0.3,0.4,0.6,0.6,0.9
		c-0.2,0.7-1,1.4-0.1,2.3c0.2,0.2,0,0.9,0,1.4c0,2.7,0,5.5,0,8.2c0,0.6,0.2,1.2,0.4,1.8c-0.6,0.7-0.7,1.8-0.3,2.6
		c0.7,1.3,0.2,2.6,0.3,3.9c-0.8,0.5,0.6,1.1-0.2,1.7c-0.7,0.5,0.3,1.3,0.2,1.8c-0.1,1.7,0.6,3.5-0.4,5.1c-0.2,0.3-0.1,0.8,0,1.2
		c0,0.6,0.2,1.2,0.2,1.9c0,0.7-0.1,1.4-0.2,2.1c-0.4,2.7,0.9,5.1,1.7,7.5c0.4,1.2,1.4,2.1,2.2,3.2c0.2,0.3,0.4,0.6,0.7,1.1
		c1.6,0.9,3.6,1.8,4.7,3.8c1.6,0.6,2.4,2,3.5,3.1c1.6,1.5,2.8,3.3,4.1,5c0.6,0.8,0.7,2,1.7,2.7c0.8,0.6,1.5,1.6,2,2.5
		c1.5,2.6,2.9,5.3,3.1,8.4c0,0.7,0.1,1.6,0.5,2.2c0.5,0.8,0.4,1.6,0.4,2.2c0.7,1.2,1.2,2.1,1.8,3.1c-0.5,0.8,0.4,1.4,0.1,2.2
		c-0.1,0.2,0,0.5,0,0.7c0.2,1.6-0.4,3.2,0.3,4.7c0.6,1.4,0,2.9,0.6,4.3c0.6,1.6,0.3,3.5,0.6,5.3c0.9,6.7,0.2,13.4,0.5,20
		c0.9,3.3,0.4,6.6,0.5,9.9c0.1,3.4,0,6.7,0,10.1c0.1,3.8,0.6,7.6,0.5,11.4c-0.1,3.9,0,7.7-0.1,11.6c0,0.6,0.8,1.2,0,1.8
		c0.9,0.6-0.3,1.1,0,1.8C149.3,198.5,148.8,200.9,148.9,203.2z"/>
	<path class="st0" d="M72,261.3c-1.6,1.7-1.9,2.7-1.3,5.3c1-0.2,1.9-0.5,2.6-0.6l0,0l2.5-2.5c-0.2-0.8-0.4-1.8-0.7-2.9
		C74,261.6,72.9,260.9,72,261.3z"/>
	<path class="st0" d="M82.3,188.7c0.2-0.2,0.1-0.7,0.1-1c-1.9-1.9-4.1-1-5.6-1.2l-1.8,1.2l0,0l1,1.7c1.6,1.1,3,0.7,4.4,0.4
		C81.1,189.7,81.7,189.2,82.3,188.7z"/>
	<path class="st0" d="M14,230.1c-1.6-0.8-3.1-2-4.9-0.1l2,2c-0.1,0.1-0.3,0.3-0.4,0.6c-0.2,0.3-0.3,0.6-0.4,1.1l1.7,1
		c0.7-1,1.8-0.1,2.4-0.6C16.1,232.5,14.2,231.4,14,230.1L14,230.1z"/>
	<path class="st0" d="M18.8,221.4c-0.8,1.4-1.9,2.7-1.3,4.6c1.5,0,2.9-0.4,4.5-1.4l0.7-2v0c-0.5-0.6-0.9-1.2-1.4-1.9
		C20.5,220.9,19.7,221.1,18.8,221.4z"/>
	<path class="st0" d="M71.3,184.7L71.3,184.7c-2.6-0.5-4.6,0.5-6.8,1.6c0.1,0.4,0.1,1,0.4,1.2c1.1,0.8,2.4,1.1,3.4,1
		c1.2-1.1,2.1-1.9,3-2.7L71.3,184.7z"/>
	<path class="st0" d="M90,247.3l-0.5-0.5c-1.5,1.3-3.7,2.1-3.7,4.6l1.1,0.6c0.9-0.3,1.7-0.7,2.8-1.1h0c0.9-0.9,2.3-2,1.7-4.2
		L90,247.3z"/>
	<path class="st0" d="M12,217.6L12,217.6l-1-1.2H8.8L7.9,220l1.2,1.7C10.7,220.8,12.4,220,12,217.6z"/>
	<path class="st0" d="M79.1,259v1.7h2.2c0.7-0.5,1.4-1,2.1-1.5v-2l-0.7-1.4C81.2,256.6,79.5,256.8,79.1,259z"/>
	<path class="st0" d="M35.3,111.6c-1.2,0.1-2.3,0.3-3.5,0.3c-1,0.1-2.1,0-3.1,0c-1.9,0.1-3.9,0.1-5.8,0c-0.9,0-1.8-0.2-2.6-0.2
		c-0.7,0-1.4-0.1-2.1-0.4c-0.4-0.1-0.8,0-1.1,0c-0.4,0-0.7,0.1-1.1,0c-0.6-0.1-1.3,0-1.9,0c-0.1,0-0.2,0.1-0.2,0
		c-0.5-0.4-1.2-0.1-1.7-0.5c-0.4-0.3-1,0-1,0.5c-0.1,0.6-0.3,1.3-0.1,1.9c-0.3,0.7,0.1,1.4,0,2.1c0,0.1,0,0.2,0,0.3
		c0.2,0.8,0.5,1.5,0.7,2.3c0,0.2,0,0.4,0.1,0.5c0.1,0.3,0.1,0.6,0.2,0.8c0.3,0.4,0.4,0.9,0.6,1.4c0.3,0.7,0.5,1.5,1.1,2
		c0.1,0.1,0.3,0.3,0.3,0.4c0.2,0.5,0.5,0.9,0.8,1.3c0.6,0.6,1.1,1.3,1.7,2c0.7,0.8,1.6,1.4,2.5,1.7c0.7,0.3,1.3,0.6,2,0.9
		c0.9,0.3,1.8,0.7,2.8,1c0.3,0.1,0.7,0.2,1,0.3c0.5,0.1,1,0.2,1.5,0.2c0.5,0,1,0,1.6,0l0,0c0.3,0,0.7,0,1,0c0.9,0.1,1.7-0.2,2.5-0.4
		c0.1,0,0.3-0.2,0.4-0.3c0.8-0.9,1.8-1.2,2.8-1.6c0.5-0.2,0.9-0.5,1.4-0.7c0.4-0.2,0.8-0.3,1.2-0.5c0.3-0.2,0.6-0.4,0.8-0.6
		c0.7-0.4,1.3-0.8,2-1.2c0.5-0.3,1-0.8,1.4-1.3c0.3-0.4,0.6-0.7,0.9-1c0-0.1,0.1-0.1,0.1-0.2c0.5-0.8,1.2-1.3,1.6-2.2
		c0.1-0.2,0.3-0.5,0.5-0.7c0.6-0.6,0.8-1.4,1.2-2.1c0,0,0,0,0-0.1c0.1-0.8,0.3-1.7,0.4-2.5c0-0.6,0.1-1.2,0.3-1.8
		c0.1-0.3,0-0.6,0-0.9c0-0.1-0.1-0.2-0.2-0.3c-0.3-0.1-0.4-0.4-0.6-0.6c-0.3-0.4-0.6-0.5-1.2-0.5c-0.7,0.1-1.5,0-2.2,0
		c-0.2,0-0.4,0-0.6,0.1c-0.6,0.2-1.1,0.1-1.7,0c-0.9-0.2-1.8-0.2-2.7-0.1C36.9,111.5,36.1,111.5,35.3,111.6z"/>
	<path class="st0" d="M7.8,113.4c0,0.1,0,0.3,0.1,0.4c0.3,0.3,0.3,0.7,0.4,1.1c0.3,1.1,0.6,2.1,0.9,3.2c0,0,0,0,0,0.1
		c0.2,0.4-0.1,0.8,0.3,1.1c0.1,0.1-0.4,0.3,0,0.4c0.3,0.1-0.2,0.3-0.1,0.4c0.2,0.2,0.3,0.5,0.5,0.7c0.2,0.2,0.2,0.3,0,0.5
		c-0.2,0.1-0.2,0.2-0.1,0.4c0.2,0.3,0.3,0.6,0.4,0.9c0.4,1.1,1,2.1,1.7,3.1c0.2,0.2,0.3,0.5,0.4,0.7c0.4,0.5,0.8,1,1.2,1.5
		c0.1,0.2,0.4,0.3,0.5,0.5c0.3,0.4,0.6,0.8,1.1,0.8c0,0,0.1,0,0.1,0c0.6,0.7,1.4,1,2.1,1.5c1,0.6,2,1.4,3,2c0.5,0.3,1,0.4,1.5,0.7
		c1.2,0.8,2.7,0.9,4,1.4c0.3,0.1,0.5,0.3,0.8,0.5c0.8,0.8,1.3,1.8,1.8,2.7c0.1,0.2,0.1,0.6,0.2,0.9c0.1,0.5,0.2,1.1,0.4,1.6
		c0.2,0.5,0.3,1.1,0.3,1.7c0,1.6,0.1,3.1,0.1,4.7c0,1.2,0,2.4,0,3.7c0,1.6,0,3.2,0,4.8c0,1.1,0.2,2.3,0.2,3.4c0,0.6,0,1.3-0.1,1.9
		c0,0.8-0.1,1.6-0.2,2.3c0,0.2,0,0.5-0.3,0.6c-0.1,0.1-0.2,0.2-0.3,0.4c0,0-0.1,0.1-0.2,0.1c-0.1,0-0.3,0-0.5,0
		c-1,0.3-2.1,0.6-3.1,0.9c-0.2,0.1-0.4,0.2-0.6,0.3c-0.3,0.1-0.6,0.2-0.9,0.3c-0.2,0.1-0.5,0.2-0.7,0.3c-0.2,0.1-0.4,0.1-0.6,0.2
		c-1,0.4-1.9,0.8-2.4,1.9c-0.1,0.3-0.3,0.6-0.3,0.9c0,0.1,0,0.2-0.1,0.2c-0.3,0.5-0.3,0.7-0.2,1.2c0.1,0.7,0.6,1,1.2,1.1
		c1.1,0.1,2.1,0.5,3.2,0.8c0.8,0.2,1.7,0.2,2.5,0c1.1-0.3,2.2-0.3,3.4-0.5c0.4,0,0.8-0.1,1.1,0c1,0.3,2,0.2,3,0.2
		c0.7,0.1,1.3,0.1,2,0.2c0.3,0,0.7,0.1,0.9,0c0.5-0.3,1.1-0.4,1.6-0.4c0.6-0.1,1.1-0.2,1.6-0.4c0.7-0.2,1.4-0.5,2-0.9
		c0.2-0.2,0.5-0.3,0.8-0.4c0.3-0.2,0.7-0.3,0.7-0.8c0-0.1,0.1-0.2,0.1-0.3c0.4-0.4,0.3-0.8,0.2-1.3c-0.1-0.4-0.1-0.9-0.5-1.2
		c-0.3-0.2-0.4-0.4-0.8-0.4c-0.3,0-0.7,0-0.9-0.4c-0.1-0.3-0.4-0.2-0.6-0.1c-0.4,0.2-0.8,0.3-1.2,0c-0.1,0-0.2-0.1-0.2-0.1
		c-0.2-0.7-0.8-0.6-1.3-0.6c-0.6,0.1-1.2,0.1-1.8,0.1c-0.2,0-0.3,0-0.4,0.2c-0.1,0.2-0.5,0.3-0.5,0.7c0,0-0.2,0.1-0.3,0.1
		c-0.2,0-0.3-0.1-0.5-0.1c-0.1,0-0.3,0-0.3,0.1c-0.1,0.4-0.5,0.7-0.4,1.1c0.1,0.4,0.2,0.6,0.6,0.6c0.5,0.1,1-0.1,1.4-0.3
		c0.8-0.4,1.6-0.4,2.4-0.2c0.2,0.1,0.5,0.1,0.7,0.1c0.4,0.1,0.9,0.7,0.8,1.1c-0.2,0.3-0.5,0.5-0.9,0.6c-0.4,0.2-0.9,0.3-1.3,0.4
		c-0.3,0.1-0.7,0.2-1,0.3c-0.7,0.1-1.5,0.1-2.2,0.1v-0.1l0.1-0.1c-1.7,0-3.4-0.1-5.1-0.2c-0.7,0-1.4-0.1-2,0c-0.3,0-0.6,0-0.9-0.1
		c-0.3-0.1-0.7,0-1,0c-0.2,0-0.5,0-0.7,0c-0.5,0.1-1,0.1-1.5-0.1c-0.2-0.1-0.4,0-0.6-0.1c-0.2,0-0.4-0.1-0.6-0.2
		c-0.3-0.2-0.3-0.4,0-0.7c0,0,0.1-0.1,0.2-0.1c1.2-0.7,2.4-1.5,3.9-1.7c0.5,0,1-0.4,1.6-0.3c0.1,0,0.2-0.1,0.3-0.2
		c0.3-0.3,0.5-0.5,0.8-0.8c0.1-0.2,0.3-0.2,0.5-0.2c0.2,0.1,0.2,0.2,0.2,0.4c0,0.4,0,0.9,0,1.3c0,0.5,0.3,0.8,0.8,0.9
		c0.5,0,1,0,1.5,0c0.3,0,0.4-0.2,0.4-0.5c0-1.3,0-2.6,0-4c0-0.9,0-1.7,0-2.6c0-1.9,0-3.7,0-5.6c0-0.7,0-1.3,0-2
		c0-0.2-0.1-0.5-0.1-0.7c0-0.1-0.1-0.1-0.1-0.2c0-0.6,0.1-1.2,0.1-1.9c0-0.1-0.1-0.2-0.1-0.4c0-0.1-0.1-0.2-0.1-0.3
		c0.1-0.3,0-0.5-0.2-0.7c-0.1-0.1-0.3-0.3,0.1-0.3c0,0,0.1-0.1,0.1-0.1c-0.3-0.4,0.1-0.8,0.1-1.2c0-0.3,0.3-0.6-0.1-0.8c0,0,0,0,0,0
		c0.3-0.5-0.2-0.8-0.3-1.2c-0.1-0.2-0.2-0.5-0.1-0.7c0.1-0.3,0-0.7,0.3-1c0.1-0.1,0.1-0.3,0.1-0.4c0-0.2-0.1-0.4-0.1-0.5
		c0.2-1.1-0.2-2.2-0.1-3.3c0-0.3,0.2-0.4,0.2-0.7c0-0.4,0.1-0.8,0-1.2c-0.2-0.8,0.2-1.5,0.4-2.2c0.1-0.4,0.3-0.7,0.7-0.8
		c0.2-0.1,0.4-0.3,0.5-0.4c0.2-0.2,0.3-0.2,0.4,0c0.1,0.2,0.2,0.1,0.3,0c0.6-0.5,1.4-0.7,2.2-0.9c0.3-0.1,0.5-0.2,0.6-0.5
		c0.2-0.4,0.3-0.7,0.8-0.6c0.1,0,0.2-0.1,0.3-0.2c0.1,0,0.2-0.2,0.3-0.1c0.5,0.1,0.8-0.3,1.2-0.5c0.2-0.1,0.5-0.2,0.8-0.3
		c0.5-0.2,1-0.3,1.4-0.7c0.3-0.3,0.7-0.4,1-0.6c0.6-0.3,1-0.8,1.4-1.5c0.4-0.7,1-1.3,1.4-2c0.5-0.8,0.8-1.6,1.2-2.4
		c0.2-0.4,0.3-0.8,0.5-1.2c0.4-0.8,0.6-1.6,0.7-2.4c0.1-0.5,0.2-0.9,0.4-1.4c0.5-1.6,1.1-3.3,1.3-5c0.1-0.8,0.1-1.6,0.3-2.3
		c0.1-0.2,0.2-0.3,0.2-0.5c0.1-0.2,0.2-0.4,0.1-0.6c-0.2-0.7,0.1-1.3,0.3-2c0.1-0.6,0.1-1.1,0-1.7c-0.2-0.8-0.2-1.7-0.2-2.6
		c0-0.7,0.1-1.5,0-2.2c0-0.5-0.2-0.9-0.3-1.4c0-0.1-0.2-0.3-0.2-0.3c-0.4,0-0.5-0.3-0.6-0.6c-0.1-0.2-0.2-0.5-0.4-0.7
		c0,0.2,0,0.5,0,0.8c0.3,1.3,0.5,2.7,0.5,4.1c0.1,0.8,0.2,1.5,0.3,2.3c0.1,0.5,0,1-0.1,1.4c-0.3,0.6-0.2,1.2-0.1,1.7
		c0,0.5,0,0.9,0,1.3c0,0.3-0.2,0.6-0.5,0.8c-0.4,0.3-0.5,0.8-0.5,1.2c0.1,0.8-0.3,1.5-0.3,2.3c0,0.4-0.1,0.8-0.2,1.1
		c-0.1,0.4-0.2,0.9-0.3,1.3c0,0.1-0.1,0.3-0.1,0.5c0.2,0.8-0.2,1.3-0.5,1.9c-0.4,0.8-0.8,1.5-1.3,2.2c-0.6,0.9-1.1,1.8-1.7,2.8
		c-0.5,0.8-0.9,1.6-1.3,2.4c-0.5,0.9-1.1,1.5-2,1.9c-0.2,0.1-0.5,0.2-0.8,0.3c-0.6,0.2-1.1,0.4-1.5,0.9c-0.7,0.7-1.6,0.8-2.5,1
		c-0.7,0.2-1.5,0.2-2,0.7c-0.6,0.5-1.5,0.7-2.2,1.1c-0.4,0.2-0.7,0.5-1.1,0.7c-1.5,0.6-3,0.6-4.5,0c-0.9-0.4-1.8-0.6-2.7-0.9
		c-0.5-0.2-1.1-0.4-1.6-0.7c-0.8-0.5-1.5-1.1-2.2-1.6c-0.4-0.3-0.8-0.4-1.3-0.6c-1.2-0.5-2.3-1.1-3.2-2.1c-0.5-0.6-1-1.2-1.5-1.7
		c-0.5-0.5-0.8-1.2-1.1-1.9c0,0,0-0.1,0-0.1c-0.7-0.8-1-2-1.8-2.7c-0.2-0.2-0.4-0.4-0.4-0.7c-0.3-1.4-0.5-2.7-0.7-4.1
		c-0.3-1.7-0.6-3.4-0.8-5.1c-0.1-0.5-0.1-0.9-0.1-1.4c0-0.5-0.1-1.1-0.1-1.6c0-0.5,0.1-1.1,0.3-1.6c0.2-0.3,0.2-0.7,0.2-1
		c-0.2-1.2-0.1-2.5,0.1-3.7c0.1-0.4,0.1-0.9,0.1-1.3c0-0.9,0.2-1.8,0.4-2.7c0.2-0.6,0.1-1.2,0.4-1.8c0.1-0.4,0-0.9-0.1-1.3
		c-0.1-0.4-0.1-0.7,0-1.1c0.2-0.8,0.1-1.5-0.1-2.3c-0.2-0.5-0.1-1.1,0.2-1.4c0.4-0.5,0.4-1.1,0.4-1.7c0.1-1.1,0.8-1.9,1.5-2.5
		c0.5-0.5,1.3-0.7,2-0.7c0.5,0,1.1,0,1.7,0c0.2,0,0.5,0.1,0.7,0.1c0.4,0,0.7,0,1.1,0c0.3,0,0.6,0,0.9,0c0.2,0,0.4,0.1,0.5,0
		c0.8-0.3,1.5,0,2.3,0.2c0.7,0.1,1.3-0.1,2,0c0.8,0.1,1.5-0.1,2.2,0.2c0.5,0.2,1.1,0.1,1.7,0.1c0.6,0,1.2,0,1.8,0
		c0.6,0,1.2-0.1,1.8-0.1c1.1,0,2.3,0.1,3.4,0c1.2,0,2.4-0.1,3.6-0.2c0.1,0,0.2-0.1,0.3-0.2c-0.1-0.1-0.2-0.2-0.3-0.2
		c-0.1,0-0.3,0-0.5,0c-0.9,0-1.7,0-2.6,0c-1,0-2.1,0.1-3.1,0.1c-0.3,0-0.7,0-1-0.1c-0.6-0.1-1.3-0.1-1.9-0.2c-0.3,0-0.7-0.2-1-0.3
		c-0.2-0.1-0.5-0.1-0.6,0c-0.6,0.3-1.2,0.1-1.7,0.2c-0.1,0-0.3-0.1-0.4,0c-0.8,0.4-1.7-0.1-2.5,0.2c-0.3,0.1-0.6-0.2-1-0.1
		c-0.6,0.1-1.2-0.1-1.8-0.1c-0.7,0-1.4,0-2.1,0c-0.5,0-1,0-1.5-0.1c-0.5-0.2-1.1-0.2-1.7-0.2c-0.4-0.1-0.8-0.1-1.2-0.2
		c-0.5-0.1-1-0.2-1.5-0.1c-0.2,0-0.4,0-0.6-0.1c-0.2-0.1-0.4,0-0.4,0.2c-0.2,1-0.7,1.9-0.7,2.9c0,0.1,0,0.3-0.1,0.4
		C9.3,88.1,9.1,89,9,89.8c-0.1,0.5-0.1,1-0.1,1.6c-0.1,1.1-0.3,2.3-0.5,3.4c-0.1,1.1-0.1,2.2-0.2,3.2c0,0.6-0.1,1.3-0.2,1.9
		c-0.1,1-0.1,1.9-0.1,2.9c0,0.4,0.1,0.8,0.1,1.1c0,0.6-0.1,1.2-0.1,1.8c0,0.4,0,0.7,0,1.1c0,0.5,0.1,1,0,1.5
		C7.7,110.1,7.7,111.7,7.8,113.4z"/>
	<path class="st0" d="M45.5,87.5c0.4,1.3,0.8,2.6,1.2,3.9c0.4,1.6,1,3.1,1.3,4.7c0.1,0.8,0.4,1.5,0.6,2.2c0,0.1,0.1,0.1,0.1,0.2
		c0.2-0.3,0.3-0.1,0.4,0.1c0,0.1,0.1,0.1,0.1,0.2c0-0.1,0-0.1,0-0.2c0-0.1,0-0.1,0-0.2v0c-0.1-0.6-0.2-1.3-0.4-2
		c0-0.3-0.1-0.6-0.2-0.8c-0.4-1.6-0.9-3.2-1.3-4.8c-0.2-0.8-0.3-1.6-0.5-2.4c-0.1-0.3-0.2-0.7-0.3-1c-0.2-0.7-0.3-1.3-0.4-1.9
		c-0.1-0.3-0.2-0.7-0.3-1c-0.1-0.3-0.3-0.5-0.7-0.4c-0.3,0-0.7,0.5-0.7,0.7c0,0.2,0.1,0.4,0.2,0.7C45,86,45.2,86.8,45.5,87.5z"/>
	<path class="st0" d="M42.3,85c0.2-0.1-0.1-0.2-0.4-0.2c-0.1,0-0.3,0-0.5,0.1c-0.1,0-0.2,0.1-0.4,0.2c0.1,0.1,0.2,0.2,0.3,0.2
		C41.7,85.2,42,85.1,42.3,85z"/>
</g>
</svg>
