<?xml version="1.0" encoding="UTF-8"?><svg xmlns="http://www.w3.org/2000/svg" viewBox="0 0 153.71 28.35"><defs><style>.d{fill:#19122b;}</style></defs><g id="a"/><g id="b"><g id="c"><g><path class="d" d="M0,1.17H5.19l6.67,18.83L18.62,1.17h5.18L14.25,27.68h-4.87L0,1.17Z"/><path class="d" d="M42.77,.5c3.64,0,6.64,1.17,9.01,3.51,2.37,2.34,3.55,5.32,3.55,8.92,0,2.76-.7,5.37-2.1,7.81-1.4,2.44-3.26,4.32-5.59,5.63-2.32,1.31-4.99,1.96-8.01,1.96-3.77,0-6.79-1.12-9.04-3.35-2.25-2.23-3.38-5.18-3.38-8.83,0-4.14,1.35-7.71,4.04-10.69,3-3.32,6.84-4.97,11.51-4.97Zm-.18,4.7c-1.9,0-3.63,.46-5.2,1.38-1.57,.92-2.83,2.24-3.79,3.96-.96,1.72-1.44,3.51-1.44,5.34,0,2.17,.67,4.02,2,5.53,1.33,1.51,3.25,2.27,5.75,2.27,2.9,0,5.35-1.02,7.38-3.06,2.02-2.04,3.04-4.52,3.04-7.44,0-2.41-.71-4.35-2.14-5.8-1.42-1.45-3.29-2.18-5.6-2.18Z"/><path class="d" d="M62.35,1.17h5.05V22.87h7.35v4.81h-12.4V1.17Z"/><path class="d" d="M89.44,1.17h5.12l10.2,26.51h-5.24l-2.07-5.46h-10.82l-2.16,5.46h-5.24L89.44,1.17Zm2.59,7.03l-3.56,9.1h7.09l-3.54-9.1Z"/><path class="d" d="M108.81,1.17h14.65V6.14h-4.83V27.68h-5.12V6.14h-4.7V1.17Z"/><path class="d" d="M131.07,0c.86,0,1.6,.31,2.22,.94,.62,.62,.93,1.38,.93,2.27s-.31,1.62-.92,2.24c-.61,.62-1.34,.93-2.19,.93s-1.62-.31-2.24-.95c-.62-.63-.93-1.4-.93-2.3s.31-1.6,.92-2.22c.61-.61,1.35-.92,2.21-.92Zm-2.46,8.07h4.92V27.68h-4.92V8.07Z"/><path class="d" d="M141.31,1.17h5.05V22.87h7.35v4.81h-12.4V1.17Z"/></g></g></g></svg>