<?xml version="1.0" encoding="UTF-8"?><svg xmlns="http://www.w3.org/2000/svg" viewBox="0 0 135.74 269.39"><g id="a"/><g id="b"><g id="c"><path d="M37.38,263.02v-8.31c0-36.82,0-73.63,0-110.45,0-1.28,0-1.28-1.27-1.28-9.88,0-19.77,0-29.65,0-.24,0-.48,0-.78,0v-43.56c1.57,0,3.13,0,4.68,0,8.64,0,17.29,0,25.93,0,1.07,0,1.08,0,1.08-1.06,0-12.39-.12-24.78,.04-37.16,.15-11.22,3.08-21.68,9.53-30.99,6.05-8.72,14.23-14.71,24.07-18.52,5.26-2.04,10.71-3.31,16.3-4.05,6.37-.84,12.77-.92,19.17-.67,3.25,.13,6.51,.17,9.76,.39,4.45,.3,8.89,.74,13.33,1.11,.57,.05,.61,.39,.59,.84-.11,3.28-.22,6.56-.3,9.85-.13,5.52-.24,11.03-.37,16.55-.1,4.12-.2,8.23-.31,12.35,0,.37-.06,.75-.09,1.2-.31,0-.57,0-.83,0-8.24-.04-16.48-.09-24.72-.14-3.34-.02-6.66,.06-9.94,.85-5.68,1.36-8.76,5.08-9.61,10.71-.32,2.09-.49,4.23-.5,6.34-.05,10.45-.02,20.9-.02,31.35,0,1.06,0,1.07,1.07,1.07,14.84,0,29.68,0,44.52,0,1.51,0,1.34-.1,1.27,1.29-.23,5.02-.5,10.05-.75,15.07-.13,2.61-.24,5.21-.36,7.82-.21,4.54-.43,9.08-.64,13.62-.08,1.64-.16,3.28-.17,4.92,0,.69-.25,.85-.9,.84-9.53-.02-19.07-.02-28.6-.02-4.77,0-9.53,0-14.3,0-1.14,0-1.14,0-1.14,1.17,0,39.18,0,78.37,0,117.55,0,1.52,.21,1.32-1.33,1.32-14.57,0-29.14,0-43.71,0h-1.06Z"/></g></g></svg>