<?xml version="1.0" encoding="UTF-8"?><svg xmlns="http://www.w3.org/2000/svg" viewBox="0 0 26.5 26.49"><defs><style>.d{fill:#191919;stroke:#19162a;stroke-width:1.5px;}</style></defs><g id="a"/><g id="b"><g id="c"><g><path class="d" d="M.76,13.22c0-1.79-.03-3.59,0-5.38,.04-1.87,.76-3.49,2.06-4.83,1.21-1.25,2.69-1.98,4.41-2.21,.29-.04,.58-.05,.87-.05,3.43,0,6.87,0,10.3,0,3.32,0,6.24,2.29,7.09,5.5,.18,.7,.25,1.41,.25,2.13,0,3.33,0,6.66,0,9.99,0,3.58-2.64,6.69-6.18,7.25-.67,.11-1.37,.11-2.05,.11-3.14,.01-6.27,0-9.41,0-3.59,0-6.67-2.63-7.25-6.17-.08-.47-.09-.96-.1-1.43-.01-1.64,0-3.27,0-4.91h0Zm23.85,.03h0c0-1.46,0-2.92,0-4.38,0-.52,0-1.05-.07-1.56-.36-3.02-3.02-5.4-6.06-5.42-3.4-.01-6.8,0-10.19,0-.47,0-.95,.04-1.41,.13C3.99,2.6,1.91,5.13,1.9,8.08c-.01,3.44,0,6.88,0,10.32,0,.62,.1,1.23,.29,1.83,.81,2.59,3.21,4.35,5.97,4.36,3.34,.01,6.67,0,10.01,0,.95,0,1.87-.13,2.73-.54,2.37-1.14,3.63-3.04,3.71-5.67,.05-1.71,0-3.43,0-5.14Z"/><path class="d" d="M19.5,13.25c0,3.38-2.73,6.19-6.16,6.24-3.43,.05-6.29-2.71-6.34-6.11-.06-3.47,2.69-6.33,6.14-6.39,3.46-.06,6.35,2.72,6.36,6.25Zm-6.28-5.11c-2.89,.04-5.12,2.34-5.08,5.24,.04,2.73,2.39,4.99,5.1,4.98,2.82-.01,5.17-2.31,5.12-5.22-.05-2.77-2.37-5.04-5.14-5Z"/><path class="d" d="M21.2,6.43c0,.64-.51,1.14-1.15,1.14-.62,0-1.13-.53-1.12-1.15,0-.63,.53-1.14,1.16-1.13,.61,0,1.11,.53,1.11,1.14Z"/></g></g></g></svg>